<?xml version="1.0" encoding="UTF-8" standalone="no"?>
<!-- Generator: Adobe Illustrator 19.0.0, SVG Export Plug-In . SVG Version: 6.00 Build 0)  -->

<svg
   xmlns:dc="http://purl.org/dc/elements/1.1/"
   xmlns:cc="http://creativecommons.org/ns#"
   xmlns:rdf="http://www.w3.org/1999/02/22-rdf-syntax-ns#"
   xmlns:svg="http://www.w3.org/2000/svg"
   xmlns="http://www.w3.org/2000/svg"
   xmlns:sodipodi="http://sodipodi.sourceforge.net/DTD/sodipodi-0.dtd"
   xmlns:inkscape="http://www.inkscape.org/namespaces/inkscape"
   version="1.1"
   id="Layer_1"
   x="0px"
   y="0px"
   viewBox="0 0 511.999 511.999"
   style="enable-background:new 0 0 511.999 511.999;"
   xml:space="preserve"
   sodipodi:docname="blinky.svg"
   inkscape:version="0.92.5 (2060ec1f9f, 2020-04-08)"><metadata
   id="metadata55"><rdf:RDF><cc:Work
       rdf:about=""><dc:format>image/svg+xml</dc:format><dc:type
         rdf:resource="http://purl.org/dc/dcmitype/StillImage" /><dc:title></dc:title></cc:Work></rdf:RDF></metadata><defs
   id="defs53" /><sodipodi:namedview
   pagecolor="#ffffff"
   bordercolor="#666666"
   borderopacity="1"
   objecttolerance="10"
   gridtolerance="10"
   guidetolerance="10"
   inkscape:pageopacity="0"
   inkscape:pageshadow="2"
   inkscape:window-width="1920"
   inkscape:window-height="1015"
   id="namedview51"
   showgrid="false"
   inkscape:zoom="0.46093841"
   inkscape:cx="260.33847"
   inkscape:cy="255.9995"
   inkscape:window-x="0"
   inkscape:window-y="41"
   inkscape:window-maximized="1"
   inkscape:current-layer="Layer_1" />
<path
   style="fill:#FFA05A;"
   d="M464.001,504.001l-52.047-48l-52.047,48l-52.011-48l-51.966,48l-51.994-48l-51.981,48l-51.979-48  l-51.978,48V215.999c0-114.875,93.125-208.001,208.001-208.001S464.001,101.123,464.001,216V504.001z"
   id="path2" />
<path
   style="fill:#F08C46;"
   d="M287.991,10.448c-10.429-1.61-21.112-2.449-31.993-2.449C141.124,7.998,47.998,101.123,47.998,216  v288.002l51.98-48.001l12.005,11.086V216C111.983,112.003,188.306,25.837,287.991,10.448z"
   id="path4" />
<g
   id="g10">
	<circle
   style="fill:#FFFFFF;"
   cx="167.97"
   cy="224.068"
   r="39.991"
   id="circle6" />
	<circle
   style="fill:#FFFFFF;"
   cx="342.93"
   cy="224.068"
   r="39.991"
   id="circle8" />
</g>
<g
   id="g16">
	<circle
   style="fill:#82B9FF;"
   cx="175.969"
   cy="224.068"
   r="20.995"
   id="circle12" />
	<circle
   style="fill:#82B9FF;"
   cx="350.928"
   cy="224.068"
   r="20.995"
   id="circle14" />
</g>
<path
   d="M470.513,508.634c0.078-0.11,0.154-0.222,0.226-0.336c0.07-0.11,0.138-0.221,0.202-0.333  c0.064-0.112,0.125-0.226,0.183-0.341c0.06-0.118,0.118-0.236,0.172-0.357c0.052-0.117,0.101-0.236,0.148-0.356  c0.048-0.122,0.093-0.245,0.135-0.368c0.041-0.123,0.078-0.247,0.114-0.373c0.036-0.127,0.069-0.254,0.098-0.382  c0.028-0.124,0.053-0.249,0.076-0.375c0.024-0.136,0.045-0.272,0.062-0.408c0.015-0.12,0.028-0.241,0.038-0.363  c0.012-0.146,0.018-0.292,0.022-0.439c0.002-0.068,0.01-0.135,0.01-0.203V215.999c0-57.696-22.468-111.937-63.264-152.734  C367.937,22.468,313.696,0,256,0S144.062,22.468,103.264,63.264C62.468,104.062,40,158.303,40,215.999v288.002  c0,0.07,0.009,0.137,0.011,0.206c0.004,0.146,0.01,0.292,0.022,0.438c0.01,0.122,0.023,0.244,0.038,0.365  c0.017,0.137,0.038,0.272,0.062,0.408c0.023,0.126,0.048,0.251,0.076,0.375c0.029,0.128,0.062,0.255,0.098,0.382  c0.035,0.125,0.073,0.249,0.114,0.372c0.042,0.124,0.087,0.246,0.135,0.368c0.047,0.12,0.096,0.239,0.149,0.356  c0.053,0.12,0.111,0.238,0.171,0.355c0.059,0.116,0.12,0.23,0.185,0.343c0.064,0.112,0.131,0.221,0.201,0.331  c0.074,0.115,0.15,0.228,0.229,0.339c0.071,0.1,0.144,0.198,0.221,0.295c0.09,0.115,0.184,0.227,0.281,0.337  c0.046,0.052,0.085,0.107,0.132,0.158c0.033,0.036,0.069,0.065,0.103,0.1c0.112,0.117,0.228,0.228,0.347,0.338  c0.085,0.079,0.169,0.158,0.256,0.233c0.114,0.097,0.234,0.188,0.354,0.278c0.097,0.073,0.192,0.149,0.291,0.218  c0.121,0.083,0.248,0.158,0.373,0.234c0.102,0.062,0.202,0.129,0.307,0.186c0.147,0.081,0.3,0.151,0.453,0.222  c0.087,0.041,0.171,0.087,0.259,0.125c0.727,0.31,1.509,0.516,2.327,0.598c0.174,0.018,0.348,0.02,0.522,0.026  c0.095,0.003,0.188,0.014,0.284,0.014h0.001h0.001c0.258,0,0.515-0.014,0.772-0.039c0.096-0.009,0.189-0.026,0.284-0.039  c0.158-0.021,0.316-0.042,0.473-0.072c0.112-0.022,0.221-0.05,0.331-0.077c0.137-0.033,0.274-0.065,0.409-0.105  c0.113-0.034,0.223-0.072,0.334-0.111c0.13-0.045,0.259-0.09,0.387-0.142c0.109-0.044,0.215-0.092,0.321-0.14  c0.125-0.057,0.249-0.115,0.372-0.179c0.105-0.054,0.207-0.113,0.309-0.171c0.117-0.068,0.233-0.137,0.347-0.211  c0.104-0.067,0.205-0.138,0.305-0.21c0.105-0.075,0.209-0.152,0.311-0.232c0.103-0.082,0.203-0.167,0.302-0.254  c0.055-0.048,0.114-0.091,0.168-0.141l46.554-42.99l46.553,42.99c3.062,2.829,7.787,2.829,10.852,0l46.555-42.99l46.567,42.99  c3.065,2.83,7.789,2.829,10.852-0.001l46.541-42.989l46.584,42.992c3.062,2.826,7.782,2.827,10.847,0.002l46.624-42.999  l46.624,42.999c0.052,0.048,0.107,0.087,0.16,0.133c0.108,0.095,0.218,0.187,0.331,0.276c0.098,0.077,0.198,0.152,0.299,0.224  c0.11,0.078,0.222,0.154,0.336,0.227c0.11,0.07,0.22,0.138,0.332,0.202c0.112,0.064,0.227,0.125,0.343,0.184  c0.117,0.06,0.235,0.117,0.354,0.171c0.118,0.053,0.238,0.102,0.36,0.149c0.12,0.047,0.241,0.092,0.363,0.133  c0.125,0.042,0.251,0.08,0.379,0.116c0.124,0.035,0.248,0.067,0.374,0.096c0.127,0.029,0.255,0.055,0.384,0.077  c0.132,0.024,0.264,0.044,0.396,0.06c0.125,0.016,0.25,0.029,0.376,0.039c0.141,0.011,0.283,0.018,0.424,0.021  c0.071,0.002,0.14,0.011,0.212,0.011c0.054,0,0.105-0.007,0.159-0.008c0.138-0.003,0.276-0.011,0.414-0.021  c0.13-0.009,0.26-0.019,0.389-0.034c0.123-0.015,0.245-0.036,0.368-0.056c0.139-0.023,0.277-0.046,0.414-0.077  c0.112-0.025,0.223-0.056,0.334-0.086c0.14-0.038,0.28-0.075,0.417-0.12c0.111-0.036,0.22-0.079,0.33-0.121  c0.131-0.049,0.261-0.098,0.389-0.154c0.116-0.051,0.229-0.108,0.342-0.165c0.116-0.058,0.233-0.115,0.347-0.178  c0.116-0.065,0.228-0.136,0.342-0.207c0.107-0.067,0.214-0.133,0.317-0.205c0.108-0.075,0.213-0.157,0.318-0.238  c0.104-0.081,0.208-0.161,0.308-0.246c0.094-0.081,0.186-0.166,0.277-0.252c0.104-0.098,0.207-0.197,0.306-0.3  c0.036-0.037,0.075-0.07,0.111-0.108c0.047-0.051,0.087-0.107,0.133-0.16c0.095-0.108,0.187-0.218,0.276-0.331  C470.366,508.834,470.441,508.735,470.513,508.634z M406.531,450.121l-46.622,42.997l-46.588-42.995  c-3.064-2.828-7.789-2.827-10.851,0.002l-46.54,42.989l-46.567-42.99c-3.064-2.829-7.788-2.829-10.851,0l-46.554,42.99  l-46.553-42.99c-3.063-2.83-7.788-2.83-10.851,0l-38.555,35.605v-269.73c0-110.281,89.721-200.003,200.004-200.003  s200.003,89.721,200.003,200.003v269.745l-38.626-35.623C414.313,447.297,409.595,447.297,406.531,450.121z M211.979,204.75  c2.666,6.085,4.018,12.56,4.018,19.249c0,26.467-21.532,47.999-47.998,47.999c-26.467,0-47.999-21.532-47.999-47.999  c0-26.466,21.532-47.998,47.999-47.998c6.666,0,13.122,1.343,19.189,3.991c4.048,1.768,5.898,6.481,4.13,10.531  c-1.768,4.048-6.482,5.896-10.531,4.13c-4.036-1.763-8.339-2.655-12.789-2.655c-17.646,0-32.003,14.356-32.003,32.002  c0,17.646,14.356,32.003,32.003,32.003c17.646,0,32.002-14.356,32.002-32.003c0-4.464-0.899-8.781-2.673-12.829  c-1.773-4.046,0.07-8.763,4.116-10.536C205.488,198.861,210.207,200.704,211.979,204.75z M387.98,204.75  c2.666,6.085,4.018,12.56,4.018,19.249c0,26.467-21.532,47.999-47.998,47.999c-26.467,0-47.999-21.532-47.999-47.999  c0-26.466,21.532-47.998,47.999-47.998c6.666,0,13.122,1.343,19.189,3.991c4.048,1.768,5.898,6.481,4.13,10.531  c-1.768,4.048-6.483,5.896-10.531,4.13c-4.036-1.763-8.339-2.655-12.789-2.655c-17.646,0-32.003,14.356-32.003,32.002  c0,17.646,14.356,32.003,32.003,32.003c17.646,0,32.002-14.356,32.002-32.003c0-4.464-0.899-8.781-2.673-12.829  c-1.773-4.046,0.07-8.763,4.116-10.536C381.49,198.861,386.208,200.704,387.98,204.75z"
   id="path18" />
<g
   id="g20">
</g>
<g
   id="g22">
</g>
<g
   id="g24">
</g>
<g
   id="g26">
</g>
<g
   id="g28">
</g>
<g
   id="g30">
</g>
<g
   id="g32">
</g>
<g
   id="g34">
</g>
<g
   id="g36">
</g>
<g
   id="g38">
</g>
<g
   id="g40">
</g>
<g
   id="g42">
</g>
<g
   id="g44">
</g>
<g
   id="g46">
</g>
<g
   id="g48">
</g>
<path
   style="fill:#ff0000;fill-opacity:1;stroke-width:2.16948724"
   d="m 130.80818,472.58904 -19.10338,-17.93556 0.81493,-136.53369 c 0.79934,-133.92056 0.90872,-136.86589 5.71527,-153.8896 17.819,-63.11087 61.30799,-113.857529 119.25698,-139.159193 19.26018,-8.40937 32.11515,-9.253519 58.40907,-3.835555 64.30252,13.249786 120.10761,59.830055 144.31731,120.461058 13.85528,34.69931 13.20378,25.81953 13.98632,190.6263 l 0.71571,150.73671 -6.06402,-5.44201 c -3.33522,-2.99311 -12.09322,-11.02813 -19.46225,-17.85562 -7.36904,-6.82748 -15.17919,-12.40172 -17.3559,-12.38718 -2.17671,0.0152 -14.53934,9.77723 -27.47248,21.69487 -12.93316,11.91764 -24.01976,21.66845 -24.63693,21.66845 -0.61716,0 -11.74873,-9.76269 -24.73682,-21.69487 -12.98809,-11.93218 -25.33193,-21.68299 -27.43076,-21.66845 -2.09884,0.0152 -14.39773,9.77723 -27.33088,21.69487 -12.93315,11.91764 -24.03324,21.66845 -24.66687,21.66845 -0.63363,0 -11.65689,-9.76269 -24.49614,-21.69487 -12.83925,-11.93218 -25.16962,-21.67856 -27.40082,-21.6586 -2.23121,0.0195 -14.55592,9.78265 -27.38824,21.69487 -12.83232,11.91222 -24.05942,21.61059 -24.9491,21.55188 -0.88969,-0.0588 -10.21413,-8.17771 -20.721,-18.04226 z m 59.2389,-205.3695 c 16.59895,-8.48245 26.05598,-24.41317 26.00187,-43.80115 -0.0371,-13.30837 -3.7028,-21.94194 -9.7852,-23.04666 -5.94069,-1.07897 -14.04718,-8.97939 -14.04718,-13.69009 0,-6.48131 -9.21745,-10.73779 -23.3997,-10.80563 -22.74933,-0.1088 -41.25457,13.45505 -47.4548,34.78312 -11.83329,40.70506 30.88094,75.87918 68.68501,56.56041 z m 174.64373,0.64182 c 17.54473,-8.74845 27.49842,-24.88762 27.40494,-44.43493 -0.0704,-14.71248 -4.36032,-23.3997 -11.55534,-23.3997 -6.29692,0 -12.59537,-6.07344 -12.59537,-12.14541 0,-7.79884 -7.81753,-11.71895 -23.37009,-11.71895 -46.81471,0 -66.44655,54.73674 -30.62806,85.39603 14.05555,12.03104 34.23082,14.53701 50.74392,6.30296 z"
   id="path57"
   inkscape:connector-curvature="0" /><path
   style="fill:#ff0000;fill-opacity:1;stroke-width:2.16948724"
   d="m 57.708361,337.92756 c 0,-158.1569 0.171749,-160.71809 12.998564,-193.83883 10.264709,-26.50501 22.959093,-45.507557 45.375955,-67.924417 22.60609,-22.60609 41.37472,-35.082902 68.78562,-45.726591 18.79802,-7.299293 43.99585,-12.673149 59.06424,-12.596433 l 10.11422,0.05149 -12.11154,4.982497 C 193.46041,42.817137 157.82756,76.496999 133.699,125.17941 c -21.1612,42.69539 -20.00954,32.32965 -21.16687,190.51585 -0.95907,131.08717 -1.21253,138.2675 -4.76719,135.05058 -4.0809,-3.69318 -12.207079,-4.54985 -14.100348,-1.48647 -0.64962,1.05112 -9.005524,8.96469 -18.568678,17.58576 l -17.387553,15.67463 z"
   id="path59"
   inkscape:connector-curvature="0" /></svg>