<?xml version="1.0" encoding="UTF-8" standalone="no"?>
<!-- Generator: Adobe Illustrator 19.0.0, SVG Export Plug-In . SVG Version: 6.00 Build 0)  -->

<svg
   xmlns:dc="http://purl.org/dc/elements/1.1/"
   xmlns:cc="http://creativecommons.org/ns#"
   xmlns:rdf="http://www.w3.org/1999/02/22-rdf-syntax-ns#"
   xmlns:svg="http://www.w3.org/2000/svg"
   xmlns="http://www.w3.org/2000/svg"
   xmlns:sodipodi="http://sodipodi.sourceforge.net/DTD/sodipodi-0.dtd"
   xmlns:inkscape="http://www.inkscape.org/namespaces/inkscape"
   version="1.1"
   id="Layer_1"
   x="0px"
   y="0px"
   viewBox="0 0 511.999 511.999"
   style="enable-background:new 0 0 511.999 511.999;"
   xml:space="preserve"
   sodipodi:docname="inky.svg"
   inkscape:version="0.92.5 (2060ec1f9f, 2020-04-08)"><metadata
   id="metadata55"><rdf:RDF><cc:Work
       rdf:about=""><dc:format>image/svg+xml</dc:format><dc:type
         rdf:resource="http://purl.org/dc/dcmitype/StillImage" /><dc:title></dc:title></cc:Work></rdf:RDF></metadata><defs
   id="defs53" /><sodipodi:namedview
   pagecolor="#ffffff"
   bordercolor="#666666"
   borderopacity="1"
   objecttolerance="10"
   gridtolerance="10"
   guidetolerance="10"
   inkscape:pageopacity="0"
   inkscape:pageshadow="2"
   inkscape:window-width="1920"
   inkscape:window-height="1015"
   id="namedview51"
   showgrid="false"
   inkscape:zoom="0.46093841"
   inkscape:cx="260.33847"
   inkscape:cy="255.9995"
   inkscape:window-x="0"
   inkscape:window-y="41"
   inkscape:window-maximized="1"
   inkscape:current-layer="Layer_1" />
<path
   style="fill:#FFA05A;"
   d="M464.001,504.001l-52.047-48l-52.047,48l-52.011-48l-51.966,48l-51.994-48l-51.981,48l-51.979-48  l-51.978,48V215.999c0-114.875,93.125-208.001,208.001-208.001S464.001,101.123,464.001,216V504.001z"
   id="path2" />
<path
   style="fill:#F08C46;"
   d="M287.991,10.448c-10.429-1.61-21.112-2.449-31.993-2.449C141.124,7.998,47.998,101.123,47.998,216  v288.002l51.98-48.001l12.005,11.086V216C111.983,112.003,188.306,25.837,287.991,10.448z"
   id="path4" />
<g
   id="g10">
	<circle
   style="fill:#FFFFFF;"
   cx="167.97"
   cy="224.068"
   r="39.991"
   id="circle6" />
	<circle
   style="fill:#FFFFFF;"
   cx="342.93"
   cy="224.068"
   r="39.991"
   id="circle8" />
</g>
<g
   id="g16">
	<circle
   style="fill:#82B9FF;"
   cx="175.969"
   cy="224.068"
   r="20.995"
   id="circle12" />
	<circle
   style="fill:#82B9FF;"
   cx="350.928"
   cy="224.068"
   r="20.995"
   id="circle14" />
</g>
<path
   d="M470.513,508.634c0.078-0.11,0.154-0.222,0.226-0.336c0.07-0.11,0.138-0.221,0.202-0.333  c0.064-0.112,0.125-0.226,0.183-0.341c0.06-0.118,0.118-0.236,0.172-0.357c0.052-0.117,0.101-0.236,0.148-0.356  c0.048-0.122,0.093-0.245,0.135-0.368c0.041-0.123,0.078-0.247,0.114-0.373c0.036-0.127,0.069-0.254,0.098-0.382  c0.028-0.124,0.053-0.249,0.076-0.375c0.024-0.136,0.045-0.272,0.062-0.408c0.015-0.12,0.028-0.241,0.038-0.363  c0.012-0.146,0.018-0.292,0.022-0.439c0.002-0.068,0.01-0.135,0.01-0.203V215.999c0-57.696-22.468-111.937-63.264-152.734  C367.937,22.468,313.696,0,256,0S144.062,22.468,103.264,63.264C62.468,104.062,40,158.303,40,215.999v288.002  c0,0.07,0.009,0.137,0.011,0.206c0.004,0.146,0.01,0.292,0.022,0.438c0.01,0.122,0.023,0.244,0.038,0.365  c0.017,0.137,0.038,0.272,0.062,0.408c0.023,0.126,0.048,0.251,0.076,0.375c0.029,0.128,0.062,0.255,0.098,0.382  c0.035,0.125,0.073,0.249,0.114,0.372c0.042,0.124,0.087,0.246,0.135,0.368c0.047,0.12,0.096,0.239,0.149,0.356  c0.053,0.12,0.111,0.238,0.171,0.355c0.059,0.116,0.12,0.23,0.185,0.343c0.064,0.112,0.131,0.221,0.201,0.331  c0.074,0.115,0.15,0.228,0.229,0.339c0.071,0.1,0.144,0.198,0.221,0.295c0.09,0.115,0.184,0.227,0.281,0.337  c0.046,0.052,0.085,0.107,0.132,0.158c0.033,0.036,0.069,0.065,0.103,0.1c0.112,0.117,0.228,0.228,0.347,0.338  c0.085,0.079,0.169,0.158,0.256,0.233c0.114,0.097,0.234,0.188,0.354,0.278c0.097,0.073,0.192,0.149,0.291,0.218  c0.121,0.083,0.248,0.158,0.373,0.234c0.102,0.062,0.202,0.129,0.307,0.186c0.147,0.081,0.3,0.151,0.453,0.222  c0.087,0.041,0.171,0.087,0.259,0.125c0.727,0.31,1.509,0.516,2.327,0.598c0.174,0.018,0.348,0.02,0.522,0.026  c0.095,0.003,0.188,0.014,0.284,0.014h0.001h0.001c0.258,0,0.515-0.014,0.772-0.039c0.096-0.009,0.189-0.026,0.284-0.039  c0.158-0.021,0.316-0.042,0.473-0.072c0.112-0.022,0.221-0.05,0.331-0.077c0.137-0.033,0.274-0.065,0.409-0.105  c0.113-0.034,0.223-0.072,0.334-0.111c0.13-0.045,0.259-0.09,0.387-0.142c0.109-0.044,0.215-0.092,0.321-0.14  c0.125-0.057,0.249-0.115,0.372-0.179c0.105-0.054,0.207-0.113,0.309-0.171c0.117-0.068,0.233-0.137,0.347-0.211  c0.104-0.067,0.205-0.138,0.305-0.21c0.105-0.075,0.209-0.152,0.311-0.232c0.103-0.082,0.203-0.167,0.302-0.254  c0.055-0.048,0.114-0.091,0.168-0.141l46.554-42.99l46.553,42.99c3.062,2.829,7.787,2.829,10.852,0l46.555-42.99l46.567,42.99  c3.065,2.83,7.789,2.829,10.852-0.001l46.541-42.989l46.584,42.992c3.062,2.826,7.782,2.827,10.847,0.002l46.624-42.999  l46.624,42.999c0.052,0.048,0.107,0.087,0.16,0.133c0.108,0.095,0.218,0.187,0.331,0.276c0.098,0.077,0.198,0.152,0.299,0.224  c0.11,0.078,0.222,0.154,0.336,0.227c0.11,0.07,0.22,0.138,0.332,0.202c0.112,0.064,0.227,0.125,0.343,0.184  c0.117,0.06,0.235,0.117,0.354,0.171c0.118,0.053,0.238,0.102,0.36,0.149c0.12,0.047,0.241,0.092,0.363,0.133  c0.125,0.042,0.251,0.08,0.379,0.116c0.124,0.035,0.248,0.067,0.374,0.096c0.127,0.029,0.255,0.055,0.384,0.077  c0.132,0.024,0.264,0.044,0.396,0.06c0.125,0.016,0.25,0.029,0.376,0.039c0.141,0.011,0.283,0.018,0.424,0.021  c0.071,0.002,0.14,0.011,0.212,0.011c0.054,0,0.105-0.007,0.159-0.008c0.138-0.003,0.276-0.011,0.414-0.021  c0.13-0.009,0.26-0.019,0.389-0.034c0.123-0.015,0.245-0.036,0.368-0.056c0.139-0.023,0.277-0.046,0.414-0.077  c0.112-0.025,0.223-0.056,0.334-0.086c0.14-0.038,0.28-0.075,0.417-0.12c0.111-0.036,0.22-0.079,0.33-0.121  c0.131-0.049,0.261-0.098,0.389-0.154c0.116-0.051,0.229-0.108,0.342-0.165c0.116-0.058,0.233-0.115,0.347-0.178  c0.116-0.065,0.228-0.136,0.342-0.207c0.107-0.067,0.214-0.133,0.317-0.205c0.108-0.075,0.213-0.157,0.318-0.238  c0.104-0.081,0.208-0.161,0.308-0.246c0.094-0.081,0.186-0.166,0.277-0.252c0.104-0.098,0.207-0.197,0.306-0.3  c0.036-0.037,0.075-0.07,0.111-0.108c0.047-0.051,0.087-0.107,0.133-0.16c0.095-0.108,0.187-0.218,0.276-0.331  C470.366,508.834,470.441,508.735,470.513,508.634z M406.531,450.121l-46.622,42.997l-46.588-42.995  c-3.064-2.828-7.789-2.827-10.851,0.002l-46.54,42.989l-46.567-42.99c-3.064-2.829-7.788-2.829-10.851,0l-46.554,42.99  l-46.553-42.99c-3.063-2.83-7.788-2.83-10.851,0l-38.555,35.605v-269.73c0-110.281,89.721-200.003,200.004-200.003  s200.003,89.721,200.003,200.003v269.745l-38.626-35.623C414.313,447.297,409.595,447.297,406.531,450.121z M211.979,204.75  c2.666,6.085,4.018,12.56,4.018,19.249c0,26.467-21.532,47.999-47.998,47.999c-26.467,0-47.999-21.532-47.999-47.999  c0-26.466,21.532-47.998,47.999-47.998c6.666,0,13.122,1.343,19.189,3.991c4.048,1.768,5.898,6.481,4.13,10.531  c-1.768,4.048-6.482,5.896-10.531,4.13c-4.036-1.763-8.339-2.655-12.789-2.655c-17.646,0-32.003,14.356-32.003,32.002  c0,17.646,14.356,32.003,32.003,32.003c17.646,0,32.002-14.356,32.002-32.003c0-4.464-0.899-8.781-2.673-12.829  c-1.773-4.046,0.07-8.763,4.116-10.536C205.488,198.861,210.207,200.704,211.979,204.75z M387.98,204.75  c2.666,6.085,4.018,12.56,4.018,19.249c0,26.467-21.532,47.999-47.998,47.999c-26.467,0-47.999-21.532-47.999-47.999  c0-26.466,21.532-47.998,47.999-47.998c6.666,0,13.122,1.343,19.189,3.991c4.048,1.768,5.898,6.481,4.13,10.531  c-1.768,4.048-6.483,5.896-10.531,4.13c-4.036-1.763-8.339-2.655-12.789-2.655c-17.646,0-32.003,14.356-32.003,32.002  c0,17.646,14.356,32.003,32.003,32.003c17.646,0,32.002-14.356,32.002-32.003c0-4.464-0.899-8.781-2.673-12.829  c-1.773-4.046,0.07-8.763,4.116-10.536C381.49,198.861,386.208,200.704,387.98,204.75z"
   id="path18" />
<g
   id="g20">
</g>
<g
   id="g22">
</g>
<g
   id="g24">
</g>
<g
   id="g26">
</g>
<g
   id="g28">
</g>
<g
   id="g30">
</g>
<g
   id="g32">
</g>
<g
   id="g34">
</g>
<g
   id="g36">
</g>
<g
   id="g38">
</g>
<g
   id="g40">
</g>
<g
   id="g42">
</g>
<g
   id="g44">
</g>
<g
   id="g46">
</g>
<g
   id="g48">
</g>
<path
   style="fill:#00ffff;fill-opacity:1;stroke-width:2.16948724"
   d="m 130.80818,472.58904 -19.10338,-17.93556 0.81493,-136.53369 c 0.79934,-133.92056 0.90872,-136.86589 5.71527,-153.8896 17.819,-63.11087 61.30799,-113.857529 119.25698,-139.159193 19.26018,-8.40937 32.11515,-9.253519 58.40907,-3.835555 64.30252,13.249786 120.10761,59.830055 144.31731,120.461058 13.85528,34.69931 13.20378,25.81953 13.98632,190.6263 l 0.71571,150.73671 -6.06402,-5.44201 c -3.33522,-2.99311 -12.09322,-11.02813 -19.46225,-17.85562 -7.36904,-6.82748 -15.17919,-12.40172 -17.3559,-12.38718 -2.17671,0.0152 -14.53934,9.77723 -27.47248,21.69487 -12.93316,11.91764 -24.01976,21.66845 -24.63693,21.66845 -0.61716,0 -11.74873,-9.76269 -24.73682,-21.69487 -12.98809,-11.93218 -25.33193,-21.68299 -27.43076,-21.66845 -2.09884,0.0152 -14.39773,9.77723 -27.33088,21.69487 -12.93315,11.91764 -24.03324,21.66845 -24.66687,21.66845 -0.63363,0 -11.65689,-9.76269 -24.49614,-21.69487 -12.83925,-11.93218 -25.16962,-21.67856 -27.40082,-21.6586 -2.23121,0.0195 -14.55592,9.78265 -27.38824,21.69487 -12.83232,11.91222 -24.05942,21.61059 -24.9491,21.55188 -0.88969,-0.0588 -10.21413,-8.17771 -20.721,-18.04226 z m 59.2389,-205.3695 c 16.59895,-8.48245 26.05598,-24.41317 26.00187,-43.80115 -0.0371,-13.30837 -3.7028,-21.94194 -9.7852,-23.04666 -5.94069,-1.07897 -14.04718,-8.97939 -14.04718,-13.69009 0,-6.48131 -9.21745,-10.73779 -23.3997,-10.80563 -22.74933,-0.1088 -41.25457,13.45505 -47.4548,34.78312 -11.83329,40.70506 30.88094,75.87918 68.68501,56.56041 z m 174.64373,0.64182 c 17.54473,-8.74845 27.49842,-24.88762 27.40494,-44.43493 -0.0704,-14.71248 -4.36032,-23.3997 -11.55534,-23.3997 -6.29692,0 -12.59537,-6.07344 -12.59537,-12.14541 0,-7.79884 -7.81753,-11.71895 -23.37009,-11.71895 -46.81471,0 -66.44655,54.73674 -30.62806,85.39603 14.05555,12.03104 34.23082,14.53701 50.74392,6.30296 z"
   id="path57"
   inkscape:connector-curvature="0" /><path
   style="fill:#00ffff;fill-opacity:1;stroke-width:2.16948724"
   d="m 57.708361,337.92756 c 0,-158.1569 0.171749,-160.71809 12.998564,-193.83883 10.264709,-26.50501 22.959093,-45.507557 45.375955,-67.924417 22.60609,-22.60609 41.37472,-35.082902 68.78562,-45.726591 18.85399,-7.321024 44.06256,-12.685747 59.06424,-12.56966 l 10.11422,0.07827 -11.92904,4.288933 c -34.94119,12.562649 -79.59089,50.810413 -100.65026,86.218905 -14.28125,24.01197 -24.94282,53.12195 -27.45402,74.95943 -1.11934,9.73383 -2.1281,69.44015 -2.24169,132.6807 -0.20109,111.9586 -1.20189,139.6274 -4.84562,133.96584 -1.99421,-3.09857 -11.487351,-3.67177 -13.261738,-0.80076 -0.64962,1.05112 -9.005524,8.96469 -18.568678,17.58576 l -17.387553,15.67462 z"
   id="path59"
   inkscape:connector-curvature="0" /><path
   style="fill:#00ffff;fill-opacity:1;stroke-width:2.16948724"
   d="m 130.83583,470.67026 -18.82909,-17.89827 1.76152,-138.84718 1.76152,-138.84719 7.15261,-21.1308 C 142.61086,95.072592 185.34497,48.363959 240.53268,25.135773 c 38.46991,-16.191762 104.75478,4.711765 150.4335,47.440562 24.71637,23.120173 42.66677,51.306655 54.22434,85.145385 l 5.92789,17.3559 1.61112,151.86411 c 0.88611,83.52526 1.25724,152.22298 0.82476,152.66163 -0.43251,0.43863 -6.44783,-4.50589 -13.36736,-10.98784 -16.59185,-15.54258 -24.31879,-21.26725 -28.70566,-21.26725 -1.98402,0 -14.12627,9.27456 -26.98276,20.61013 -12.85649,11.33557 -23.92882,20.61013 -24.6052,20.61013 -0.67636,0 -7.51068,-5.61355 -15.18732,-12.47455 -23.6474,-21.13482 -33.5294,-28.74571 -37.3235,-28.74571 -2.00416,0 -14.16288,9.27456 -27.01937,20.61013 -12.85648,11.33557 -23.94708,20.61013 -24.64577,20.61013 -0.69869,0 -8.68237,-6.61492 -17.74152,-14.69979 -24.66055,-22.00845 -30.54748,-26.52363 -34.5359,-26.48847 -1.99659,0.0174 -14.18501,9.29216 -27.08539,20.61013 -12.90038,11.31798 -24.18297,20.57813 -25.07243,20.57813 -0.88945,0 -10.09028,-8.05422 -20.44628,-17.89827 z m 62.61637,-204.4479 c 14.05941,-8.23937 21.16542,-20.09017 22.24883,-37.1047 1.22059,-19.16906 -0.43734,-23.84389 -10.76942,-30.36625 -4.89381,-3.08933 -9.95742,-8.4241 -11.25246,-11.85506 -2.95016,-7.81587 -11.93181,-11.68946 -26.28697,-11.337 -26.67487,0.65493 -45.10938,17.40895 -48.24004,43.84247 -4.69018,39.60127 39.30827,67.3271 74.30006,46.82054 z m 166.36167,4.47162 c 20.37897,-7.27254 32.36104,-24.3328 32.56864,-46.37168 0.14384,-15.2784 -2.81467,-21.1915 -12.66162,-25.30582 -5.15534,-2.15404 -8.61157,-5.61027 -10.76561,-10.76561 -4.14797,-9.92752 -8.71585,-12.10125 -25.27435,-12.02739 -18.15314,0.081 -30.85993,6.44564 -40.07833,20.07475 -13.58553,20.08577 -11.60477,41.95454 5.46756,60.36519 14.73928,15.89471 32.08249,20.69008 50.74371,14.03056 z"
   id="path61"
   inkscape:connector-curvature="0" /><path
   style="fill:#00ffff;fill-opacity:1;stroke-width:2.16948724"
   d="m 130.82053,471.00048 -18.95082,-17.56805 1.15332,-116.39779 c 0.63433,-64.01877 1.52443,-127.62488 1.97801,-141.34689 0.51948,-15.71586 0.19555,-21.73754 -0.87526,-16.27115 -0.93497,4.77287 -2.37173,65.30156 -3.1928,134.50821 -0.82107,69.20664 -1.97119,127.53873 -2.55583,129.62686 -0.71428,2.55119 -3.22862,3.7966 -7.66482,3.7966 -5.244017,0 -10.23376,3.41686 -24.260532,16.61305 l -17.658693,16.61304 -0.57072,-76.8079 c -0.778638,-104.7899 2.533102,-225.41139 6.576624,-239.53627 5.00194,-17.47285 15.385168,-40.55182 24.470521,-54.39102 10.86237,-16.546033 43.94217,-49.625832 60.48821,-60.488205 23.10199,-15.166322 64.06705,-29.400442 84.5685,-29.384998 l 8.87328,0.0067 -14.62329,7.36578 c -31.88253,16.059297 -67.80056,48.957423 -86.69977,79.410263 -10.52452,16.95845 -21.8947,43.3674 -24.28121,56.39674 -0.76494,4.17626 1.94656,-1.41301 6.02555,-12.42061 17.46515,-47.13154 45.49883,-83.071842 84.78989,-108.704026 24.69943,-16.113097 42.06342,-22.414359 61.5756,-22.345329 20.89618,0.07392 45.9114,6.422831 69.23346,17.571561 51.45164,24.595635 86.89221,64.996344 106.09695,120.945944 l 5.79568,16.88464 1.73697,151.75242 c 0.95534,83.46382 1.38086,152.10853 0.94562,152.54377 -0.43524,0.43526 -7.97024,-5.7187 -16.74443,-13.67547 -8.77419,-7.95677 -18.10969,-15.47905 -20.74555,-16.7162 -6.01039,-2.82099 -9.09772,-0.8801 -35.29649,22.18951 -10.86612,9.56829 -20.44725,17.36866 -21.29137,17.33414 -0.84413,-0.0345 -9.83307,-7.4577 -19.97543,-16.49598 -26.26895,-23.40937 -29.73069,-25.65859 -35.42588,-23.01746 -2.5903,1.20125 -14.2851,10.5973 -25.98846,20.88013 -11.70334,10.28282 -21.95417,18.66783 -22.77961,18.63331 -0.82544,-0.0345 -9.79908,-7.4577 -19.94143,-16.49598 -26.38597,-23.51364 -29.7286,-25.67742 -35.42588,-22.9322 -2.5903,1.24813 -14.27808,10.64418 -25.97284,20.88013 -11.69477,10.23594 -21.97714,18.61079 -22.84973,18.61079 -0.87258,0 -10.11439,-7.90561 -20.53734,-17.56805 z m 49.46386,-199.57254 c 22.39148,-6.03053 35.79654,-24.42685 35.79654,-49.12509 0,-11.55882 -0.77885,-14.43036 -4.88135,-17.99713 -6.25215,-5.43572 -17.74716,-16.92931 -23.48787,-23.48499 -4.10397,-4.68658 -5.84665,-5.04169 -21.2936,-4.33897 -13.91546,0.63304 -18.36958,1.78832 -25.76558,6.68286 -11.67828,7.7285 -19.98779,22.10289 -21.55497,37.28734 -2.19513,21.26877 12.01516,42.56717 33.52146,50.24202 10.03371,3.58067 16.4622,3.75121 27.66537,0.73396 z m 179.36898,-0.99051 c 19.61257,-6.68267 32.15603,-24.86143 32.15603,-46.60254 0,-16.11829 -2.23162,-20.69994 -12.08851,-24.81841 -5.15534,-2.15404 -8.61157,-5.61027 -10.76561,-10.76561 -4.09189,-9.79326 -8.70687,-12.0885 -24.306,-12.0885 -46.9848,0 -67.12112,54.76744 -31.2186,84.90941 14.86618,12.48091 28.79626,15.30343 46.22269,9.36565 z"
   id="path63"
   inkscape:connector-curvature="0" /><path
   style="fill:#00ffff;fill-opacity:1;stroke-width:2.16948724"
   d="m 130.56766,470.88838 -18.89695,-17.68013 1.02344,-132.55686 1.02345,-132.55684 -2.03524,124.74551 c -1.11939,68.61004 -2.51298,126.94213 -3.09686,129.62687 -0.80343,3.69426 -2.58974,4.88134 -7.34542,4.88134 -4.809406,0 -10.526428,3.89536 -24.365399,16.60164 L 58.793105,480.55154 58.212157,395.06868 C 57.478821,287.16279 60.569619,179.16817 64.818738,164.23019 69.740457,146.92764 80.137345,123.75552 89.222947,109.83917 100.02608,93.292087 133.21065,60.107519 149.75774,49.304381 173.09978,34.065 214.18883,19.849285 234.32624,20.045933 l 8.87328,0.08665 -12.34833,6.255258 c -14.83897,7.516937 -36.50878,22.007486 -40.89151,27.344056 -1.74175,2.120828 1.51602,0.293243 7.2395,-4.0613 13.05609,-9.933342 34.56364,-22.026879 47.1891,-26.534087 22.13836,-7.903257 60.82159,-2.147359 94.83147,14.110521 23.09412,11.039776 35.02272,19.267902 53.37392,36.81634 24.15533,23.098671 39.15974,46.732179 52.4242,82.573609 l 6.02176,16.27115 1.89418,146.44039 c 1.04179,80.54222 1.62684,149.83425 1.30007,153.98229 l -0.59409,7.5419 -11.93218,-10.82004 c -22.03314,-19.97954 -27.76747,-23.6145 -33.15916,-21.01936 -2.64378,1.27249 -14.37531,10.68848 -26.07008,20.92443 -11.69475,10.23594 -21.94558,18.59723 -22.77962,18.58068 -0.83401,-0.0174 -9.32656,-6.96258 -18.8723,-15.4356 -28.01824,-24.86964 -30.8551,-26.74483 -36.41339,-24.06951 -2.64378,1.27249 -14.37531,10.68848 -26.07008,20.92443 -11.69476,10.23594 -21.94558,18.60324 -22.77961,18.59402 -0.83403,-0.009 -10.75358,-8.25316 -22.04345,-18.31984 -27.79684,-24.78525 -28.30068,-25.01265 -38.50743,-17.38094 -4.5208,3.38028 -15.67099,12.79956 -24.7782,20.93176 -9.1072,8.13217 -17.50606,14.78579 -18.66412,14.78579 -1.15806,0 -10.60919,-7.95607 -21.00251,-17.68015 z m 59.1494,-203.43918 c 16.87373,-8.60835 26.32483,-24.77747 26.35177,-45.08315 0.0158,-11.90799 -3.19382,-18.56501 -11.2436,-23.32013 -3.60084,-2.12707 -8.51031,-7.19499 -10.90993,-11.26205 -5.75472,-9.75352 -9.77222,-11.6215 -24.9945,-11.6215 -24.05604,0 -42.32005,13.90154 -48.3353,36.79013 -10.35223,39.39119 32.50997,73.17963 69.13156,54.4967 z m 166.29289,3.94502 c 11.95149,-3.00942 26.4899,-15.28477 31.70751,-26.77193 4.42528,-9.74269 5.47251,-31.45375 1.8442,-38.23331 -1.23624,-2.30996 -5.6646,-5.62758 -9.84077,-7.3725 -5.2051,-2.17484 -8.61118,-5.60931 -10.83048,-10.92085 -3.66532,-8.77239 -9.86103,-11.93911 -23.32385,-11.92117 -15.96181,0.0213 -25.76164,4.06614 -36.38896,15.01951 -16.11821,16.61269 -18.57018,35.90331 -7.1111,55.94558 6.00488,10.50273 16.708,19.36395 28.45048,23.55443 10.12341,3.61269 13.55255,3.70687 25.49297,0.70024 z M 115.59704,180.09456 c -0.69256,-1.73067 -1.20664,-1.2166 -1.31074,1.31073 -0.0942,2.287 0.41856,3.56836 1.13946,2.84746 0.7209,-0.72091 0.79798,-2.59209 0.17128,-4.15819 z m 29.71254,-74.13154 c 5.57081,-8.938007 17.12423,-23.891083 25.67426,-33.229059 13.93158,-15.215471 14.24758,-15.739342 3.04375,-5.045959 -6.87597,6.562699 -16.97105,17.789796 -22.43351,24.949104 -10.31255,13.516014 -29.69309,51.568554 -32.04331,62.915134 -0.74146,3.57965 2.47198,-2.45706 7.14097,-13.41492 4.669,-10.95786 13.04702,-27.2363 18.61784,-36.1743 z"
   id="path65"
   inkscape:connector-curvature="0" /><path
   style="fill:#00ffff;fill-opacity:1;stroke-width:2.16948724"
   d="m 130.53034,470.97646 -18.5848,-17.59207 -0.4592,-51.28915 -0.4592,-51.28915 -1.27485,47.72872 c -0.70117,26.2508 -1.4708,47.97279 -1.71029,48.27109 -0.23949,0.29831 -3.14729,0.54237 -6.46178,0.54237 -4.462622,0 -10.669234,4.22204 -23.919421,16.27116 -9.841196,8.94913 -18.503012,16.27115 -19.24848,16.27115 -2.235111,0 1.104676,-286.21528 3.523729,-301.97882 2.714023,-17.68568 12.532846,-43.19905 24.468681,-63.57978 C 98.843106,93.093149 136.11847,56.478913 157.52588,44.472259 178.37717,32.777508 209.94152,22.273104 228.58499,20.824265 l 14.61453,-1.135738 -16.27115,8.807885 c -8.94914,4.844337 -19.19997,11.320177 -22.77962,14.390756 -5.16411,4.429707 -4.37075,4.178945 3.84095,-1.214038 27.83493,-18.280408 50.59829,-24.877111 74.47856,-21.583504 64.50428,8.896542 121.75223,50.359457 151.08854,109.428764 4.14821,8.35253 9.79463,21.53216 12.5476,29.28808 4.96443,13.98633 5.02171,15.34961 7.00219,166.68029 1.09824,83.91824 1.46811,153.10734 0.82191,153.75352 -0.64618,0.64618 -7.80937,-4.86534 -15.9182,-12.24784 -8.10883,-7.38251 -17.49902,-14.88431 -20.86708,-16.67069 -7.08763,-3.7592 -7.50545,-3.5075 -38.51769,23.20416 -9.72965,8.38041 -18.50247,14.94927 -19.49514,14.59749 -0.99269,-0.35179 -10.39853,-8.0475 -20.90186,-17.10157 -10.50331,-9.05408 -21.78423,-18.19849 -25.06866,-20.32096 -5.86378,-3.78925 -6.10737,-3.75554 -13.4756,1.86448 -4.12712,3.1479 -15.41369,12.5364 -25.08125,20.86333 -9.66754,8.32692 -18.24757,15.12549 -19.06671,15.10794 -0.81915,-0.0176 -10.27578,-7.8701 -21.01474,-17.4501 -10.73896,-9.58002 -22.31485,-18.91945 -25.72421,-20.75429 -5.96931,-3.21258 -6.53158,-3.07306 -15.18641,3.76827 -4.94317,3.90737 -15.93184,13.26116 -24.41926,20.78618 -8.48742,7.52502 -16.47677,13.68185 -17.75411,13.68185 -1.27734,0 -10.68559,-7.91644 -20.90724,-17.59207 z M 113.56151,248.18242 c -0.38933,-11.57042 -0.70629,-1.51172 -0.70438,22.35264 0.002,23.86436 0.32046,33.33105 0.70787,21.03711 0.3874,-12.29397 0.38583,-31.81935 -0.003,-43.38975 z m 76.8181,18.85632 c 15.99137,-8.01201 25.70132,-25.53856 25.70132,-46.39109 0,-9.68912 -0.74378,-11.04789 -11.93218,-21.79815 -6.5627,-6.3057 -11.93218,-12.50044 -11.93218,-13.76608 0,-3.94262 -12.36763,-8.92162 -22.12951,-8.90896 -26.23544,0.034 -45.78539,16.14136 -50.57431,41.66851 -1.70039,9.06384 3.40928,28.5851 9.26353,35.39093 16.42647,19.09646 40.34403,24.4562 61.60333,13.80484 z m 175.19303,0.3456 c 16.26558,-8.29808 26.23405,-25.26214 26.19504,-44.578 -0.0284,-14.06767 -2.10527,-18.34098 -11.15856,-22.95962 -5.12496,-2.61456 -9.84915,-7.20772 -11.9547,-11.62311 -4.10636,-8.61113 -10.62743,-12.06124 -22.797,-12.06124 -37.68149,0 -61.50785,36.3922 -44.92433,68.61712 12.94789,25.16018 40.64491,34.846 64.63955,22.60485 z M 127.06551,140.36583 c 0,-1.19322 -0.94637,-0.70509 -2.10304,1.08474 -1.15668,1.78983 -2.10305,4.2305 -2.10305,5.42372 0,1.19322 0.94637,0.70508 2.10305,-1.08475 1.15667,-1.78982 2.10304,-4.2305 2.10304,-5.42371 z M 150.4114,97.764392 c 3.82987,-5.532518 12.07487,-15.783345 18.32223,-22.779616 6.24736,-6.996269 8.13919,-9.791684 4.20408,-6.21203 -11.62096,10.571222 -27.48126,31.577004 -36.92727,48.907404 -4.8496,8.89747 -8.8055,17.15348 -8.7909,18.3467 0.0145,1.19322 3.67199,-4.6644 8.12751,-13.01692 4.45552,-8.35253 11.23448,-19.71302 15.06435,-25.245538 z m 44.25139,-46.889916 c 2.69856,-3.440928 2.62182,-3.517663 -0.8191,-0.819101 -3.61382,2.834151 -4.76307,4.615704 -2.97751,4.615704 0.45051,0 2.15898,-1.708471 3.79661,-3.796603 z"
   id="path67"
   inkscape:connector-curvature="0" /><path
   style="fill:#00ffff;fill-opacity:1;stroke-width:2.16948724"
   d="m 130.82975,471.755 -18.50816,-16.81352 -0.66588,-40.13552 -0.66588,-40.13551 -0.59126,31.45756 c -0.72422,38.53094 -1.25558,41.22026 -8.14442,41.22026 -5.099885,0 -24.221696,14.37134 -35.70364,26.8337 -2.892735,3.13974 -6.207674,5.70861 -7.366529,5.70861 -2.859267,0 -0.279822,-282.53936 2.758714,-302.17554 C 64.697719,159.91102 74.256346,134.48128 85.328093,115.5006 95.583079,97.920124 132.34942,60.204157 150.68296,48.457702 173.68908,33.717484 214.44955,19.92851 234.52157,20.095701 l 8.67795,0.07228 -12.47455,6.438891 c -16.66402,8.601334 -15.92524,9.925623 1.09414,1.961292 18.62803,-8.717106 33.28313,-11.194761 51.19226,-8.654787 64.07409,9.087342 121.0901,50.639524 150.72498,109.845503 4.24696,8.48479 9.90279,21.66443 12.56851,29.28807 4.753,13.59302 4.88664,16.81141 6.90725,166.3552 1.13328,83.87173 1.4886,153.06594 0.78961,153.76493 -0.69901,0.69899 -8.38841,-5.06063 -17.08757,-12.79917 -8.69917,-7.73852 -17.84586,-15.12845 -20.32595,-16.42205 -5.75674,-3.00267 -10.87551,0.11954 -36.24085,22.10589 -10.48038,9.08423 -19.75494,16.51533 -20.61013,16.51353 -0.85517,-0.002 -11.10014,-8.27998 -22.76656,-18.39598 -11.66644,-10.11601 -23.23399,-19.47505 -25.70567,-20.79785 -5.04162,-2.69819 -9.49228,0.29512 -37.93791,25.51523 -8.48742,7.52502 -16.31585,13.68185 -17.39652,13.68185 -1.08067,0 -9.26859,-6.47527 -18.19538,-14.38951 -8.92679,-7.91423 -20.00305,-17.16345 -24.61391,-20.55383 -10.34305,-7.60529 -10.43873,-7.56355 -38.54265,16.81819 -11.4907,9.96883 -21.8706,18.12515 -23.06644,18.12515 -1.19585,0 -10.50294,-7.56609 -20.68243,-16.81353 z M 356.90461,270.3914 c 21.83163,-6.4833 34.90479,-25.54057 34.90479,-50.88212 0,-7.36683 -1.25945,-10.10579 -7.05083,-15.33364 -11.38465,-10.27688 -14.58013,-13.53956 -19.9994,-20.42007 -4.80871,-6.10533 -6.04461,-6.50618 -19.95319,-6.47157 -27.81979,0.0692 -46.36734,16.74563 -48.05212,43.20449 -0.76913,12.0788 -0.0907,15.31926 5.26816,25.16535 7.08791,13.02285 16.32025,20.82419 29.52291,24.94691 12.05467,3.76424 11.97695,3.76489 25.35968,-0.20935 z M 187.3753,268.26202 c 17.89065,-7.47518 27.36966,-22.85969 27.52098,-44.66677 l 0.0999,-14.3975 -12.47455,-11.99133 c -6.86101,-6.59522 -12.47456,-12.89521 -12.47456,-13.99996 0,-3.4019 -10.56835,-7.04409 -20.43944,-7.04409 -32.46175,0 -55.44586,27.5012 -48.81691,58.41094 2.63277,12.27618 13.67844,26.40351 25.54656,32.67387 9.82904,5.19304 29.85304,5.68822 41.03801,1.01484 z M 127.06551,140.36583 c 0,-1.19322 -0.94637,-0.70509 -2.10304,1.08474 -1.15668,1.78983 -2.10305,4.2305 -2.10305,5.42372 0,1.19322 0.94637,0.70508 2.10305,-1.08475 1.15667,-1.78982 2.10304,-4.2305 2.10304,-5.42371 z m 8.52181,-17.89827 c 2.55736,-5.07118 4.16161,-9.22033 3.565,-9.22033 -1.23322,0 -9.85088,16.3728 -9.85088,18.7158 0,2.37566 1.25666,0.47735 6.28588,-9.49547 z m 19.29739,-30.859984 7.14263,-9.817906 -7.14263,7.92224 c -3.92845,4.357233 -8.89363,11.19112 -11.03375,15.18641 -3.74183,6.98548 -3.74183,7.05821 0,1.89567 2.14012,-2.95268 7.1053,-9.786567 11.03375,-15.186414 z m 13.4675,-16.326368 c 2.80243,-2.983045 4.60719,-5.423718 4.01058,-5.423718 -0.59661,0 -3.37764,2.440673 -6.18007,5.423718 -2.80242,2.983045 -4.60718,5.423718 -4.01057,5.423718 0.59661,0 3.37764,-2.440673 6.18006,-5.423718 z m 47.72872,-39.203432 c 0,-0.596609 -1.95254,-0.03978 -4.33897,1.237405 -2.38644,1.277181 -4.33898,2.810284 -4.33898,3.406893 0,0.596609 1.95254,0.03977 4.33898,-1.237406 2.38643,-1.277181 4.33897,-2.810283 4.33897,-3.406892 z"
   id="path69"
   inkscape:connector-curvature="0" /><path
   style="fill:#00ffff;fill-opacity:1;stroke-width:2.16948724"
   d="m 130.6845,471.755 -18.61155,-16.81352 -0.50346,-31.45757 -0.50345,-31.45756 -1.18737,27.11859 c -1.1783,26.91162 -1.22875,27.12423 -6.61108,27.85669 -6.003308,0.81699 -23.042639,13.20725 -34.595002,25.15601 -4.112028,4.25313 -8.400743,7.73294 -9.530476,7.73294 -2.820489,0 -0.208819,-282.88985 2.789718,-302.17554 5.064433,-32.57292 22.240299,-65.84507 48.46622,-93.886102 20.48075,-21.898249 38.80852,-36.071282 59.0389,-45.655326 19.77744,-9.369464 50.98521,-18.241838 63.7002,-18.109978 l 10.06237,0.10435 -12.47455,6.438891 c -16.66402,8.601335 -15.92524,9.925623 1.09414,1.961293 18.62803,-8.717107 33.28313,-11.194761 51.19226,-8.654788 63.43409,8.996574 121.06427,50.664497 150.05317,108.49186 3.88022,7.74029 9.53303,20.43179 12.56179,28.20333 l 5.50687,14.13008 2.12792,153.52055 c 1.17035,84.43629 1.55002,154.09847 0.84367,154.80479 -0.70632,0.70632 -9.29853,-5.65263 -19.09381,-14.131 -10.37795,-8.98274 -19.7901,-15.41523 -22.55583,-15.41523 -2.78701,0 -13.48913,7.38838 -25.92576,17.89827 -11.64872,9.84405 -22.46437,18.8167 -24.03475,19.93926 -2.02168,1.44509 -5.80813,-0.45505 -12.96955,-6.50846 -38.03612,-32.15144 -40.18977,-33.6309 -45.16184,-31.02437 -2.61638,1.37162 -14.21362,10.6506 -25.77165,20.61996 -11.55801,9.96936 -21.80884,18.12027 -22.77961,18.11312 -0.97077,-0.007 -11.92638,-8.79357 -24.3458,-19.52539 -13.55666,-11.71452 -24.47331,-19.51239 -27.31644,-19.51239 -2.8137,0 -14.06869,7.92438 -27.73187,19.52539 -12.64791,10.73896 -23.92446,19.52538 -25.05901,19.52538 -1.13455,0 -10.43802,-7.56609 -20.67437,-16.81353 z M 365.77555,266.44551 c 17.92871,-8.76019 29.54868,-33.74307 24.70491,-53.11532 -1.32358,-5.29349 -4.47709,-9.42834 -10.09014,-13.23011 -4.49064,-3.04155 -10.10464,-8.71987 -12.47555,-12.6185 -5.58992,-9.1919 -13.33247,-12.04401 -28.11115,-10.35528 -37.01191,4.22928 -55.56931,42.31669 -35.26467,72.37747 7.91327,11.71547 16.45795,18.08059 28.48591,21.21978 11.93147,3.11401 19.69849,2.09943 32.75069,-4.27804 z m -170.94062,-2.58088 c 13.43537,-9.43287 19.81248,-22.15214 20.00563,-39.90159 l 0.15563,-14.30161 -15.88081,-15.89162 c -17.87961,-17.89179 -24.17012,-20.14232 -43.40357,-15.52828 -35.89074,8.61005 -47.7617,55.06578 -20.64297,80.78405 10.02601,9.50824 19.65124,12.72993 35.90173,12.01677 12.0771,-0.53 16.1338,-1.75014 23.86436,-7.17772 z m -67.76942,-123.4988 c 0,-1.19322 -0.94637,-0.70509 -2.10304,1.08474 -1.15668,1.78983 -2.10305,4.2305 -2.10305,5.42372 0,1.19322 0.94637,0.70508 2.10305,-1.08475 1.15667,-1.78982 2.10304,-4.2305 2.10304,-5.42371 z m 7.43945,-15.72879 c 1.97222,-3.87796 3.09772,-7.05083 2.50111,-7.05083 -1.24958,0 -7.70463,12.02725 -7.70463,14.35551 0,2.26522 1.17645,0.61373 5.20352,-7.30468 z m 16.76808,-28.203331 c 2.69856,-3.440929 2.62183,-3.517663 -0.8191,-0.819101 -3.61382,2.834151 -4.76306,4.615702 -2.9775,4.615702 0.45051,0 2.15898,-1.70847 3.7966,-3.796601 z m 17.3559,-21.694873 c 2.69856,-3.440928 2.62183,-3.517663 -0.8191,-0.819101 -2.08813,1.637625 -3.7966,3.346096 -3.7966,3.796603 0,1.785562 1.78155,0.636317 4.6157,-2.977502 z m 47.45199,-38.66106 c 0,-0.596609 -1.95254,-0.03978 -4.33897,1.237405 -2.38644,1.277181 -4.33898,2.810284 -4.33898,3.406893 0,0.596609 1.95254,0.03977 4.33898,-1.237406 2.38643,-1.277181 4.33897,-2.810283 4.33897,-3.406892 z"
   id="path71"
   inkscape:connector-curvature="0" /><path
   style="fill:#00ffff;fill-opacity:1;stroke-width:2.16948724"
   d="m 130.67887,471.755 -18.72749,-16.81352 -0.42308,-26.03385 -0.42307,-26.03385 -1.20696,21.3619 -1.20696,21.3619 -8.05713,2.76222 c -7.185742,2.46347 -29.117511,19.48078 -36.371667,28.22149 -1.510554,1.82011 -3.742229,3.30929 -4.959277,3.30929 -3.097811,0 -0.566375,-284.75334 2.698242,-303.51695 3.02375,-17.37922 12.660856,-42.56282 23.326615,-60.95691 C 95.515686,97.847271 136.49577,56.414824 153.68174,46.308545 177.96562,32.028319 214.64273,19.97459 233.43683,20.097477 l 9.76269,0.06383 -10.30506,5.364286 c -13.92914,7.250789 -13.07555,8.47893 1.31431,1.891035 17.28992,-7.91559 32.93003,-10.213337 50.55513,-7.427245 44.54565,7.041567 83.09143,27.643349 114.89533,61.408769 19.64146,20.852838 31.45991,39.652088 43.25776,68.808708 l 8.30792,20.53178 1.55871,90.03372 c 1.93208,111.60159 2.32003,219.11821 0.79058,219.11821 -0.63266,0 -9.17502,-6.83377 -18.98301,-15.18619 -9.80797,-8.35239 -19.87426,-15.18628 -22.36952,-15.18641 -2.56351,-1.3e-4 -14.53912,8.49243 -27.53301,19.52517 -12.64791,10.73896 -23.92445,19.52538 -25.05898,19.52538 -1.13454,0 -6.80566,-4.22202 -12.60251,-9.38227 -20.59731,-18.33538 -35.71182,-29.6685 -39.56767,-29.6685 -2.15053,0 -14.25833,8.78642 -26.90622,19.52539 -12.64792,10.73896 -23.78598,19.52202 -24.75126,19.5179 -0.96529,-0.004 -8.58895,-5.98119 -16.94147,-13.28241 -20.28295,-17.72998 -31.37793,-25.76088 -35.58961,-25.76088 -1.91456,0 -13.9437,8.78642 -26.73142,19.52539 -12.78771,10.73896 -24.12401,19.52538 -25.19177,19.52538 -1.06776,0 -10.36875,-7.56609 -20.66888,-16.81353 z m 53.07839,-202.60429 c 19.39125,-6.49245 30.45323,-22.98034 30.9475,-46.12733 l 0.29143,-13.64743 -15.75654,-15.35577 c -16.89808,-16.46827 -23.06904,-19.20668 -38.13837,-16.92423 -30.49785,4.6193 -48.49095,36.03446 -37.3489,65.2095 3.90355,10.22128 15.04951,21.47296 25.99058,26.23709 8.26962,3.60087 24.22383,3.88614 34.0143,0.60817 z m 182.17699,-3.25039 c 12.94231,-7.04409 20.83387,-18.04341 24.09289,-33.58092 3.01075,-14.3538 1.23284,-22.61629 -6.18744,-28.75492 -7.13722,-5.90447 -12.65672,-11.63416 -19.08218,-19.80891 -4.77765,-6.07832 -6.04808,-6.49818 -19.22259,-6.3529 -19.08888,0.21051 -32.72262,7.17703 -41.34765,21.12767 -15.3716,24.86298 -6.04985,55.06202 21.45276,69.4992 10.4543,5.48787 28.00287,4.56057 40.29421,-2.12922 z M 134.4682,125.06674 c 0.74087,-1.93068 0.37716,-2.80151 -0.85263,-2.04145 -1.17955,0.729 -2.14464,2.24411 -2.14464,3.36691 0,3.12065 1.55501,2.43299 2.99727,-1.32546 z"
   id="path73"
   inkscape:connector-curvature="0" /><path
   style="fill:#00ffff;fill-opacity:1;stroke-width:2.16948724"
   d="m 130.70662,471.89923 -18.76108,-16.66928 -0.39784,-21.83912 -0.39784,-21.8391 -1.22927,17.20903 c -1.18828,16.6351 -1.43328,17.26326 -7.34655,18.83581 -6.699582,1.78167 -24.923793,15.143 -34.966506,25.6362 -3.504591,3.66179 -7.299152,6.65781 -8.43236,6.65781 -2.977186,0 -0.338443,-285.61952 2.804091,-303.51695 3.090651,-17.60195 12.81943,-42.88088 23.348828,-60.6688 C 95.256766,98.931747 122.42436,69.455256 140.77087,55.550131 165.7151,36.644483 209.57184,19.822237 233.30305,20.057316 l 9.89647,0.09803 -9.76269,5.450546 c -10.31816,5.760665 -7.96814,5.289629 9.76269,-1.956828 20.65842,-8.442938 57.97326,-4.164298 90.95602,10.429316 42.57419,18.837447 84.81365,60.57789 103.16729,101.94847 14.13382,31.85877 13.59668,27.72342 15.35752,118.23706 2.09156,107.51401 2.43584,225.62667 0.65766,225.62667 -0.76257,0 -7.35239,-5.2097 -14.64404,-11.57712 -19.9009,-17.37844 -24.36065,-19.8699 -30.53308,-17.05757 -2.8411,1.29451 -14.46753,10.21941 -25.83649,19.83315 -11.36896,9.61371 -21.55151,17.47949 -22.6279,17.47949 -1.07639,0 -9.66756,-6.62047 -19.09151,-14.71216 -23.77528,-20.4142 -29.123,-24.33861 -33.16574,-24.33861 -1.93266,0 -13.97661,8.78642 -26.76433,19.52539 -12.78772,10.73896 -24.04518,19.52538 -25.01658,19.52538 -0.9714,0 -11.00591,-7.92145 -22.29891,-17.60324 -11.293,-9.68177 -22.68934,-18.60667 -25.32521,-19.83313 -5.92344,-2.75611 -9.90838,-0.34414 -35.56599,21.52704 -10.26498,8.75013 -19.63941,15.90933 -20.83206,15.90933 -1.19266,0 -10.61095,-7.50118 -20.92955,-16.6693 z m 59.06018,-205.9698 c 14.03,-6.99143 21.37243,-17.412 24.10688,-34.21308 2.8,-17.20392 -0.2611,-24.04178 -18.18546,-40.62242 l -14.969,-13.84682 -13.72779,0.19989 c -19.03819,0.27722 -32.10118,8.23313 -40.40185,24.60642 -21.49341,42.39633 20.69129,85.04765 63.17722,63.87601 z m 172.8756,1.59844 c 12.12685,-5.50818 23.90226,-19.88687 27.05748,-33.0393 3.81662,-15.90947 1.42038,-24.33052 -9.52731,-33.48165 -5.10521,-4.26743 -10.96038,-10.59988 -13.01148,-14.07211 -4.93879,-8.36071 -16.4193,-11.51195 -31.51217,-8.64965 -13.69868,2.59791 -16.7787,4.21172 -25.62772,13.42792 -17.64524,18.37745 -18.16266,42.77322 -1.3244,62.44493 9.61412,11.23194 22.11317,17.36651 35.38388,17.36651 5.36948,0 13.72224,-1.7985 18.56172,-3.99665 z"
   id="path75"
   inkscape:connector-curvature="0" /><path
   style="fill:#00ffff;fill-opacity:1;stroke-width:2.16948724"
   d="m 130.7123,472.02823 -18.76676,-16.54032 -0.37445,-18.71385 -0.37445,-18.71387 -1.25266,14.08221 c -1.05077,11.81247 -1.95025,14.21487 -5.58072,14.90546 -5.656467,1.07594 -19.020461,10.34963 -32.908671,22.83633 -6.121236,5.50351 -11.71828,10.00639 -12.437874,10.00639 -1.954356,0 -1.337606,-213.56539 0.761222,-263.5927 1.978341,-47.15542 4.725119,-60.40281 17.993269,-86.77949 9.529634,-18.94462 17.811042,-30.272494 36.232324,-49.56103 19.61759,-20.541166 37.3221,-33.561107 59.68835,-43.894949 30.36386,-14.028968 47.85268,-16.865899 100.96521,-16.377968 26.1779,0.24049 61.54173,12.22267 88.31108,29.922076 19.52042,12.906543 45.26321,38.789014 58.87088,59.190291 12.92242,19.37393 25.12485,47.15372 28.47719,64.83063 2.36032,12.44585 5.75448,306.26314 3.53796,306.26314 -0.8519,0 -8.57065,-5.95695 -17.15282,-13.23769 -8.58214,-7.28073 -17.76053,-14.2531 -20.39639,-15.49415 -5.83813,-2.74881 -8.22038,-1.31864 -35.18027,21.12009 -10.76454,8.95933 -20.37186,16.2897 -21.34956,16.2897 -0.97772,0 -9.70481,-6.70654 -19.39354,-14.90342 -27.13612,-22.95773 -30.52872,-25.06435 -36.20193,-22.47947 -2.66518,1.21433 -14.18559,10.12226 -25.60091,19.79538 -11.41533,9.67313 -21.66487,17.58751 -22.77675,17.58751 -1.11188,0 -11.2362,-7.90897 -22.49847,-17.57551 -11.26227,-9.66652 -22.63347,-18.59143 -25.26934,-19.83313 -5.85666,-2.75894 -8.43365,-1.20526 -35.07261,21.14527 -10.6611,8.94487 -20.30603,16.26337 -21.43318,16.26337 -1.12716,0 -10.49442,-7.44314 -20.81613,-16.5403 z m 50.45058,-202.51875 c 20.29139,-5.8195 32.74856,-23.60738 32.74856,-46.76246 V 209.43796 L 198.16906,194.17342 C 180.595,177.1328 174.61773,174.753 158.4149,178.34561 c -15.62634,3.46479 -25.50212,10.88858 -32.10104,24.13089 -9.69751,19.46036 -6.5466,40.16178 8.38984,55.12102 12.55163,12.57079 29.24133,16.84997 46.45918,11.91196 z m 179.80101,-1.259 c 17.75213,-7.41548 29.17542,-24.73738 29.53744,-44.7896 0.22261,-12.3297 0.18354,-12.4072 -12.25123,-24.26919 -6.861,-6.545 -12.47455,-12.90534 -12.47455,-14.1341 0,-7.86229 -29.15658,-9.64798 -42.91612,-2.62839 -16.11866,8.22313 -26.49884,24.90509 -26.47417,42.54663 0.013,8.71455 8.78903,26.82024 16.50583,34.04975 12.98779,12.16764 32.20163,15.85466 48.0728,9.2249 z M 237.7758,25.383001 c 2.98305,-1.705263 4.44745,-3.100478 3.25423,-3.100478 -1.19321,0 -4.61016,1.395215 -7.5932,3.100478 -2.98305,1.705262 -4.44745,3.100478 -3.25423,3.100478 1.19322,0 4.61016,-1.395216 7.5932,-3.100478 z"
   id="path77"
   inkscape:connector-curvature="0" /><path
   style="fill:#00ffff;fill-opacity:1;stroke-width:2.16948724"
   d="M 130.69269,472.13425 111.94554,455.7 111.5545,440.13432 c -0.29988,-11.93678 -0.58001,-13.17482 -1.20158,-5.31043 -0.76799,9.71702 -1.29543,10.4697 -10.05016,14.34235 -5.081801,2.24791 -16.203222,10.0805 -24.714268,17.40573 -8.511049,7.32523 -16.015871,13.31861 -16.677383,13.31861 -1.902999,0 -1.187236,-220.10383 0.864241,-265.76219 1.473774,-32.80079 2.832082,-44.32216 6.650039,-56.40667 10.171086,-32.19326 26.45315,-57.69457 53.423481,-83.672959 38.05902,-36.659258 70.95901,-51.125718 123.28284,-54.208721 46.57806,-2.744453 77.23435,4.289505 114.58196,26.29036 18.26392,10.758964 52.9305,44.441751 65.37678,63.52148 10.16451,15.58183 23.74135,46.47545 26.88568,61.17735 2.97682,13.91874 6.28693,309.09251 3.46504,308.98919 -1.08399,-0.0397 -9.29289,-6.38323 -18.24203,-14.09678 -8.94913,-7.71355 -18.02742,-14.59592 -20.17397,-15.29417 -4.8231,-1.56889 -9.30864,1.33508 -33.79278,21.87769 -10.6611,8.94487 -20.27802,16.26337 -21.37097,16.26337 -1.09292,0 -10.14578,-6.89112 -20.11748,-15.31361 -27.2362,-23.00478 -29.89597,-24.66197 -35.42812,-22.07371 -2.5903,1.2119 -14.15026,10.11982 -25.68883,19.79538 -11.53855,9.67557 -21.81729,17.59194 -22.84164,17.59194 -1.02435,0 -11.08798,-7.76451 -22.36362,-17.25445 -11.27564,-9.48995 -22.73351,-18.44917 -25.46192,-19.90937 -5.74064,-3.07229 -7.64974,-1.90513 -36.61833,22.38733 -9.69148,8.12708 -18.58404,14.77649 -19.76125,14.77649 -1.17721,0 -10.57661,-7.39541 -20.88754,-16.43428 z m 51.27812,-202.81438 c 10.66456,-2.96157 22.9258,-13.86259 27.89458,-24.80004 2.4166,-5.31952 3.96926,-13.85481 3.99841,-21.98005 l 0.0476,-13.28349 -15.94353,-15.1448 c -8.76895,-8.32964 -18.64202,-15.82208 -21.94015,-16.64986 -3.29814,-0.82778 -11.49978,-0.36783 -18.22589,1.0221 -9.9795,2.06223 -14.07999,4.37606 -22.28936,12.57744 -15.84699,15.83159 -19.04667,34.4821 -9.27862,54.08401 10.44123,20.95282 32.65082,30.58576 55.73692,24.17469 z m 186.81987,-5.74094 c 11.58088,-8.13933 17.87968,-17.79034 20.80372,-31.87542 3.04711,-14.67778 0.74272,-20.93912 -12.57787,-34.17601 -5.58593,-5.55084 -11.86471,-12.14065 -13.95284,-14.64404 -3.12289,-3.74391 -6.20276,-4.54315 -17.3559,-4.50396 -16.72583,0.0588 -28.87262,5.21955 -37.81266,16.06538 -15.55533,18.87132 -14.74627,41.11705 2.22661,61.22119 14.49619,17.17054 40.50565,20.67851 58.66894,7.91286 z M 241.93399,22.919646 c 2.97724,-2.604814 -4.08415,-0.185783 -7.54014,2.583037 -3.97082,3.181288 -3.9016,3.226441 1.21247,0.790877 2.98304,-1.420671 5.83049,-2.938932 6.32767,-3.373914 z"
   id="path79"
   inkscape:connector-curvature="0" /><path
   style="fill:#00ffff;fill-opacity:1;stroke-width:2.16948724"
   d="m 130.41463,472.13634 -18.46909,-16.4322 -0.3472,-12.31351 c -0.21417,-7.59544 -0.68126,-9.62803 -1.21905,-5.30479 -0.72062,5.79292 -2.44801,7.71932 -9.95787,11.10509 -4.997304,2.25301 -16.155981,10.0821 -24.797062,17.398 -8.641081,7.31591 -16.207168,13.30165 -16.813526,13.30165 -1.88946,0 -1.039356,-226.72187 1.008688,-269.01642 1.529021,-31.57608 2.94319,-43.12763 6.631097,-54.16568 10.678445,-31.96101 27.009972,-57.241974 53.398253,-82.659719 38.15166,-36.74849 70.26578,-50.901111 122.79044,-54.113468 34.74335,-2.124869 51.50107,-0.276818 76.91176,8.481873 29.98615,10.335784 48.99852,22.546153 74.65947,47.948785 25.13275,24.879749 35.74875,40.661689 48.98058,72.815439 l 7.9784,19.38777 1.58485,72.67782 c 1.90401,87.31332 2.42664,238.6436 0.82419,238.6436 -0.63028,0 -9.59382,-6.83388 -19.91897,-15.18641 -10.32515,-8.35253 -19.66554,-15.18641 -20.75638,-15.18641 -2.91796,0 -13.38825,7.6625 -33.76492,24.71029 -20.93564,17.51544 -17.11124,17.96196 -44.8203,-5.23294 -9.54575,-7.99063 -19.66962,-15.73893 -22.49748,-17.21848 -5.955,-3.11567 -7.46785,-2.19923 -36.34364,22.01541 -9.69148,8.12708 -18.51949,14.77649 -19.61781,14.77649 -1.09833,0 -10.25365,-6.99163 -20.34517,-15.53698 -26.16709,-22.15786 -29.54854,-24.00368 -36.95608,-20.17308 -3.27595,1.69406 -14.58524,10.40779 -25.13176,19.36384 -10.54653,8.95604 -20.38304,16.29778 -21.85892,16.31498 -1.47588,0.0174 -10.99451,-7.36324 -21.1525,-16.40095 z m 50.30675,-203.02238 c 12.86459,-3.23933 27.4996,-17.00422 30.78184,-28.95172 1.31121,-4.77287 2.38947,-13.70693 2.39612,-19.85345 0.0119,-11.10966 -0.0832,-11.26454 -16.16921,-26.28707 -17.16591,-16.03106 -22.93427,-18.50848 -36.97112,-15.8785 -33.72551,6.31891 -50.40819,43.04657 -32.26359,71.0297 8.37286,12.91288 23.14159,21.7341 37.26898,22.26042 2.75297,0.10261 9.48361,-0.94117 14.95698,-2.31938 z m 176.59486,0.0367 c 16.9161,-5.66372 28.71735,-19.5113 32.11158,-37.67967 2.78313,-14.89733 0.20068,-20.73603 -16.73694,-37.84259 l -15.14565,-15.29651 h -12.22567 c -20.42902,0 -34.18478,7.96376 -43.09445,24.94911 -18.33453,34.95287 17.92944,78.31196 55.09113,65.86975 z"
   id="path81"
   inkscape:connector-curvature="0" /><path
   style="fill:#00ffff;fill-opacity:1;stroke-width:2.16948724"
   d="m 130.41463,472.13634 c -17.98883,-16.00492 -18.47677,-16.69599 -18.76453,-26.57622 -0.1625,-5.57921 -0.71095,-8.0053 -1.21878,-5.39133 -0.57992,2.98506 -4.35334,6.41313 -10.14567,9.21715 -5.072291,2.45547 -16.182884,10.32351 -24.690207,17.48455 -8.507324,7.16104 -16.012186,13.02009 -16.677472,13.02009 -1.998971,0 -1.234739,-230.27693 0.899999,-271.18591 2.172023,-41.62348 4.884055,-53.22513 18.996706,-81.26494 10.404691,-20.67264 22.612574,-36.043944 46.440254,-58.47432 34.21615,-32.209653 71.32551,-47.277946 122.53611,-49.755922 59.64947,-2.886316 102.80535,13.957638 146.4195,57.148263 25.11366,24.869789 35.71666,40.627139 49.00252,72.823639 l 8.00033,19.38777 1.54758,67.2541 c 1.93494,84.08903 2.3919,244.06732 0.69714,244.06732 -0.69651,0 -8.2626,-5.73352 -16.81352,-12.74118 -22.41089,-18.36619 -23.20074,-18.64859 -33.21325,-11.87469 -4.60224,3.11363 -15.83281,11.87849 -24.9568,19.47748 -9.124,7.59898 -17.49243,13.81634 -18.59652,13.81634 -1.1041,0 -9.74744,-6.46653 -19.20745,-14.37005 -9.46001,-7.90353 -20.85131,-16.81325 -25.31397,-19.79937 l -8.11397,-5.42932 -8.15718,6.09685 c -4.48648,3.35324 -15.73989,12.36104 -25.00762,20.01731 -9.26771,7.65627 -18.05414,13.45052 -19.52538,12.87608 -1.47124,-0.57443 -12.25143,-8.97081 -23.95598,-18.65861 -13.58397,-11.24337 -23.16567,-17.61417 -26.4918,-17.61417 -4.82505,0 -12.82824,5.68976 -40.23105,28.60178 -5.44628,4.55373 -11.04703,8.2795 -12.44611,8.2795 -1.39909,0 -10.85489,-7.39448 -21.01288,-16.43219 z m 59.3584,-206.88517 c 15.22895,-7.76924 24.13841,-23.97334 24.13841,-43.90178 0,-9.41409 -1.01,-11.67374 -9.22032,-20.62834 -15.37847,-16.77258 -24.59369,-22.3892 -36.7341,-22.3892 -18.49202,0 -32.94101,8.53556 -40.97872,24.20765 -9.76645,19.04281 -7.1573,37.87835 7.369,53.19708 15.34271,16.17969 35.55863,19.65002 55.42573,9.51459 z m 175.64907,0.0406 c 14.94067,-7.62215 24.22875,-23.40311 24.20351,-41.12314 -0.0174,-11.57692 -2.46425,-15.664 -20.15165,-33.64741 l -12.54983,-12.75986 -15.09735,1.08021 c -23.33375,1.66953 -37.48252,13.05904 -43.48575,35.00532 -5.18585,18.95821 7.21839,43.23406 26.88594,52.61735 13.20289,6.29904 26.29852,5.91706 40.19513,-1.17247 z"
   id="path83"
   inkscape:connector-curvature="0" /><path
   style="fill:#00ffff;fill-opacity:1;stroke-width:2.16948724"
   d=""
   id="path85"
   inkscape:connector-curvature="0" /><path
   style="fill:#00ffff;fill-opacity:1;stroke-width:2.16948724"
   d="m 130.88031,472.68634 c -15.22604,-13.54749 -18.04396,-17.1353 -19.16928,-24.40673 -0.72559,-4.6885 -1.45779,-7.31731 -1.62711,-5.8418 -0.16933,1.47551 -3.54523,4.0354 -7.50201,5.68866 -3.956783,1.65323 -15.208818,9.47649 -25.004521,17.38501 -9.795703,7.9085 -18.273567,14.3791 -18.839699,14.3791 -1.860499,0 -0.966816,-234.5383 1.038023,-272.41864 2.219927,-41.94431 4.838739,-52.29523 21.369146,-84.46201 8.483214,-16.50763 13.902157,-23.411716 35.061391,-44.670541 25.91437,-26.036334 39.76804,-35.774489 65.58908,-46.104533 25.20449,-10.083384 41.34162,-12.794987 76.5906,-12.869902 29.13183,-0.06192 34.54236,0.536092 51.6264,5.706089 36.39285,11.013262 61.39961,26.657417 89.59915,56.052989 19.58613,20.416828 31.80887,39.463268 43.73812,68.156138 l 8.01951,19.28899 1.44686,62.91513 c 1.91511,83.27655 2.27115,248.40629 0.5356,248.40629 -0.75513,0 -9.14085,-6.34575 -18.63494,-14.10167 -10.4529,-8.53918 -19.29145,-14.10166 -22.40697,-14.10166 -4.74733,0 -12.90614,5.80991 -40.16527,28.60178 -5.44626,4.55373 -11.00425,8.2795 -12.35109,8.2795 -1.34682,0 -8.60601,-5.20588 -16.13153,-11.56864 -7.52551,-6.36276 -18.38419,-15.14107 -24.1304,-19.50738 -9.8623,-7.49393 -10.77391,-7.76585 -16.27116,-4.85312 -3.20292,1.69708 -14.60993,10.45389 -25.34889,19.45954 -10.73896,9.00567 -20.53482,16.39547 -21.76858,16.42179 -1.23375,0.0263 -9.91341,-6.32922 -19.28813,-14.12339 -22.99063,-19.11446 -28.27829,-22.71008 -33.39704,-22.71008 -2.39819,0 -14.58311,8.29829 -27.07761,18.44064 -12.49449,10.14235 -23.82704,18.44064 -25.18344,18.44064 -1.3564,0 -10.4987,-7.14698 -20.31621,-15.88219 z m 61.33626,-209.42399 c 12.76692,-7.74433 19.71399,-20.30995 21.15524,-38.26483 l 1.10048,-13.70966 -10.1025,-10.80039 c -5.55637,-5.94021 -13.96069,-13.47411 -18.67625,-16.74199 -7.54643,-5.22969 -10.11531,-5.83011 -21.43929,-5.01101 -28.98065,2.09627 -47.80405,27.42421 -41.45753,55.78344 2.08049,9.2966 4.74565,13.85458 12.82583,21.93475 16.32541,16.32541 36.83802,18.79359 56.59402,6.80969 z m 175.63253,0.15968 c 12.53932,-7.74518 21.79081,-24.60309 21.79081,-39.70684 0,-9.91308 -0.82955,-11.44889 -14.20567,-26.30044 -7.81311,-8.67492 -15.75716,-16.64085 -17.65347,-17.70207 -5.22725,-2.92531 -27.87413,-0.15417 -37.03835,4.53212 -9.85257,5.0383 -21.10612,20.95599 -22.9448,32.4545 -3.45578,21.61126 12.4434,45.68129 34.92371,52.87158 9.39761,3.0058 24.6206,0.34113 35.12777,-6.14885 z"
   id="path87"
   inkscape:connector-curvature="0" /><path
   style="fill:#00ffff;fill-opacity:1;stroke-width:2.16948724"
   d="M 130.88031,472.69055 C 116.83283,460.195 112.88897,455.38926 112.36689,450.13129 l -0.66339,-6.68126 -10.18404,5.54664 c -5.601226,3.05065 -17.180248,11.24979 -25.731163,18.22029 -8.550913,6.9705 -16.117,12.67362 -16.813526,12.67362 -2.068817,0 -1.303579,-239.00447 0.882169,-275.52488 2.237911,-37.39198 5.047609,-49.21586 17.785902,-74.84731 C 88.689247,107.29128 99.201313,93.745601 122.92225,71.172051 159.96864,35.917605 194.59667,21.47221 248.24448,18.89275 309.25256,15.959399 356.36299,35.575244 400.58647,82.324917 420.9711,103.87399 429.19053,116.45405 442.3329,146.2189 l 8.9106,20.18077 1.52391,59.6609 c 1.91021,74.78555 2.39091,253.83001 0.68148,253.83001 -0.70161,0 -9.20685,-6.34575 -18.90055,-14.10167 -9.6937,-7.75591 -19.67835,-14.10166 -22.1881,-14.10166 -2.50978,0 -14.92133,8.29829 -27.58126,18.44064 -12.65993,10.14235 -23.93771,18.44064 -25.06172,18.44064 -1.12403,0 -12.12247,-8.29829 -24.44097,-18.44064 -13.23287,-10.89521 -24.3708,-18.44064 -27.22047,-18.44064 -2.82458,0 -14.23674,7.64139 -27.54047,18.44064 -12.49449,10.14235 -23.58512,18.44064 -24.64585,18.44064 -1.06073,0 -11.53395,-7.81931 -23.27383,-17.37625 -21.47855,-17.48476 -29.49122,-21.67183 -34.44118,-17.99741 -1.47603,1.09565 -12.05488,9.50296 -23.50855,18.68288 -11.45367,9.17993 -21.97028,16.69078 -23.37023,16.69078 -1.39996,0 -10.57789,-7.1451 -20.3954,-15.87798 z m 46.14985,-203.40448 c 21.59372,-4.9273 34.43992,-20.59703 36.34528,-44.33381 l 1.09685,-13.6644 -10.51085,-11.23694 c -5.78096,-6.18032 -14.75715,-13.72544 -19.94707,-16.76694 -8.08845,-4.74015 -11.15397,-5.35271 -21.46265,-4.28877 -23.55051,2.43063 -40.37228,20.93411 -40.54207,44.59516 -0.18026,25.11997 16.81284,43.49076 44.17307,47.75432 0.59661,0.0931 5.47796,-0.83341 10.84744,-2.05862 z m 179.20561,-0.86554 c 19.14764,-5.68623 33.26033,-24.61327 33.3565,-44.7356 0.044,-9.20085 -1.03263,-11.19641 -13.97493,-25.90333 -7.71241,-8.76398 -15.65647,-16.84888 -17.65346,-17.96646 -5.85204,-3.27496 -27.94413,-0.22399 -37.57578,5.18931 -20.97883,11.79076 -28.32294,37.67446 -16.92756,59.6598 4.67553,9.02058 19.61117,22.20299 27.00615,23.83603 3.31142,0.73127 6.99705,1.65523 8.19027,2.05327 4.13808,1.3804 6.86005,1.05011 17.57881,-2.13302 z"
   id="path91"
   inkscape:connector-curvature="0" /><path
   style="fill:#00ffff;fill-opacity:1;stroke-width:2.16948724"
   d="m 130.88031,472.69055 c -14.1561,-12.59216 -17.98868,-17.27901 -18.52004,-22.64808 l -0.67002,-6.77006 -11.26216,6.60913 c -6.194189,3.63502 -17.799901,11.8741 -25.790469,18.30908 -7.990567,6.43498 -15.176328,11.69996 -15.968356,11.69996 -0.792028,0 -0.951252,-66.63038 -0.353832,-148.0675 1.185592,-161.61346 1.167606,-161.37097 14.249093,-192.11201 10.15255,-23.85814 20.75525,-38.74291 44.538724,-62.526384 43.19847,-43.198468 79.21542,-58.008927 141.28268,-58.096569 35.167,-0.04966 50.51278,3.113266 78.84681,16.251117 24.6498,11.429566 41.63554,24.026863 63.35373,46.985683 20.35571,21.518503 28.55727,34.060763 41.78116,63.893983 l 8.94534,20.18077 1.46241,55.32193 c 1.76659,66.82921 2.39257,258.16898 0.84462,258.16898 -0.6075,0 -9.42139,-6.34575 -19.58646,-14.10167 -10.16504,-7.75591 -19.49488,-14.10166 -20.73296,-14.10166 -4.26435,0 -11.78392,4.9983 -31.46861,20.91739 -10.85707,8.78013 -20.73969,15.96389 -21.96137,15.96389 -1.22171,0 -8.93523,-5.52258 -17.14119,-12.27242 -21.91362,-18.02512 -31.39907,-24.60886 -35.45491,-24.60886 -1.98707,0 -13.97097,8.29829 -26.63091,18.44064 -12.65992,10.14235 -23.85056,18.44064 -24.86808,18.44064 -1.01752,0 -9.14472,-5.97759 -18.06045,-13.28351 -8.91572,-7.30594 -19.89556,-15.74993 -24.39963,-18.76444 -10.27854,-6.87927 -12.04155,-6.17247 -39.30973,15.75974 -11.13806,8.95851 -21.38149,16.28821 -22.76319,16.28821 -1.3817,0 -10.54469,-7.1451 -20.3622,-15.87798 z m 49.05647,-204.27039 c 18.31599,-3.09803 33.97466,-25.8888 33.97466,-49.44921 0,-7.46906 -1.47623,-9.89832 -12.47455,-20.52798 -6.861,-6.63101 -15.40336,-13.86506 -18.98301,-16.07565 -8.87124,-5.47836 -21.64713,-5.02541 -35.11452,1.24494 -31.57889,14.70297 -33.81614,60.86281 -3.84757,79.3844 8.47679,5.23894 19.49185,8.55416 24.86042,7.48228 1.78983,-0.35736 7.00288,-1.28382 11.58457,-2.05878 z m 183.07593,-2.70435 c 19.59774,-9.01505 32.61765,-38.55107 23.83846,-54.07826 -1.44924,-2.56318 -8.65474,-11.10554 -16.01225,-18.98301 -12.06574,-12.91847 -14.2073,-14.32269 -21.84348,-14.32269 -15.29645,0 -29.78281,5.77692 -38.39739,15.31224 -9.76983,10.81402 -12.0766,16.63506 -12.0766,30.47466 0,33.11006 34.52758,55.38046 64.49126,41.59706 z"
   id="path93"
   inkscape:connector-curvature="0" /></svg>