<?xml version="1.0" encoding="UTF-8" standalone="no"?>
<!-- Generator: Adobe Illustrator 18.0.0, SVG Export Plug-In . SVG Version: 6.00 Build 0)  -->

<svg
   xmlns:dc="http://purl.org/dc/elements/1.1/"
   xmlns:cc="http://creativecommons.org/ns#"
   xmlns:rdf="http://www.w3.org/1999/02/22-rdf-syntax-ns#"
   xmlns:svg="http://www.w3.org/2000/svg"
   xmlns="http://www.w3.org/2000/svg"
   xmlns:sodipodi="http://sodipodi.sourceforge.net/DTD/sodipodi-0.dtd"
   xmlns:inkscape="http://www.inkscape.org/namespaces/inkscape"
   version="1.1"
   id="Capa_1"
   x="0px"
   y="0px"
   viewBox="0 0 52 52"
   style="enable-background:new 0 0 52 52;"
   xml:space="preserve"
   sodipodi:docname="pacman-down.svg"
   inkscape:version="0.92.5 (2060ec1f9f, 2020-04-08)"><metadata
   id="metadata47"><rdf:RDF><cc:Work
       rdf:about=""><dc:format>image/svg+xml</dc:format><dc:type
         rdf:resource="http://purl.org/dc/dcmitype/StillImage" /><dc:title></dc:title></cc:Work></rdf:RDF></metadata><defs
   id="defs45" /><sodipodi:namedview
   pagecolor="#ffffff"
   bordercolor="#666666"
   borderopacity="1"
   objecttolerance="10"
   gridtolerance="10"
   guidetolerance="10"
   inkscape:pageopacity="0"
   inkscape:pageshadow="2"
   inkscape:window-width="1920"
   inkscape:window-height="1015"
   id="namedview43"
   showgrid="false"
   inkscape:zoom="4.5384615"
   inkscape:cx="26.440678"
   inkscape:cy="26"
   inkscape:window-x="0"
   inkscape:window-y="41"
   inkscape:window-maximized="1"
   inkscape:current-layer="Capa_1" />
<g
   id="g10"
   transform="rotate(90,25.99975,26)">
	<path
   style="fill:#fbd490"
   d="m 41,27 h -3 c -0.552,0 -1,-0.448 -1,-1 0,-0.552 0.448,-1 1,-1 h 3 c 0.552,0 1,0.448 1,1 0,0.552 -0.448,1 -1,1 z"
   id="path2"
   inkscape:connector-curvature="0" />
	<path
   style="fill:#fbd490"
   d="m 51,27 h -2 c -0.552,0 -1,-0.448 -1,-1 0,-0.552 0.448,-1 1,-1 h 2 c 0.552,0 1,0.448 1,1 0,0.552 -0.448,1 -1,1 z"
   id="path4"
   inkscape:connector-curvature="0" />
	<path
   style="fill:#f0c419"
   d="m 44.385,44.385 c -10.154,10.154 -26.616,10.154 -36.77,0 -10.154,-10.154 -10.154,-26.616 0,-36.77 10.154,-10.154 26.616,-10.154 36.77,0 L 26,26 Z"
   id="path6"
   inkscape:connector-curvature="0" />
	<circle
   style="fill:#556080"
   cx="23"
   cy="12"
   r="3"
   id="circle8" />
</g>
<g
   id="g12">
</g>
<g
   id="g14">
</g>
<g
   id="g16">
</g>
<g
   id="g18">
</g>
<g
   id="g20">
</g>
<g
   id="g22">
</g>
<g
   id="g24">
</g>
<g
   id="g26">
</g>
<g
   id="g28">
</g>
<g
   id="g30">
</g>
<g
   id="g32">
</g>
<g
   id="g34">
</g>
<g
   id="g36">
</g>
<g
   id="g38">
</g>
<g
   id="g40">
</g>
</svg>