<?xml version="1.0" encoding="UTF-8" standalone="no"?>
<!-- Generator: Adobe Illustrator 19.0.0, SVG Export Plug-In . SVG Version: 6.00 Build 0)  -->

<svg
   xmlns:dc="http://purl.org/dc/elements/1.1/"
   xmlns:cc="http://creativecommons.org/ns#"
   xmlns:rdf="http://www.w3.org/1999/02/22-rdf-syntax-ns#"
   xmlns:svg="http://www.w3.org/2000/svg"
   xmlns="http://www.w3.org/2000/svg"
   xmlns:sodipodi="http://sodipodi.sourceforge.net/DTD/sodipodi-0.dtd"
   xmlns:inkscape="http://www.inkscape.org/namespaces/inkscape"
   version="1.1"
   id="Layer_1"
   x="0px"
   y="0px"
   viewBox="0 0 511.999 511.999"
   style="enable-background:new 0 0 511.999 511.999;"
   xml:space="preserve"
   sodipodi:docname="pinky.svg"
   inkscape:version="0.92.5 (2060ec1f9f, 2020-04-08)"><metadata
   id="metadata156"><rdf:RDF><cc:Work
       rdf:about=""><dc:format>image/svg+xml</dc:format><dc:type
         rdf:resource="http://purl.org/dc/dcmitype/StillImage" /><dc:title></dc:title></cc:Work></rdf:RDF></metadata><defs
   id="defs154" /><sodipodi:namedview
   pagecolor="#ffffff"
   bordercolor="#666666"
   borderopacity="1"
   objecttolerance="10"
   gridtolerance="10"
   guidetolerance="10"
   inkscape:pageopacity="0"
   inkscape:pageshadow="2"
   inkscape:window-width="1920"
   inkscape:window-height="1015"
   id="namedview152"
   showgrid="false"
   inkscape:zoom="1.6132844"
   inkscape:cx="255.9995"
   inkscape:cy="255.9995"
   inkscape:window-x="0"
   inkscape:window-y="41"
   inkscape:window-maximized="1"
   inkscape:current-layer="Layer_1" />
<path
   style="fill:#FFA05A;"
   d="M464.001,504.001l-52.047-48l-52.047,48l-52.011-48l-51.966,48l-51.994-48l-51.981,48l-51.979-48  l-51.978,48V215.999c0-114.875,93.125-208.001,208.001-208.001S464.001,101.123,464.001,216V504.001z"
   id="path103" />
<path
   style="fill:#F08C46;"
   d="M287.991,10.448c-10.429-1.61-21.112-2.449-31.993-2.449C141.124,7.998,47.998,101.123,47.998,216  v288.002l51.98-48.001l12.005,11.086V216C111.983,112.003,188.306,25.837,287.991,10.448z"
   id="path105" />
<g
   id="g111">
	<circle
   style="fill:#FFFFFF;"
   cx="167.97"
   cy="224.068"
   r="39.991"
   id="circle107" />
	<circle
   style="fill:#FFFFFF;"
   cx="342.93"
   cy="224.068"
   r="39.991"
   id="circle109" />
</g>
<g
   id="g117">
	<circle
   style="fill:#82B9FF;"
   cx="175.969"
   cy="224.068"
   r="20.995"
   id="circle113" />
	<circle
   style="fill:#82B9FF;"
   cx="350.928"
   cy="224.068"
   r="20.995"
   id="circle115" />
</g>
<path
   d="M470.513,508.634c0.078-0.11,0.154-0.222,0.226-0.336c0.07-0.11,0.138-0.221,0.202-0.333  c0.064-0.112,0.125-0.226,0.183-0.341c0.06-0.118,0.118-0.236,0.172-0.357c0.052-0.117,0.101-0.236,0.148-0.356  c0.048-0.122,0.093-0.245,0.135-0.368c0.041-0.123,0.078-0.247,0.114-0.373c0.036-0.127,0.069-0.254,0.098-0.382  c0.028-0.124,0.053-0.249,0.076-0.375c0.024-0.136,0.045-0.272,0.062-0.408c0.015-0.12,0.028-0.241,0.038-0.363  c0.012-0.146,0.018-0.292,0.022-0.439c0.002-0.068,0.01-0.135,0.01-0.203V215.999c0-57.696-22.468-111.937-63.264-152.734  C367.937,22.468,313.696,0,256,0S144.062,22.468,103.264,63.264C62.468,104.062,40,158.303,40,215.999v288.002  c0,0.07,0.009,0.137,0.011,0.206c0.004,0.146,0.01,0.292,0.022,0.438c0.01,0.122,0.023,0.244,0.038,0.365  c0.017,0.137,0.038,0.272,0.062,0.408c0.023,0.126,0.048,0.251,0.076,0.375c0.029,0.128,0.062,0.255,0.098,0.382  c0.035,0.125,0.073,0.249,0.114,0.372c0.042,0.124,0.087,0.246,0.135,0.368c0.047,0.12,0.096,0.239,0.149,0.356  c0.053,0.12,0.111,0.238,0.171,0.355c0.059,0.116,0.12,0.23,0.185,0.343c0.064,0.112,0.131,0.221,0.201,0.331  c0.074,0.115,0.15,0.228,0.229,0.339c0.071,0.1,0.144,0.198,0.221,0.295c0.09,0.115,0.184,0.227,0.281,0.337  c0.046,0.052,0.085,0.107,0.132,0.158c0.033,0.036,0.069,0.065,0.103,0.1c0.112,0.117,0.228,0.228,0.347,0.338  c0.085,0.079,0.169,0.158,0.256,0.233c0.114,0.097,0.234,0.188,0.354,0.278c0.097,0.073,0.192,0.149,0.291,0.218  c0.121,0.083,0.248,0.158,0.373,0.234c0.102,0.062,0.202,0.129,0.307,0.186c0.147,0.081,0.3,0.151,0.453,0.222  c0.087,0.041,0.171,0.087,0.259,0.125c0.727,0.31,1.509,0.516,2.327,0.598c0.174,0.018,0.348,0.02,0.522,0.026  c0.095,0.003,0.188,0.014,0.284,0.014h0.001h0.001c0.258,0,0.515-0.014,0.772-0.039c0.096-0.009,0.189-0.026,0.284-0.039  c0.158-0.021,0.316-0.042,0.473-0.072c0.112-0.022,0.221-0.05,0.331-0.077c0.137-0.033,0.274-0.065,0.409-0.105  c0.113-0.034,0.223-0.072,0.334-0.111c0.13-0.045,0.259-0.09,0.387-0.142c0.109-0.044,0.215-0.092,0.321-0.14  c0.125-0.057,0.249-0.115,0.372-0.179c0.105-0.054,0.207-0.113,0.309-0.171c0.117-0.068,0.233-0.137,0.347-0.211  c0.104-0.067,0.205-0.138,0.305-0.21c0.105-0.075,0.209-0.152,0.311-0.232c0.103-0.082,0.203-0.167,0.302-0.254  c0.055-0.048,0.114-0.091,0.168-0.141l46.554-42.99l46.553,42.99c3.062,2.829,7.787,2.829,10.852,0l46.555-42.99l46.567,42.99  c3.065,2.83,7.789,2.829,10.852-0.001l46.541-42.989l46.584,42.992c3.062,2.826,7.782,2.827,10.847,0.002l46.624-42.999  l46.624,42.999c0.052,0.048,0.107,0.087,0.16,0.133c0.108,0.095,0.218,0.187,0.331,0.276c0.098,0.077,0.198,0.152,0.299,0.224  c0.11,0.078,0.222,0.154,0.336,0.227c0.11,0.07,0.22,0.138,0.332,0.202c0.112,0.064,0.227,0.125,0.343,0.184  c0.117,0.06,0.235,0.117,0.354,0.171c0.118,0.053,0.238,0.102,0.36,0.149c0.12,0.047,0.241,0.092,0.363,0.133  c0.125,0.042,0.251,0.08,0.379,0.116c0.124,0.035,0.248,0.067,0.374,0.096c0.127,0.029,0.255,0.055,0.384,0.077  c0.132,0.024,0.264,0.044,0.396,0.06c0.125,0.016,0.25,0.029,0.376,0.039c0.141,0.011,0.283,0.018,0.424,0.021  c0.071,0.002,0.14,0.011,0.212,0.011c0.054,0,0.105-0.007,0.159-0.008c0.138-0.003,0.276-0.011,0.414-0.021  c0.13-0.009,0.26-0.019,0.389-0.034c0.123-0.015,0.245-0.036,0.368-0.056c0.139-0.023,0.277-0.046,0.414-0.077  c0.112-0.025,0.223-0.056,0.334-0.086c0.14-0.038,0.28-0.075,0.417-0.12c0.111-0.036,0.22-0.079,0.33-0.121  c0.131-0.049,0.261-0.098,0.389-0.154c0.116-0.051,0.229-0.108,0.342-0.165c0.116-0.058,0.233-0.115,0.347-0.178  c0.116-0.065,0.228-0.136,0.342-0.207c0.107-0.067,0.214-0.133,0.317-0.205c0.108-0.075,0.213-0.157,0.318-0.238  c0.104-0.081,0.208-0.161,0.308-0.246c0.094-0.081,0.186-0.166,0.277-0.252c0.104-0.098,0.207-0.197,0.306-0.3  c0.036-0.037,0.075-0.07,0.111-0.108c0.047-0.051,0.087-0.107,0.133-0.16c0.095-0.108,0.187-0.218,0.276-0.331  C470.366,508.834,470.441,508.735,470.513,508.634z M406.531,450.121l-46.622,42.997l-46.588-42.995  c-3.064-2.828-7.789-2.827-10.851,0.002l-46.54,42.989l-46.567-42.99c-3.064-2.829-7.788-2.829-10.851,0l-46.554,42.99  l-46.553-42.99c-3.063-2.83-7.788-2.83-10.851,0l-38.555,35.605v-269.73c0-110.281,89.721-200.003,200.004-200.003  s200.003,89.721,200.003,200.003v269.745l-38.626-35.623C414.313,447.297,409.595,447.297,406.531,450.121z M211.979,204.75  c2.666,6.085,4.018,12.56,4.018,19.249c0,26.467-21.532,47.999-47.998,47.999c-26.467,0-47.999-21.532-47.999-47.999  c0-26.466,21.532-47.998,47.999-47.998c6.666,0,13.122,1.343,19.189,3.991c4.048,1.768,5.898,6.481,4.13,10.531  c-1.768,4.048-6.482,5.896-10.531,4.13c-4.036-1.763-8.339-2.655-12.789-2.655c-17.646,0-32.003,14.356-32.003,32.002  c0,17.646,14.356,32.003,32.003,32.003c17.646,0,32.002-14.356,32.002-32.003c0-4.464-0.899-8.781-2.673-12.829  c-1.773-4.046,0.07-8.763,4.116-10.536C205.488,198.861,210.207,200.704,211.979,204.75z M387.98,204.75  c2.666,6.085,4.018,12.56,4.018,19.249c0,26.467-21.532,47.999-47.998,47.999c-26.467,0-47.999-21.532-47.999-47.999  c0-26.466,21.532-47.998,47.999-47.998c6.666,0,13.122,1.343,19.189,3.991c4.048,1.768,5.898,6.481,4.13,10.531  c-1.768,4.048-6.483,5.896-10.531,4.13c-4.036-1.763-8.339-2.655-12.789-2.655c-17.646,0-32.003,14.356-32.003,32.002  c0,17.646,14.356,32.003,32.003,32.003c17.646,0,32.002-14.356,32.002-32.003c0-4.464-0.899-8.781-2.673-12.829  c-1.773-4.046,0.07-8.763,4.116-10.536C381.49,198.861,386.208,200.704,387.98,204.75z"
   id="path119" />
<g
   id="g121">
</g>
<g
   id="g123">
</g>
<g
   id="g125">
</g>
<g
   id="g127">
</g>
<g
   id="g129">
</g>
<g
   id="g131">
</g>
<g
   id="g133">
</g>
<g
   id="g135">
</g>
<g
   id="g137">
</g>
<g
   id="g139">
</g>
<g
   id="g141">
</g>
<g
   id="g143">
</g>
<g
   id="g145">
</g>
<g
   id="g147">
</g>
<g
   id="g149">
</g>
<path
   style="fill:#ff00ff;fill-opacity:1;stroke-width:0.6198535"
   d="m 131.97475,474.40394 -19.95134,-18.37772 0.14375,-128.92953 c 0.14241,-127.72212 0.15606,-129.0137 1.4573,-137.9174 4.40224,-30.12222 13.70204,-56.67631 28.24881,-80.65992 25.60304,-42.212338 65.82822,-74.395392 112.22838,-89.790804 l 7.86324,-2.608997 8.51559,0.700647 c 35.44726,2.916537 66.97183,13.692643 95.30304,32.577618 12.61297,8.407535 20.6232,14.974635 31.3324,25.687532 32.23941,32.250524 50.93364,70.695854 57.4379,118.122974 0.91675,6.68466 1.04204,21.83987 1.23668,149.58981 0.21065,138.25572 0.18514,142.12896 -0.93105,141.3266 -0.63119,-0.45374 -9.4297,-8.49566 -19.55224,-17.87095 -12.6462,-11.71264 -19.16034,-17.32458 -20.82001,-17.93645 -4.59655,-1.69461 -5.13284,-1.30452 -30.63075,22.28035 -12.89711,11.92947 -23.669,21.68995 -23.93753,21.68995 -0.26854,0 -11.05482,-9.75843 -23.96951,-21.68539 -14.90512,-13.76516 -24.23178,-21.93767 -25.53619,-22.37613 -1.13021,-0.3799 -3.01019,-0.51153 -4.17775,-0.2925 -2.36758,0.44416 -0.82278,-0.8992 -30.07124,26.14993 l -20.19582,18.6772 -23.5079,-21.70667 c -12.92934,-11.93867 -24.40547,-22.08675 -25.50251,-22.55128 -2.59267,-1.09786 -4.14731,-1.06599 -6.46497,0.13251 -1.48636,0.76863 -29.34864,26.03843 -45.7776,41.51816 l -2.78934,2.62818 z m 43.8157,-202.82443 c 10.064,-1.62556 18.84867,-6.25033 26.34378,-13.86891 10.13199,-10.29891 14.36272,-21.26797 13.7613,-35.67908 -0.6377,-15.28015 -4.86634,-22.89071 -12.27139,-22.0856 -2.84255,0.30905 -2.85983,0.29922 -7.54951,-4.30014 -4.41076,-4.3258 -4.66782,-4.72367 -4.17097,-6.45608 0.65975,-2.30042 -0.17584,-5.50179 -1.92648,-7.38089 -4.83482,-5.18956 -22.74116,-7.56198 -34.111,-4.51938 -21.35704,5.71521 -35.86254,24.49235 -35.86254,46.42348 0,8.39603 1.27284,13.94235 4.95326,21.58352 9.1027,18.89874 29.91843,29.66135 50.83355,26.28308 z m 176.0384,0 c 10.064,-1.62556 18.84866,-6.25033 26.34377,-13.86891 7.06432,-7.1807 11.0785,-14.49923 13.04685,-23.78663 2.66205,-12.56052 -0.99899,-30.46016 -6.79234,-33.20929 -2.41544,-1.14619 -4.54571,-1.26338 -6.87411,-0.37813 -1.44227,0.54836 -1.82004,0.38767 -3.27874,-1.39467 -0.90677,-1.10793 -2.81807,-3.08981 -4.24736,-4.40416 -2.57731,-2.37008 -2.59578,-2.41795 -2.24484,-5.81816 0.65179,-6.31529 -2.25758,-9.02071 -12.54404,-11.66464 -6.11218,-1.57101 -16.99517,-1.46163 -23.33347,0.23451 -17.17692,4.59659 -30.18507,17.78137 -34.60864,35.07855 -1.53024,5.98358 -1.6838,16.75035 -0.32132,22.52906 5.7896,24.55554 29.94136,40.70646 54.85424,36.68247 z"
   id="path158"
   inkscape:connector-curvature="0" /><path
   style="fill:#ff00ff;fill-opacity:1;stroke-width:0.6198535"
   d="M 56.331933,342.2403 C 56.521136,212.78671 56.637634,198.73913 57.57558,192.27856 60.530368,171.92598 63.970194,158.55818 70.433703,142.30953 96.342661,77.176841 155.55613,29.713108 224.50565,18.810096 c 9.83851,-1.555768 21.90476,-2.580447 29.885,-2.537869 l 6.00981,0.03206 -9.29781,3.287154 c -45.27765,16.007507 -82.50947,45.896429 -108.171,86.837409 -17.05851,27.21552 -28.60412,62.66712 -30.38132,93.28794 -0.30669,5.28425 -0.56823,65.07786 -0.58121,132.87468 l -0.0236,123.26695 -4.01985,-3.76037 c -4.40204,-4.1179 -6.86082,-5.03646 -10.37603,-3.87633 -1.324846,0.43724 -8.730419,6.81486 -20.404559,17.57227 -10.078719,9.28726 -18.931764,17.42453 -19.673434,18.08283 l -1.348492,1.1969 z"
   id="path160"
   inkscape:connector-curvature="0" /></svg>