<?xml version="1.0" encoding="UTF-8" standalone="no"?>
<!-- Generator: Adobe Illustrator 19.0.0, SVG Export Plug-In . SVG Version: 6.00 Build 0)  -->

<svg
   xmlns:dc="http://purl.org/dc/elements/1.1/"
   xmlns:cc="http://creativecommons.org/ns#"
   xmlns:rdf="http://www.w3.org/1999/02/22-rdf-syntax-ns#"
   xmlns:svg="http://www.w3.org/2000/svg"
   xmlns="http://www.w3.org/2000/svg"
   xmlns:sodipodi="http://sodipodi.sourceforge.net/DTD/sodipodi-0.dtd"
   xmlns:inkscape="http://www.inkscape.org/namespaces/inkscape"
   version="1.1"
   id="Layer_1"
   x="0px"
   y="0px"
   viewBox="0 0 511.999 511.999"
   style="enable-background:new 0 0 511.999 511.999;"
   xml:space="preserve"
   sodipodi:docname="scared-ghost.svg"
   inkscape:version="0.92.5 (2060ec1f9f, 2020-04-08)"><metadata
   id="metadata55"><rdf:RDF><cc:Work
       rdf:about=""><dc:format>image/svg+xml</dc:format><dc:type
         rdf:resource="http://purl.org/dc/dcmitype/StillImage" /><dc:title></dc:title></cc:Work></rdf:RDF></metadata><defs
   id="defs53" /><sodipodi:namedview
   pagecolor="#ffffff"
   bordercolor="#666666"
   borderopacity="1"
   objecttolerance="10"
   gridtolerance="10"
   guidetolerance="10"
   inkscape:pageopacity="0"
   inkscape:pageshadow="2"
   inkscape:window-width="1920"
   inkscape:window-height="1015"
   id="namedview51"
   showgrid="false"
   inkscape:zoom="0.46093841"
   inkscape:cx="260.33847"
   inkscape:cy="255.9995"
   inkscape:window-x="0"
   inkscape:window-y="41"
   inkscape:window-maximized="1"
   inkscape:current-layer="Layer_1" />
<path
   style="fill:#FFA05A;"
   d="M464.001,504.001l-52.047-48l-52.047,48l-52.011-48l-51.966,48l-51.994-48l-51.981,48l-51.979-48  l-51.978,48V215.999c0-114.875,93.125-208.001,208.001-208.001S464.001,101.123,464.001,216V504.001z"
   id="path2" />
<path
   style="fill:#F08C46;"
   d="M287.991,10.448c-10.429-1.61-21.112-2.449-31.993-2.449C141.124,7.998,47.998,101.123,47.998,216  v288.002l51.98-48.001l12.005,11.086V216C111.983,112.003,188.306,25.837,287.991,10.448z"
   id="path4" />
<g
   id="g10">
	<circle
   style="fill:#FFFFFF;"
   cx="167.97"
   cy="224.068"
   r="39.991"
   id="circle6" />
	<circle
   style="fill:#FFFFFF;"
   cx="342.93"
   cy="224.068"
   r="39.991"
   id="circle8" />
</g>
<g
   id="g16">
	<circle
   style="fill:#82B9FF;"
   cx="175.969"
   cy="224.068"
   r="20.995"
   id="circle12" />
	<circle
   style="fill:#82B9FF;"
   cx="350.928"
   cy="224.068"
   r="20.995"
   id="circle14" />
</g>
<path
   d="M470.513,508.634c0.078-0.11,0.154-0.222,0.226-0.336c0.07-0.11,0.138-0.221,0.202-0.333  c0.064-0.112,0.125-0.226,0.183-0.341c0.06-0.118,0.118-0.236,0.172-0.357c0.052-0.117,0.101-0.236,0.148-0.356  c0.048-0.122,0.093-0.245,0.135-0.368c0.041-0.123,0.078-0.247,0.114-0.373c0.036-0.127,0.069-0.254,0.098-0.382  c0.028-0.124,0.053-0.249,0.076-0.375c0.024-0.136,0.045-0.272,0.062-0.408c0.015-0.12,0.028-0.241,0.038-0.363  c0.012-0.146,0.018-0.292,0.022-0.439c0.002-0.068,0.01-0.135,0.01-0.203V215.999c0-57.696-22.468-111.937-63.264-152.734  C367.937,22.468,313.696,0,256,0S144.062,22.468,103.264,63.264C62.468,104.062,40,158.303,40,215.999v288.002  c0,0.07,0.009,0.137,0.011,0.206c0.004,0.146,0.01,0.292,0.022,0.438c0.01,0.122,0.023,0.244,0.038,0.365  c0.017,0.137,0.038,0.272,0.062,0.408c0.023,0.126,0.048,0.251,0.076,0.375c0.029,0.128,0.062,0.255,0.098,0.382  c0.035,0.125,0.073,0.249,0.114,0.372c0.042,0.124,0.087,0.246,0.135,0.368c0.047,0.12,0.096,0.239,0.149,0.356  c0.053,0.12,0.111,0.238,0.171,0.355c0.059,0.116,0.12,0.23,0.185,0.343c0.064,0.112,0.131,0.221,0.201,0.331  c0.074,0.115,0.15,0.228,0.229,0.339c0.071,0.1,0.144,0.198,0.221,0.295c0.09,0.115,0.184,0.227,0.281,0.337  c0.046,0.052,0.085,0.107,0.132,0.158c0.033,0.036,0.069,0.065,0.103,0.1c0.112,0.117,0.228,0.228,0.347,0.338  c0.085,0.079,0.169,0.158,0.256,0.233c0.114,0.097,0.234,0.188,0.354,0.278c0.097,0.073,0.192,0.149,0.291,0.218  c0.121,0.083,0.248,0.158,0.373,0.234c0.102,0.062,0.202,0.129,0.307,0.186c0.147,0.081,0.3,0.151,0.453,0.222  c0.087,0.041,0.171,0.087,0.259,0.125c0.727,0.31,1.509,0.516,2.327,0.598c0.174,0.018,0.348,0.02,0.522,0.026  c0.095,0.003,0.188,0.014,0.284,0.014h0.001h0.001c0.258,0,0.515-0.014,0.772-0.039c0.096-0.009,0.189-0.026,0.284-0.039  c0.158-0.021,0.316-0.042,0.473-0.072c0.112-0.022,0.221-0.05,0.331-0.077c0.137-0.033,0.274-0.065,0.409-0.105  c0.113-0.034,0.223-0.072,0.334-0.111c0.13-0.045,0.259-0.09,0.387-0.142c0.109-0.044,0.215-0.092,0.321-0.14  c0.125-0.057,0.249-0.115,0.372-0.179c0.105-0.054,0.207-0.113,0.309-0.171c0.117-0.068,0.233-0.137,0.347-0.211  c0.104-0.067,0.205-0.138,0.305-0.21c0.105-0.075,0.209-0.152,0.311-0.232c0.103-0.082,0.203-0.167,0.302-0.254  c0.055-0.048,0.114-0.091,0.168-0.141l46.554-42.99l46.553,42.99c3.062,2.829,7.787,2.829,10.852,0l46.555-42.99l46.567,42.99  c3.065,2.83,7.789,2.829,10.852-0.001l46.541-42.989l46.584,42.992c3.062,2.826,7.782,2.827,10.847,0.002l46.624-42.999  l46.624,42.999c0.052,0.048,0.107,0.087,0.16,0.133c0.108,0.095,0.218,0.187,0.331,0.276c0.098,0.077,0.198,0.152,0.299,0.224  c0.11,0.078,0.222,0.154,0.336,0.227c0.11,0.07,0.22,0.138,0.332,0.202c0.112,0.064,0.227,0.125,0.343,0.184  c0.117,0.06,0.235,0.117,0.354,0.171c0.118,0.053,0.238,0.102,0.36,0.149c0.12,0.047,0.241,0.092,0.363,0.133  c0.125,0.042,0.251,0.08,0.379,0.116c0.124,0.035,0.248,0.067,0.374,0.096c0.127,0.029,0.255,0.055,0.384,0.077  c0.132,0.024,0.264,0.044,0.396,0.06c0.125,0.016,0.25,0.029,0.376,0.039c0.141,0.011,0.283,0.018,0.424,0.021  c0.071,0.002,0.14,0.011,0.212,0.011c0.054,0,0.105-0.007,0.159-0.008c0.138-0.003,0.276-0.011,0.414-0.021  c0.13-0.009,0.26-0.019,0.389-0.034c0.123-0.015,0.245-0.036,0.368-0.056c0.139-0.023,0.277-0.046,0.414-0.077  c0.112-0.025,0.223-0.056,0.334-0.086c0.14-0.038,0.28-0.075,0.417-0.12c0.111-0.036,0.22-0.079,0.33-0.121  c0.131-0.049,0.261-0.098,0.389-0.154c0.116-0.051,0.229-0.108,0.342-0.165c0.116-0.058,0.233-0.115,0.347-0.178  c0.116-0.065,0.228-0.136,0.342-0.207c0.107-0.067,0.214-0.133,0.317-0.205c0.108-0.075,0.213-0.157,0.318-0.238  c0.104-0.081,0.208-0.161,0.308-0.246c0.094-0.081,0.186-0.166,0.277-0.252c0.104-0.098,0.207-0.197,0.306-0.3  c0.036-0.037,0.075-0.07,0.111-0.108c0.047-0.051,0.087-0.107,0.133-0.16c0.095-0.108,0.187-0.218,0.276-0.331  C470.366,508.834,470.441,508.735,470.513,508.634z M406.531,450.121l-46.622,42.997l-46.588-42.995  c-3.064-2.828-7.789-2.827-10.851,0.002l-46.54,42.989l-46.567-42.99c-3.064-2.829-7.788-2.829-10.851,0l-46.554,42.99  l-46.553-42.99c-3.063-2.83-7.788-2.83-10.851,0l-38.555,35.605v-269.73c0-110.281,89.721-200.003,200.004-200.003  s200.003,89.721,200.003,200.003v269.745l-38.626-35.623C414.313,447.297,409.595,447.297,406.531,450.121z M211.979,204.75  c2.666,6.085,4.018,12.56,4.018,19.249c0,26.467-21.532,47.999-47.998,47.999c-26.467,0-47.999-21.532-47.999-47.999  c0-26.466,21.532-47.998,47.999-47.998c6.666,0,13.122,1.343,19.189,3.991c4.048,1.768,5.898,6.481,4.13,10.531  c-1.768,4.048-6.482,5.896-10.531,4.13c-4.036-1.763-8.339-2.655-12.789-2.655c-17.646,0-32.003,14.356-32.003,32.002  c0,17.646,14.356,32.003,32.003,32.003c17.646,0,32.002-14.356,32.002-32.003c0-4.464-0.899-8.781-2.673-12.829  c-1.773-4.046,0.07-8.763,4.116-10.536C205.488,198.861,210.207,200.704,211.979,204.75z M387.98,204.75  c2.666,6.085,4.018,12.56,4.018,19.249c0,26.467-21.532,47.999-47.998,47.999c-26.467,0-47.999-21.532-47.999-47.999  c0-26.466,21.532-47.998,47.999-47.998c6.666,0,13.122,1.343,19.189,3.991c4.048,1.768,5.898,6.481,4.13,10.531  c-1.768,4.048-6.483,5.896-10.531,4.13c-4.036-1.763-8.339-2.655-12.789-2.655c-17.646,0-32.003,14.356-32.003,32.002  c0,17.646,14.356,32.003,32.003,32.003c17.646,0,32.002-14.356,32.002-32.003c0-4.464-0.899-8.781-2.673-12.829  c-1.773-4.046,0.07-8.763,4.116-10.536C381.49,198.861,386.208,200.704,387.98,204.75z"
   id="path18" />
<g
   id="g20">
</g>
<g
   id="g22">
</g>
<g
   id="g24">
</g>
<g
   id="g26">
</g>
<g
   id="g28">
</g>
<g
   id="g30">
</g>
<g
   id="g32">
</g>
<g
   id="g34">
</g>
<g
   id="g36">
</g>
<g
   id="g38">
</g>
<g
   id="g40">
</g>
<g
   id="g42">
</g>
<g
   id="g44">
</g>
<g
   id="g46">
</g>
<g
   id="g48">
</g>
<path
   style="fill:#0000ff;fill-opacity:1;stroke-width:2.16948724"
   d="m 57.708361,337.92756 c 0,-158.1569 0.171749,-160.71809 12.998564,-193.83883 10.264709,-26.50501 22.959093,-45.507557 45.375955,-67.924417 22.60609,-22.60609 41.37472,-35.082902 68.78562,-45.726591 18.80938,-7.303703 44.00948,-12.67573 59.06424,-12.591007 l 10.11422,0.05692 -16.31646,7.162708 c -58.90385,25.85801 -103.12176,77.771267 -119.65566,140.479637 -4.63693,17.58655 -4.84248,22.84188 -6.00762,153.59636 -1.02623,115.1653 -1.65114,134.85049 -4.18392,131.79635 -3.16057,-3.81116 -12.238523,-4.88332 -14.218708,-1.67932 -0.64962,1.05112 -9.005524,8.96469 -18.568678,17.58576 l -17.387553,15.67463 z"
   id="path57"
   inkscape:connector-curvature="0" /><path
   style="fill:#0000ff;fill-opacity:1;stroke-width:2.16948724"
   d="m 130.92856,472.70081 -18.98302,-17.82381 0.16311,-55.28969 c 0.0897,-30.40933 0.91043,-93.36418 1.82382,-139.89969 l 1.66071,-84.61 6.97545,-20.61013 c 15.63132,-46.18535 44.03754,-83.906863 83.0479,-110.281931 5.58014,-3.77276 19.17706,-11.255211 30.21536,-16.627665 22.94847,-11.169259 31.94942,-12.116634 60.06916,-6.322452 64.30252,13.249786 120.10761,59.830055 144.31731,120.461058 13.85528,34.69931 13.20378,25.81953 13.98632,190.6263 l 0.71571,150.73671 -6.06402,-5.44201 c -3.33522,-2.99311 -12.09322,-11.02813 -19.46225,-17.85562 -7.36904,-6.82748 -15.17919,-12.40172 -17.3559,-12.38718 -2.17671,0.0152 -14.53934,9.77723 -27.47248,21.69487 -12.93316,11.91764 -24.01976,21.66845 -24.63693,21.66845 -0.61716,0 -11.74873,-9.76269 -24.73682,-21.69487 -12.98809,-11.93218 -25.33193,-21.68299 -27.43076,-21.66845 -2.09884,0.0152 -14.39773,9.77723 -27.33088,21.69487 -12.93315,11.91764 -24.03324,21.66845 -24.66687,21.66845 -0.63363,0 -11.65689,-9.76269 -24.49614,-21.69487 -12.83925,-11.93218 -25.16962,-21.67856 -27.40082,-21.6586 -2.23121,0.0195 -14.55592,9.78265 -27.38824,21.69487 -12.83232,11.91222 -24.05942,21.61059 -24.9491,21.55188 -0.88969,-0.0588 -10.15997,-8.1274 -20.60062,-17.93049 z m 59.11852,-205.48127 c 16.59895,-8.48245 26.05598,-24.41317 26.00187,-43.80115 -0.0371,-13.30837 -3.7028,-21.94194 -9.7852,-23.04666 -5.94069,-1.07897 -14.04718,-8.97939 -14.04718,-13.69009 0,-6.48131 -9.21745,-10.73779 -23.3997,-10.80563 -22.74933,-0.1088 -41.25457,13.45505 -47.4548,34.78312 -11.83329,40.70506 30.88094,75.87918 68.68501,56.56041 z m 174.64373,0.64182 c 17.54473,-8.74845 27.49842,-24.88762 27.40494,-44.43493 -0.0704,-14.71248 -4.36032,-23.3997 -11.55534,-23.3997 -6.29692,0 -12.59537,-6.07344 -12.59537,-12.14541 0,-7.79884 -7.81753,-11.71895 -23.37009,-11.71895 -46.81471,0 -66.44655,54.73674 -30.62806,85.39603 14.05555,12.03104 34.23082,14.53701 50.74392,6.30296 z"
   id="path59"
   inkscape:connector-curvature="0" /><path
   style="fill:#0000ff;fill-opacity:1;stroke-width:2.16948724"
   d=""
   id="path61"
   inkscape:connector-curvature="0" /><path
   style="fill:#0000ff;fill-opacity:1;stroke-width:2.16948724"
   d=""
   id="path63"
   inkscape:connector-curvature="0" /><path
   style="fill:#0000ff;fill-opacity:1;stroke-width:2.16948724"
   d="m 130.75698,470.94158 -19.01437,-17.62698 1.17004,-51.25424 c 2.1515,-94.24772 2.9445,-229.31767 1.26256,-215.05056 -0.91434,7.75592 -2.35286,68.6434 -3.19671,135.30552 -0.84385,66.6621 -1.9852,122.37893 -2.53634,123.81518 -0.59142,1.54122 -3.62725,2.22604 -7.40811,1.67113 -5.554679,-0.81525 -8.78728,1.30004 -24.323495,15.91634 l -17.91745,16.85652 -0.576657,-74.64689 c -0.80082,-103.66431 2.576323,-227.73005 6.579147,-241.69741 8.780065,-30.63697 22.897848,-55.64824 45.067875,-79.842917 25.58782,-27.924599 50.55779,-44.537411 83.46572,-55.530734 16.5143,-5.516818 50.4314,-11.893518 52.7334,-9.914323 0.38147,0.327977 -7.13299,4.513641 -16.69879,9.301476 -40.62595,20.333935 -69.27216,47.67187 -92.30522,88.089638 -9.26985,16.26647 -22.60269,52.21511 -20.24156,54.57624 0.65505,0.65504 3.35938,-5.46119 6.00964,-13.59163 11.57247,-35.50195 36.93404,-74.224634 63.45126,-96.87901 14.92362,-12.749643 43.64807,-30.161846 59.86374,-36.288227 22.5308,-8.51228 55.55624,-4.200893 90.10912,11.763512 52.26634,24.148537 89.99129,66.329495 108.93974,121.807505 l 5.92789,17.3559 1.61112,151.86411 c 0.88611,83.52526 1.3107,152.16955 0.94349,152.54288 -0.36718,0.37332 -6.87063,-5.06261 -14.45208,-12.07984 -16.20826,-15.00198 -23.24695,-20.0565 -27.92981,-20.0565 -1.87944,0 -13.93613,9.27456 -26.79262,20.61013 -12.85649,11.33557 -23.92882,20.61013 -24.6052,20.61013 -0.67636,0 -7.51068,-5.61355 -15.18732,-12.47455 -23.64739,-21.13482 -33.5294,-28.74571 -37.32349,-28.74571 -2.00417,0 -14.16289,9.27456 -27.01938,20.61013 -12.85648,11.33557 -23.92673,20.61013 -24.60053,20.61013 -0.67381,0 -8.50589,-6.58982 -17.40462,-14.64404 -21.29625,-19.27518 -30.96681,-26.57622 -35.20145,-26.57622 -1.91044,0 -13.9777,9.27456 -26.81615,20.61013 -12.83844,11.33557 -24.06856,20.61013 -24.95582,20.61013 -0.88726,0 -10.16966,-7.93212 -20.62757,-17.62695 z M 193.4522,266.22236 c 14.05941,-8.23937 21.16542,-20.09017 22.24883,-37.1047 1.22059,-19.16906 -0.43734,-23.84389 -10.76942,-30.36625 -4.89381,-3.08933 -9.95742,-8.4241 -11.25246,-11.85506 -2.95016,-7.81587 -11.93181,-11.68946 -26.28697,-11.337 -26.67487,0.65493 -45.10938,17.40895 -48.24004,43.84247 -4.69018,39.60127 39.30827,67.3271 74.30006,46.82054 z m 166.36167,4.47162 c 20.37897,-7.27254 32.36104,-24.3328 32.56864,-46.37168 0.14384,-15.2784 -2.81467,-21.1915 -12.66162,-25.30582 -5.15534,-2.15404 -8.61157,-5.61027 -10.76561,-10.76561 -4.14797,-9.92752 -8.71585,-12.10125 -25.27435,-12.02739 -18.15314,0.081 -30.85994,6.44564 -40.07833,20.07475 -13.58552,20.08577 -11.60476,41.95454 5.46757,60.36519 14.73928,15.89471 32.08248,20.69008 50.7437,14.03056 z"
   id="path69"
   inkscape:connector-curvature="0" /><path
   style="fill:#0000ff;fill-opacity:1;stroke-width:2.16948724"
   d="m 130.73417,470.92042 -19.03718,-17.6481 1.22375,-75.09748 c 2.82167,-173.15497 2.95477,-191.84731 1.30719,-183.57183 -0.95024,4.77287 -2.39736,62.68477 -3.21582,128.69309 -0.81846,66.00834 -1.95699,121.23705 -2.53006,122.73046 -0.61392,1.59982 -3.52156,2.35135 -7.07791,1.82939 -5.060305,-0.7427 -8.99191,1.82814 -24.32349,15.90484 l -18.287545,16.7907 -0.587207,-86.56757 C 57.472402,285.85014 60.540756,179.29696 64.821991,164.23019 73.71812,132.9224 88.804422,106.61095 111.92548,82.078804 137.57086,54.868259 160.78471,39.700387 193.30131,28.90802 c 17.62794,-5.850769 50.67283,-12.15151 52.76376,-10.06058 0.45835,0.458347 -6.34464,4.445457 -15.11776,8.860244 -40.81091,20.536771 -69.54247,47.127384 -91.61479,84.788066 -8.60741,14.6863 -19.6686,41.55145 -21.74724,52.81918 -0.77043,4.17626 1.88029,-0.81275 5.89048,-11.0867 20.71936,-53.08209 48.79678,-88.353129 90.31148,-113.449849 25.87269,-15.640718 41.7197,-21.365979 58.58245,-21.164865 29.50151,0.351851 73.23599,16.782245 101.43329,38.106999 41.38926,31.301418 72.07974,82.150735 76.57871,126.878965 1.91362,19.02509 4.84147,295.2911 3.12949,295.2911 -0.51597,0 -7.97413,-6.45691 -16.57365,-14.34871 -8.59954,-7.89179 -17.83815,-15.35228 -20.53027,-16.57889 -6.13036,-2.79317 -9.17472,-0.8832 -35.39876,22.20867 -10.86612,9.56829 -20.44725,17.36866 -21.29137,17.33414 -0.84413,-0.0345 -9.83307,-7.4577 -19.97543,-16.49598 -26.26895,-23.40937 -29.73069,-25.65859 -35.42588,-23.01746 -2.5903,1.20125 -14.2851,10.5973 -25.98846,20.88013 -11.70334,10.28282 -21.95417,18.68184 -22.77961,18.66448 -0.82544,-0.0174 -9.35003,-7.12693 -18.94354,-15.79907 -25.32298,-22.89089 -30.70325,-26.39841 -36.42377,-23.74554 -2.5903,1.20125 -14.28511,10.5973 -25.98846,20.88013 -11.70335,10.28282 -21.98573,18.69605 -22.84972,18.69605 -0.864,0 -10.13764,-7.94165 -20.60809,-17.64811 z m 49.55022,-199.49248 c 22.39148,-6.03053 35.79654,-24.42685 35.79654,-49.12509 0,-11.55882 -0.77885,-14.43036 -4.88135,-17.99713 -6.25215,-5.43572 -17.74716,-16.92931 -23.48787,-23.48499 -4.10397,-4.68658 -5.84665,-5.04169 -21.2936,-4.33897 -13.91546,0.63304 -18.36958,1.78832 -25.76558,6.68286 -11.67828,7.7285 -19.98779,22.10289 -21.55497,37.28734 -2.19513,21.26877 12.01516,42.56717 33.52146,50.24202 10.03371,3.58067 16.4622,3.75121 27.66537,0.73396 z m 178.62899,-0.76809 c 21.10238,-7.44535 32.89602,-24.17449 32.89602,-46.66261 0,-16.28288 -2.2121,-20.85413 -12.08851,-24.98076 -5.15534,-2.15404 -8.61157,-5.61027 -10.76561,-10.76561 -4.09189,-9.79326 -8.70687,-12.0885 -24.306,-12.0885 -47.09499,0 -67.20529,54.69675 -31.2186,84.90941 14.64728,12.29713 29.14323,15.35298 45.4827,9.58807 z"
   id="path71"
   inkscape:connector-curvature="0" /><path
   style="fill:#0000ff;fill-opacity:1;stroke-width:2.16948724"
   d="m 130.57242,470.89285 -18.89219,-17.6757 1.24079,-95.68001 c 0.68244,-52.62402 1.61339,-111.30034 2.06878,-130.39182 0.53561,-22.45468 0.22008,-30.49842 -0.89358,-22.77962 -0.94686,6.5627 -1.95238,40.24399 -2.23448,74.84731 -0.28211,34.60332 -1.11086,86.83373 -1.84168,116.06757 l -1.32875,53.15244 -6.62337,-0.66105 c -5.634487,-0.56235 -9.280844,1.78601 -24.422477,15.72879 -9.789502,9.01441 -18.428281,16.38982 -19.197287,16.38982 -0.769005,0 -0.782221,-65.16597 -0.02937,-144.81327 C 59.92593,175.63262 60.36551,169.87164 73.308819,139.93396 84.069384,115.04493 95.076451,99.464803 118.31482,76.22951 c 23.18695,-23.183885 41.88225,-35.4494 69.26447,-45.442674 17.34409,-6.32981 55.99577,-14.429407 58.22411,-12.20107 0.60464,0.604639 -6.67472,5.008065 -16.17635,9.785391 -21.10696,10.61237 -48.73797,31.135327 -62.46979,46.399486 -18.85764,20.961972 -35.87022,49.584717 -44.66439,75.145407 -5.69859,16.56324 -4.83155,19.09116 1.18903,3.4667 22.33269,-57.957245 56.36755,-96.855896 107.02809,-122.32307 20.84674,-10.479706 34.48537,-13.350644 51.97101,-10.939925 43.87864,6.04948 85.15057,27.437447 115.95226,60.088868 23.01635,24.398547 35.41757,45.118927 46.66016,77.961467 l 5.78776,16.90753 1.88077,142.10142 c 1.03441,78.15578 1.61011,146.93685 1.2793,152.84684 l -0.60146,10.74543 -16.27116,-14.76992 c -8.94913,-8.12345 -18.42778,-15.7821 -21.06364,-17.01925 -5.92376,-2.78033 -7.97612,-1.48704 -34.90533,21.99569 -11.09483,9.67489 -20.85752,17.57714 -21.69488,17.56059 -0.83733,-0.0174 -9.33259,-6.96258 -18.87833,-15.4356 -28.01824,-24.86964 -30.8551,-26.74483 -36.41339,-24.06951 -2.64378,1.27249 -14.37531,10.68848 -26.07008,20.92443 -11.69476,10.23594 -21.94558,18.581 -22.77961,18.54458 -0.83403,-0.0365 -10.78346,-8.29634 -22.10985,-18.35538 -27.85365,-24.73702 -28.25049,-24.91557 -38.44103,-17.29596 -4.5208,3.38028 -15.67099,12.79956 -24.7782,20.93176 -9.1072,8.13217 -17.50606,14.78579 -18.66412,14.78579 -1.15806,0 -10.60705,-7.95406 -20.99775,-17.67568 z M 189.71706,267.4492 c 16.87373,-8.60835 26.32483,-24.77747 26.35177,-45.08315 0.0158,-11.90799 -3.19382,-18.56501 -11.2436,-23.32013 -3.60084,-2.12707 -8.51031,-7.19499 -10.90993,-11.26205 -5.75472,-9.75352 -9.77222,-11.6215 -24.9945,-11.6215 -39.14519,0 -62.34189,39.65038 -42.75314,73.07841 12.78801,21.82266 40.75676,29.83636 63.5494,18.20842 z m 166.29289,3.94502 c 11.95149,-3.00942 26.4899,-15.28477 31.70751,-26.77193 3.94107,-8.67667 5.5025,-29.71742 2.73963,-36.91734 -0.74378,-1.93824 -5.21085,-5.49254 -9.92681,-7.89845 -5.67074,-2.89299 -9.6417,-6.9286 -11.72589,-11.91677 -3.57446,-8.55488 -9.87856,-11.73307 -23.23783,-11.71527 -15.96181,0.0213 -25.76164,4.06614 -36.38896,15.01951 -16.11821,16.61269 -18.57018,35.90331 -7.1111,55.94558 6.00488,10.50273 16.708,19.36395 28.45048,23.55443 10.12341,3.61269 13.55255,3.70687 25.49297,0.70024 z"
   id="path73"
   inkscape:connector-curvature="0" /><path
   style="fill:#0000ff;fill-opacity:1;stroke-width:2.16948724"
   d="m 130.82975,471.755 -18.50816,-16.81352 -0.6609,-46.64398 -0.66091,-46.64397 -1.15423,43.38974 -1.15424,43.38975 -5.01855,-0.70198 c -6.248407,-0.87403 -12.595646,3.23676 -30.005415,19.43303 -7.524027,6.99959 -14.33238,12.72651 -15.129672,12.72651 -2.354771,0 0.856023,-285.85102 3.394157,-302.17554 5.571453,-35.83392 22.959258,-67.62023 54.35269,-99.361092 26.49544,-26.788666 46.97866,-39.961973 77.01679,-49.531548 20.13623,-6.415016 50.37704,-12.361686 52.4289,-10.309822 0.63943,0.639433 -4.80809,4.176601 -12.1056,7.860374 -53.81096,27.163687 -89.4812,66.451598 -110.1229,121.291548 -7.64181,20.30241 -4.90946,18.3937 3.52667,-2.46359 C 148.30961,92.585641 181.91672,55.588171 230.70999,31.05968 251.84164,20.436751 266.2129,17.413318 283.17426,20.022219 359.19524,31.715331 418.67603,82.153712 445.56007,157.72172 l 5.40272,15.18641 2.10837,152.54056 c 1.15959,83.8973 1.56158,153.08735 0.89329,153.75564 -0.66829,0.66829 -8.15283,-5.11687 -16.63231,-12.85593 -22.30485,-20.35721 -23.99503,-21.02495 -34.04887,-13.45197 -4.52079,3.40527 -15.85721,12.88207 -25.19202,21.05958 -9.3348,8.17752 -17.82587,14.56661 -18.86905,14.198 -1.04319,-0.36862 -10.49034,-8.07811 -20.99367,-17.13218 -10.50331,-9.05408 -21.78423,-18.19849 -25.06866,-20.32096 -5.86378,-3.78925 -6.10737,-3.75554 -13.4756,1.86448 -4.12712,3.1479 -15.41369,12.5364 -25.08125,20.86333 -9.66754,8.32692 -18.24757,15.12549 -19.06671,15.10794 -0.81915,-0.0176 -10.27578,-7.8701 -21.01474,-17.4501 -10.73896,-9.58002 -22.31485,-18.91945 -25.72421,-20.75429 -5.96931,-3.21258 -6.53158,-3.07306 -15.18641,3.76827 -4.94317,3.90737 -15.93184,13.26116 -24.41926,20.78618 -8.48742,7.52502 -16.42664,13.68185 -17.64272,13.68185 -1.21609,0 -10.53973,-7.56609 -20.71922,-16.81353 z M 113.56942,256.02763 c -0.35992,-19.46492 -0.65511,-4.15016 -0.65598,34.03282 -8.7e-4,38.18297 0.29361,54.10883 0.6544,35.39078 0.36079,-18.71804 0.3615,-49.95865 0.002,-69.4236 z m 76.81019,11.05619 c 16.03256,-8.12384 25.70132,-26.06372 25.70132,-47.68753 0,-8.17232 -1.19501,-10.23009 -11.93218,-20.54679 -6.5627,-6.3057 -11.93218,-12.50044 -11.93218,-13.76608 0,-3.94262 -12.36763,-8.92162 -22.12951,-8.90896 -16.2426,0.0211 -25.96128,4.01527 -36.69863,15.08248 -38.110904,39.2817 8.0102,100.6459 56.99118,75.82688 z m 175.06592,0.36538 c 16.87373,-8.60835 26.32482,-24.77747 26.35176,-45.08315 0.0174,-12.44757 -3.38867,-18.91881 -12.15483,-23.09911 -4.34516,-2.07206 -8.86559,-6.59247 -10.93764,-10.93763 -4.15496,-8.71303 -10.6408,-12.16694 -22.8474,-12.16694 -40.85908,0 -64.03092,41.63586 -41.42186,74.42805 14.69085,21.30766 39.07943,28.04689 61.00997,16.85878 z"
   id="path75"
   inkscape:connector-curvature="0" /><path
   style="fill:#0000ff;fill-opacity:1;stroke-width:2.16948724"
   d="m 130.86943,471.755 -18.84017,-16.81352 -0.50032,-37.96603 -0.50032,-37.96603 -1.16865,34.7118 -1.16866,34.7118 -5.7076,-0.66376 c -4.226272,-0.4915 -9.012265,2.10909 -18.440638,10.02017 -7.003174,5.87614 -15.099827,13.25279 -17.992562,16.39254 -2.892735,3.13974 -6.202529,5.70861 -7.355098,5.70861 -2.871085,0 -0.321607,-282.67227 2.725382,-302.17554 2.777923,-17.78102 12.320075,-43.17737 23.407299,-62.29832 10.187593,-17.569449 51.167677,-59.001896 68.353647,-69.108175 22.87278,-13.450421 54.99573,-24.120566 81.92458,-27.212536 13.73061,-1.576549 13.68627,-1.529383 -12.59876,13.403843 -48.12292,27.339913 -80.52958,64.738734 -99.28312,114.577448 -7.33349,19.4892 -4.29381,16.43199 3.87327,-3.89562 14.10558,-35.10833 40.50086,-70.027856 69.29375,-91.671859 7.30225,-5.489202 23.38273,-15.003857 35.73439,-21.143678 21.50097,-10.687797 23.17479,-11.153325 39.29523,-10.928883 28.02932,0.390248 67.22636,14.122042 95.71975,33.533245 14.72887,10.034082 38.47447,33.41136 49.10626,48.344545 10.86588,15.26197 22.32186,37.68609 29.37106,57.49142 4.97919,13.9894 5.03571,15.31557 7.09763,166.58486 1.14315,83.86578 1.50682,153.05485 0.80816,153.75351 -0.69866,0.69869 -7.90481,-4.7699 -16.01364,-12.1524 -8.10883,-7.38251 -17.26621,-14.76391 -20.34972,-16.40315 -7.03038,-3.73744 -10.62719,-1.66857 -37.31323,21.46246 -10.48038,9.08423 -19.76212,16.51678 -20.6261,16.51678 -0.86395,0 -7.90941,-5.53412 -15.65654,-12.29802 -7.74713,-6.76392 -18.79516,-16.02624 -24.55113,-20.58292 -9.90562,-7.8417 -10.77602,-8.12024 -16.27116,-5.20736 -3.19316,1.69264 -14.75837,10.95496 -25.70048,20.5829 -10.94213,9.62797 -20.70483,17.48282 -21.69488,17.4552 -0.99006,-0.0276 -9.12212,-6.49629 -18.07126,-14.37485 -8.94913,-7.87856 -20.04367,-17.10519 -24.65453,-20.50363 -10.33403,-7.61672 -10.37518,-7.59885 -38.66505,16.80257 -11.55802,9.96936 -21.85429,18.12611 -22.88061,18.12611 -1.02631,0 -10.34409,-7.56609 -20.70618,-16.81353 z M 113.56087,269.99269 c -0.39769,-10.44066 -0.72308,-1.8983 -0.72308,18.98301 0,20.88132 0.32539,29.42367 0.72308,18.98302 0.3977,-10.44066 0.3977,-27.52537 0,-37.96603 z m 71.65998,-0.92366 c 17.98806,-5.47058 29.52047,-23.14253 29.67543,-45.47378 l 0.0999,-14.3975 -12.47455,-11.99133 c -6.86101,-6.59522 -12.47456,-12.89521 -12.47456,-13.99996 0,-3.37175 -10.53534,-7.04478 -20.16983,-7.032 -13.35394,0.0178 -23.24855,3.36652 -32.5032,11.00059 -20.84371,17.1938 -23.78996,46.87138 -6.64199,66.90493 14.97458,17.49444 31.39665,22.0119 54.48879,14.98905 z m 182.10829,-3.12966 c 16.07747,-9.25215 24.44106,-24.97967 24.46815,-46.01177 0.0109,-7.84669 -1.14499,-10.43171 -7.03872,-15.75196 -11.38465,-10.27688 -14.58013,-13.53956 -19.9994,-20.42007 -4.80871,-6.10533 -6.04461,-6.50618 -19.95319,-6.47157 -27.81979,0.0692 -46.36734,16.74563 -48.05212,43.20449 -0.76516,12.01661 -0.0814,15.33645 5.13127,24.91386 13.9897,25.70368 41.47693,34.32947 65.44401,20.53702 z"
   id="path77"
   inkscape:connector-curvature="0" /><path
   style="fill:#0000ff;fill-opacity:1;stroke-width:2.16948724"
   d="m 130.67887,471.755 -18.72749,-16.81352 -0.44585,-31.45757 -0.44584,-31.45756 -1.18419,28.20333 c -1.05532,25.13418 -1.5916,28.13528 -4.92804,27.57798 -5.820337,-0.97221 -14.516718,4.45225 -30.215822,18.84747 -7.938858,7.27949 -15.016811,13.23545 -15.728783,13.23545 -2.017376,0 -1.371195,-210.48185 0.802572,-261.42321 1.574757,-36.90381 2.844321,-48.44438 6.682553,-60.74565 10.148511,-32.52527 27.055119,-58.658599 55.31462,-85.502362 29.16687,-27.705673 55.587,-41.518399 95.79084,-50.080473 30.72314,-6.543001 33.53104,-5.143404 12.58916,6.275059 -35.21591,19.201307 -63.4849,44.182469 -83.38646,73.688196 -9.43987,13.99539 -22.86076,41.21399 -21.16021,42.91454 0.51084,0.51084 3.0475,-4.29137 5.63703,-10.67156 12.02444,-29.6263 44.52031,-69.137696 71.74979,-87.239816 7.97895,-5.304398 23.05303,-13.744944 33.49796,-18.756771 16.90711,-8.112604 20.69569,-9.10812 34.52967,-9.07329 26.54684,0.06684 63.33827,12.341701 91.43052,30.504308 37.99287,24.563679 67.71152,63.295479 83.84023,109.267399 4.77274,13.60386 4.90209,16.69107 6.96744,166.29502 1.15742,83.83862 1.52378,153.01448 0.81412,153.72414 -0.70966,0.70966 -9.16454,-5.64841 -18.78865,-14.12902 -10.10254,-8.90226 -19.46909,-15.41933 -22.16114,-15.41933 -5.20347,0 -12.75426,5.36937 -35.7302,25.40775 -8.60364,7.50368 -16.45239,13.62729 -17.44168,13.60809 -0.98926,-0.0195 -12.0454,-8.80564 -24.56918,-19.52538 -12.52378,-10.71977 -24.63498,-19.49046 -26.91381,-19.49046 -4.69403,0 -12.71276,5.78624 -35.21071,25.40775 -8.60365,7.50368 -16.45241,13.63718 -17.44168,13.63003 -0.98928,-0.007 -11.96003,-8.79357 -24.37945,-19.52539 -13.00759,-11.24007 -24.50458,-19.50347 -27.11859,-19.49132 -4.78346,0.0221 -13.08575,6.08183 -36.38304,26.55515 -7.80737,6.861 -15.17689,12.47455 -16.3767,12.47455 -1.19982,0 -10.60886,-7.56609 -20.90899,-16.81353 z M 113.52594,278.67064 c -0.46805,-4.47457 -0.851,-0.81356 -0.851,8.13558 0,8.94913 0.38295,12.61014 0.851,8.13557 0.46806,-4.47456 0.46806,-11.79658 0,-16.27115 z m 81.26577,-14.69372 c 12.66719,-8.78269 19.75343,-23.27799 20.01006,-40.93169 l 0.19442,-13.374 -15.7064,-15.87313 c -17.68056,-17.86825 -24.19592,-20.20626 -43.44236,-15.58911 -35.89386,8.61081 -47.97014,55.50024 -20.77859,80.67851 11.38584,10.54281 17.94533,12.84134 34.77377,12.18509 13.21974,-0.51553 17.01572,-1.59513 24.9491,-7.09567 z m 175.77168,-0.11238 c 13.7761,-9.67207 20.07889,-22.41868 20.12438,-40.69884 0.0347,-13.90859 -0.36625,-15.14447 -6.47158,-19.9532 -8.20877,-6.46545 -12.9803,-11.23569 -19.46225,-19.45702 -4.8488,-6.14993 -5.96112,-6.49974 -20.19192,-6.3502 -12.31375,0.12941 -16.90514,1.23935 -25.17536,6.08601 -26.87413,15.7493 -30.95194,51.53512 -8.37268,73.47628 12.83237,12.46971 19.12117,14.96345 35.68505,14.15037 12.00078,-0.58908 16.18266,-1.86012 23.86436,-7.2534 z M 124.89602,149.04377 c 0,-1.19321 -0.94637,-0.70508 -2.10304,1.08475 -1.15668,1.78983 -2.10305,4.2305 -2.10305,5.42372 0,1.19321 0.94637,0.70508 2.10305,-1.08475 1.15667,-1.78982 2.10304,-4.2305 2.10304,-5.42372 z"
   id="path79"
   inkscape:connector-curvature="0" /><path
   style="fill:#0000ff;fill-opacity:1;stroke-width:2.16948724"
   d="m 130.70662,471.89923 -18.76108,-16.66928 -0.42467,-26.17809 -0.42466,-26.17808 -1.20245,22.77962 c -1.05545,19.99484 -1.66013,22.70316 -4.9463,22.15426 -5.706691,-0.95323 -14.342166,4.4514 -30.23425,18.92249 -7.948995,7.23823 -15.026947,13.16043 -15.728783,13.16043 -2.031889,0 -1.360878,-215.75299 0.819797,-263.5927 2.148388,-47.1314 5.034134,-61.06938 17.966982,-86.77949 9.529634,-18.94462 17.811042,-30.272494 36.232324,-49.56103 27.81234,-29.121724 56.33793,-46.226301 92.3158,-55.354611 19.02983,-4.82825 40.13442,-8.067298 40.13442,-6.15967 0,0.666753 -7.07795,5.130568 -15.72878,9.91959 -24.24563,13.422165 -26.90554,16.732911 -3.7966,4.725571 26.3947,-13.714614 37.35353,-16.23257 57.22784,-13.148965 63.1749,9.801923 120.31145,51.420609 148.90833,108.465965 18.54079,36.98533 17.78058,31.82274 19.65089,133.45187 2.04852,111.31182 2.43655,218.03347 0.79275,218.03347 -0.66898,0 -9.11167,-6.83388 -18.76155,-15.18641 -9.80972,-8.4909 -19.55586,-15.17712 -22.10564,-15.16534 -4.80515,0.0221 -13.08763,6.0636 -36.40565,26.55515 -7.80737,6.861 -15.06322,12.46587 -16.1241,12.45526 -1.0609,-0.0108 -7.78651,-5.04792 -14.94582,-11.19403 -23.28487,-19.98959 -33.94594,-27.83745 -37.81633,-27.83745 -2.0898,0 -14.14792,8.78642 -26.79581,19.52539 -12.64792,10.73896 -23.78598,19.52202 -24.75126,19.5179 -0.96529,-0.004 -8.58895,-5.98119 -16.94147,-13.28241 -20.51999,-17.93719 -31.38578,-25.76088 -35.77753,-25.76088 -2.01792,0 -14.01724,8.78642 -26.66514,19.52539 -12.64791,10.73896 -23.88584,19.52538 -24.97319,19.52538 -1.08734,0 -10.41947,-7.50118 -20.73807,-16.6693 z m 60.46929,-205.96745 c 4.74863,-2.45361 11.334,-8.28202 14.63416,-12.95206 7.1055,-10.05492 11.50562,-32.06697 8.16594,-40.85098 -3.32048,-8.73354 -29.33185,-33.20932 -37.1079,-34.91722 -10.88664,-2.39111 -25.00513,0.86267 -35.99367,8.29517 -30.15628,20.39732 -26.31736,66.30066 6.86764,82.11878 11.22642,5.35124 31.3154,4.56788 43.43383,-1.69369 z m 176.75926,-1.36281 c 15.56173,-9.35376 22.31046,-21.9487 22.59098,-42.1608 0.18679,-13.46039 -0.17855,-14.5721 -6.20754,-18.88427 -8.09626,-5.79087 -14.07322,-11.76021 -19.76201,-19.7369 -4.19264,-5.87884 -5.38573,-6.2636 -19.02466,-6.13528 -19.501,0.18345 -32.65738,6.82729 -41.34466,20.87862 -11.63776,18.82365 -10.07631,38.58739 4.38325,55.48015 16.52126,19.30138 38.35777,23.18518 59.36464,10.55848 z M 124.89602,149.04377 c 0,-1.19321 -0.94637,-0.70508 -2.10304,1.08475 -1.15668,1.78983 -2.10305,4.2305 -2.10305,5.42372 0,1.19321 0.94637,0.70508 2.10305,-1.08475 1.15667,-1.78982 2.10304,-4.2305 2.10304,-5.42372 z m 4.33898,-10.84743 c 0,-1.19322 -0.94637,-0.70509 -2.10305,1.08474 -1.15667,1.78983 -2.10304,4.2305 -2.10304,5.42372 0,1.19322 0.94637,0.70508 2.10304,-1.08474 1.15668,-1.78983 2.10305,-4.2305 2.10305,-5.42372 z m 22.43073,-40.135516 c 3.64561,-5.369481 13.52873,-17.163864 21.9625,-26.209738 12.63174,-13.548539 12.08427,-13.138556 -3.10653,2.326365 -16.59717,16.896678 -36.26811,45.000779 -40.25335,57.510429 -0.76025,2.38643 2.25176,-2.00678 6.69336,-9.7627 4.4416,-7.75591 11.05841,-18.49487 14.70402,-23.864356 z m 45.16654,-47.186348 c 2.69857,-3.440928 2.62183,-3.517663 -0.8191,-0.819101 -2.08813,1.637625 -3.7966,3.346096 -3.7966,3.796603 0,1.785562 1.78155,0.636317 4.6157,-2.977502 z"
   id="path81"
   inkscape:connector-curvature="0" /><path
   style="fill:#0000ff;fill-opacity:1;stroke-width:2.16948724"
   d="m 130.7123,472.02823 -18.76676,-16.54032 -0.40418,-21.96808 -0.40418,-21.9681 -1.22293,18.44064 c -0.94589,14.26306 -1.96016,18.48866 -4.47717,18.65258 -1.78983,0.1165 -4.84565,0.36062 -6.790724,0.54238 -1.945071,0.1818 -11.444872,7.16431 -21.110669,15.51684 -9.665796,8.35253 -18.081133,15.18641 -18.70075,15.18641 -1.896677,0 -1.084086,-224.10365 0.967577,-266.84693 2.090619,-43.55489 5.250002,-58.24089 17.968692,-83.52526 9.529634,-18.94462 17.811042,-30.272494 36.232324,-49.56103 27.81234,-29.121724 56.33793,-46.226301 92.3158,-55.354611 19.41493,-4.925958 40.13442,-8.056405 40.13442,-6.063792 0,0.719484 -7.32202,5.326711 -16.27115,10.238282 -8.94914,4.911571 -16.27116,9.287953 -16.27116,9.725296 0,0.437342 9.45542,-3.776138 21.01204,-9.363288 19.20542,-9.285028 22.32985,-10.141989 36.33892,-9.966947 62.58158,0.781952 130.8896,47.377461 162.8261,111.06992 17.03082,33.96535 16.6207,31.20111 18.56131,125.10643 2.08001,100.65184 2.56112,224.54193 0.87198,224.54193 -0.66152,0 -8.08848,-5.92637 -16.50436,-13.16968 -18.79402,-16.17554 -23.47782,-18.53579 -29.93035,-15.08251 -2.6381,1.41188 -13.93987,10.29875 -25.11503,19.74858 -11.17515,9.44986 -21.14109,17.18156 -22.14651,17.18156 -1.00543,0 -9.75519,-6.70654 -19.44392,-14.90342 -27.42905,-23.20555 -30.48737,-25.0832 -36.43897,-22.37147 -2.79554,1.27375 -14.38468,10.18166 -25.75364,19.7954 -11.36895,9.61371 -21.45185,17.46135 -22.40644,17.43918 -0.95459,-0.0222 -11.01017,-7.93197 -22.34574,-17.57731 -11.33557,-9.64537 -22.76674,-18.55214 -25.40261,-19.79282 -5.92342,-2.78816 -9.87207,-0.40103 -35.56599,21.50111 -10.26498,8.75013 -19.63685,15.90933 -20.82638,15.90933 -1.18954,0 -10.60784,-7.44314 -20.92955,-16.5403 z m 62.29293,-207.71341 c 13.13711,-7.69886 20.90621,-23.10248 20.90621,-41.45026 V 209.67305 L 199.2674,195.33087 c -15.92862,-15.60028 -21.38172,-19.1685 -29.29405,-19.1685 -10.39437,0 -26.85938,6.53525 -34.02305,13.50434 -24.40925,23.74627 -18.83083,62.17889 11.25298,77.52762 12.52193,6.38867 32.08575,5.15872 45.80195,-2.87951 z m 167.95866,3.9408 c 8.3097,-3.46588 20.90375,-14.27023 24.6452,-21.14299 4.0441,-7.42872 6.28815,-28.26638 3.84418,-35.6961 -1.27564,-3.87796 -3.02912,-7.05083 -3.89662,-7.05083 -1.93707,0 -14.78208,-12.07816 -21.39387,-20.11665 -4.38167,-5.32716 -6.26051,-5.9172 -18.84178,-5.9172 -16.85946,0 -23.86862,2.41054 -33.50517,11.52287 -15.49589,14.65289 -19.21385,33.60765 -10.29335,52.47701 11.65954,24.66321 36.49496,35.49457 59.44141,25.92389 z M 128.88245,138.13893 c -0.66796,-0.66796 -1.88105,0.53611 -2.69576,2.6757 -1.17735,3.09195 -0.92815,3.34115 1.21447,1.21447 1.48267,-1.47164 2.14925,-3.22221 1.48129,-3.89017 z m 6.75327,-14.04426 c 2.43556,-5.11406 2.39041,-5.18329 -0.79088,-1.21246 -1.85565,2.31619 -3.37391,5.16364 -3.37391,6.32767 0,2.75643 1.00208,1.52566 4.16479,-5.11521 z m 12.18697,-20.06776 c 3.34451,-5.071172 4.69458,-8.07504 3.00016,-6.675257 -3.25823,2.691657 -11.56504,15.895577 -10.00018,15.895577 0.50551,0 3.65552,-4.14914 7.00002,-9.22032 z m 9.95881,-14.101663 c 2.69857,-3.440928 2.62183,-3.517663 -0.8191,-0.819101 -3.61382,2.834151 -4.76306,4.615704 -2.9775,4.615704 0.45051,0 2.15898,-1.708472 3.7966,-3.796603 z m 11.79194,-14.101667 6.37198,-7.050834 -7.05084,6.371982 c -6.57236,5.939581 -8.04804,7.729685 -6.37198,7.729685 0.37337,0 3.54625,-3.172875 7.05084,-7.050833 z"
   id="path83"
   inkscape:connector-curvature="0" /><path
   style="fill:#0000ff;fill-opacity:1;stroke-width:2.16948724"
   d="m 57.879636,203.10017 c 0.104101,-2.52733 0.618175,-3.04141 1.310732,-1.31074 0.626701,1.5661 0.549627,3.43728 -0.171275,4.15819 -0.720903,0.7209 -1.233658,-0.56045 -1.139457,-2.84745 z"
   id="path85"
   inkscape:connector-curvature="0" /><path
   style="fill:#0000ff;fill-opacity:1;stroke-width:2.16948724"
   d=""
   id="path87"
   inkscape:connector-curvature="0" /><path
   style="fill:#0000ff;fill-opacity:1;stroke-width:2.16948724"
   d="M 130.69269,472.13425 111.94554,455.7 l -0.3831,-18.81992 -0.3831,-18.81989 -1.24402,15.18642 c -1.24219,15.16423 -1.25404,15.18738 -8.11745,15.853 -4.838551,0.46926 -12.025211,5.12576 -24.275132,15.72879 -9.570935,8.2842 -17.949052,15.06218 -18.618038,15.06218 -1.92636,0 -1.208512,-229.35537 0.84198,-269.01642 2.1353,-41.30139 4.082346,-50.7773 15.532248,-75.59257 10.887798,-23.59703 23.560506,-41.015366 44.549942,-61.232829 27.37816,-26.371228 52.03734,-40.595016 85.63347,-49.394674 17.71461,-4.639897 40.97141,-8.122734 40.97141,-6.135701 0,0.675698 -6.34575,4.777288 -14.10166,9.114644 -7.75592,4.337355 -14.10167,8.255093 -14.10167,8.706083 0,0.450989 7.81432,-2.958939 17.36517,-7.577619 22.94221,-11.094597 33.00325,-12.294355 58.83907,-7.016441 38.11344,7.786066 68.07883,23.780921 98.04472,52.334085 29.74784,28.345372 53.98062,71.810152 58.00832,104.045712 2.34539,18.77142 5.39371,301.76573 3.2505,301.76573 -0.90746,0 -8.55251,-5.95565 -16.98904,-13.2348 -8.43653,-7.27913 -17.57057,-14.2515 -20.29788,-15.49416 -6.09671,-2.77783 -9.78866,-0.56552 -35.87811,21.49917 -10.3452,8.74926 -19.64792,15.90774 -20.6727,15.90774 -1.0248,0 -10.62152,-7.40179 -21.32608,-16.4484 -10.70455,-9.04663 -22.22195,-17.8966 -25.59422,-19.6666 -7.41461,-3.89169 -7.71155,-3.72822 -36.01084,19.8253 -10.76454,8.95933 -20.36508,16.2897 -21.33453,16.2897 -0.96945,0 -10.63922,-7.58145 -21.48837,-16.84767 -10.84915,-9.26623 -22.24122,-18.19393 -25.31572,-19.83936 -6.7998,-3.63914 -8.07274,-2.91472 -35.8891,20.42366 -10.6611,8.94487 -20.31486,16.26337 -21.45279,16.26337 -1.13794,0 -10.5052,-7.39541 -20.81613,-16.43428 z m 59.08676,-205.79977 c 8.88377,-4.59398 19.20504,-17.19547 21.83206,-26.65532 1.25165,-4.50718 2.28118,-13.19617 2.28783,-19.30887 0.0119,-11.00159 -0.15017,-11.26814 -16.03151,-26.35387 -16.8517,-16.00747 -24.18115,-19.35022 -36.56645,-16.67693 -39.58937,8.54512 -53.99834,52.81666 -26.23838,80.61732 5.00681,5.01416 12.34851,10.10933 16.3149,11.32266 9.18135,2.80855 30.42604,1.17931 38.40155,-2.94499 z m 170.25748,2.3025 c 10.09116,-4.21636 23.21989,-16.31273 26.67192,-24.57457 1.61208,-3.85828 2.93106,-13.03755 2.93106,-20.3984 v -13.38335 l -16.07835,-15.97441 -16.07837,-15.9744 -12.66734,0.0476 c -38.33829,0.14421 -59.73824,36.28896 -40.71023,68.76006 5.54987,9.47083 15.55807,18.35675 24.85347,22.0665 7.83977,3.12884 22.88694,2.85329 31.07784,-0.56907 z M 148.82683,102.3998 c 1.27718,-2.38644 1.83401,-4.338976 1.2374,-4.338976 -0.59661,0 -2.12971,1.952536 -3.40689,4.338976 -1.27718,2.38643 -1.83402,4.33897 -1.23741,4.33897 0.59661,0 2.12971,-1.95254 3.4069,-4.33897 z m 18.44064,-23.864361 c 2.15969,-2.386436 3.43858,-4.338975 2.84197,-4.338975 -0.59661,0 -2.85177,1.952539 -5.01146,4.338975 -2.15969,2.386436 -3.43858,4.338974 -2.84197,4.338974 0.59661,0 2.85176,-1.952538 5.01146,-4.338974 z"
   id="path89"
   inkscape:connector-curvature="0" /><path
   style="fill:#0000ff;fill-opacity:1;stroke-width:2.16948724"
   d="M 130.69269,472.13425 111.94554,455.7 111.54423,440.13432 c -0.35618,-13.81478 -0.49139,-14.27178 -1.20205,-4.06276 -0.44566,6.40218 -1.95123,11.85343 -3.39528,12.29336 -1.42701,0.43474 -5.09912,1.33349 -8.160252,1.99723 -3.061129,0.66373 -13.034071,7.57914 -22.162091,15.3676 -9.128023,7.78846 -17.118357,14.16083 -17.7563,14.16083 -1.901394,0 -1.129043,-232.49401 0.897283,-270.10116 1.028675,-19.09149 3.065315,-39.59314 4.525866,-45.55923 3.842102,-15.69431 17.860193,-44.95858 28.935588,-60.40617 11.124736,-15.516395 39.093986,-43.084017 53.985436,-53.210225 23.63005,-16.068458 59.5833,-29.060456 88.35652,-31.928347 12.56753,-1.252634 12.59263,-1.012555 0.76766,7.34382 -4.50316,3.182258 -6.35672,3.677272 16.59307,-4.431362 13.78111,-4.869154 29.4861,-4.021717 54.63809,2.948257 32.61944,9.039308 57.92011,23.79492 84.93161,49.532975 29.17841,27.802782 53.47248,70.873762 57.99079,102.811802 2.33931,16.53581 5.52848,302.99964 3.37325,302.99964 -0.85697,0 -8.57987,-5.95695 -17.16204,-13.23769 -8.58214,-7.28073 -17.76053,-14.2531 -20.39639,-15.49415 -5.87063,-2.7641 -8.4032,-1.22965 -35.51709,21.51936 -22.90249,19.2156 -18.71872,19.54719 -46.46991,-3.68299 -9.54575,-7.99063 -19.61798,-15.71129 -22.38273,-17.15706 -6.13128,-3.20622 -7.77052,-2.24319 -34.83826,20.46711 -10.6611,8.94487 -20.23688,16.26337 -21.2795,16.26337 -1.04263,0 -10.65395,-7.40179 -21.3585,-16.4484 -10.70455,-9.04663 -22.27372,-17.92337 -25.70928,-19.72611 -7.2665,-3.81289 -7.51156,-3.67272 -37.40824,21.39802 -9.69148,8.12708 -18.58404,14.77649 -19.76125,14.77649 -1.17721,0 -10.57661,-7.39541 -20.88754,-16.43428 z m 48.94255,-202.9406 c 20.57028,-4.341 34.2762,-23.69295 34.2762,-48.39599 0,-9.30547 -0.97914,-11.21853 -11.3594,-22.19412 -16.28058,-17.21432 -27.34006,-23.24245 -39.0607,-21.2906 -25.42396,4.23388 -42.86785,24.22017 -42.86785,49.11574 0,10.04248 9.68859,28.88409 17.83561,34.68527 7.14566,5.08817 20.05034,10.25734 25.98972,10.41064 2.0294,0.0523 8.86329,-0.99656 15.18642,-2.33094 z m 177.46236,0.28917 c 10.61318,-2.95311 23.68382,-14.36544 28.43588,-24.82814 2.41801,-5.32377 4.03007,-13.9039 4.05879,-21.60272 l 0.0476,-12.7713 -16.07835,-15.97441 c -15.54585,-15.44532 -16.42606,-15.974 -26.57622,-15.9623 -16.91341,0.0195 -26.97148,3.86416 -36.79763,14.06577 -18.24949,18.94683 -17.11556,45.99448 2.73714,65.28909 13.28824,12.91468 26.98111,16.56755 44.17275,11.78401 z M 228.14083,31.77178 c 3.97082,-3.181287 3.9016,-3.226441 -1.21246,-0.790876 -6.64087,3.162703 -7.87164,4.16479 -5.11521,4.16479 1.16403,0 4.01148,-1.518261 6.32767,-3.373914 z"
   id="path91"
   inkscape:connector-curvature="0" /><path
   style="fill:#0000ff;fill-opacity:1;stroke-width:2.16948724"
   d="m 130.64771,472.21797 -18.70217,-16.35055 -0.30786,-12.39515 c -0.28337,-11.4091 -0.41281,-11.71113 -1.62711,-3.79669 -1.15916,7.55495 -2.16942,8.77117 -8.32469,10.02177 -5.957487,1.2104 -35.186225,22.5749 -38.730569,28.30977 -5.220769,8.44738 -5.662725,-5.18581 -4.633452,-142.92981 0.691904,-92.595 1.971354,-150.2682 3.548209,-159.94103 C 64.530583,158.816 74.70631,133.26306 86.279378,113.84046 95.625941,98.154511 126.48484,65.578144 143.49654,53.438847 168.96145,35.267463 204.59329,21.809128 235.56895,18.662608 l 11.96955,-1.215871 -5.42372,4.670802 c -2.98305,2.568941 -3.95932,4.168799 -2.16949,3.555239 23.11717,-7.924659 26.88641,-8.438365 44.0773,-6.007257 41.99448,5.938795 76.88027,23.724862 109.08527,55.615687 25.03573,24.791492 40.21203,47.650592 50.9624,76.761482 l 6.90425,18.69596 1.72359,73.76256 c 2.05134,87.78755 2.5414,235.38937 0.78153,235.38937 -0.68469,0 -7.58517,-5.37885 -15.33441,-11.95301 -20.84706,-17.68583 -24.42999,-19.16935 -33.28757,-13.78273 -3.9581,2.40707 -15.22223,11.13488 -25.03141,19.39509 -9.80917,8.26024 -18.72001,15.0186 -19.80189,15.0186 -1.08188,0 -10.72534,-7.2775 -21.42991,-16.17225 -23.13129,-19.22044 -27.28909,-21.66879 -33.93974,-19.98568 -2.77669,0.70272 -14.47606,9.12571 -25.99864,18.71779 -11.52258,9.59209 -21.80156,17.44014 -22.84219,17.44014 -1.04063,0 -10.65032,-7.40179 -21.35487,-16.4484 -26.51493,-22.40831 -28.79086,-23.48793 -37.87213,-17.96529 -3.9581,2.40707 -15.22224,11.13488 -25.0314,19.39509 -9.80917,8.26024 -18.81827,15.0186 -20.02023,15.0186 -1.20195,0 -10.60134,-7.35775 -20.88753,-16.35056 z m 46.43766,-202.77813 c 21.74541,-4.12394 34.3006,-19.70292 36.33845,-45.09024 l 1.10538,-13.77078 -14.41793,-14.06779 c -18.41529,-17.96805 -26.43209,-21.53891 -40.68167,-18.12048 -15.20679,3.64805 -27.28209,13.24708 -33.52091,26.64683 -5.67132,12.18084 -6.47211,20.16754 -3.17486,31.66438 4.28049,14.9252 17.35479,28.34936 31.8388,32.69081 8.44412,2.53103 9.40534,2.53305 22.51274,0.0473 z m 190.04576,-5.45728 c 14.21874,-8.33272 20.68557,-19.47809 22.00548,-37.92576 l 1.08652,-15.18552 -16.91583,-16.53596 -16.91587,-16.53596 -15.02556,1.07507 c -12.03892,0.86138 -16.82008,2.33496 -24.05365,7.41342 -29.92486,21.00934 -24.24994,65.01568 10.4973,81.40162 11.25617,5.30813 26.36986,3.88334 39.32161,-3.70691 z"
   id="path93"
   inkscape:connector-curvature="0" /><path
   style="fill:#0000ff;fill-opacity:1;stroke-width:2.16948724"
   d="m 130.41463,472.13634 c -18.01757,-16.03048 -18.47536,-16.68019 -18.72577,-26.57622 -0.20808,-8.22345 -0.51615,-8.97498 -1.62712,-3.96936 -1.04284,4.69865 -3.34234,6.85093 -9.6197,9.00376 -4.537096,1.556 -15.504924,8.78417 -24.372948,16.06258 -8.868024,7.27841 -16.627017,13.23348 -17.242206,13.23348 -1.945145,0 -1.051174,-238.15236 1.030187,-274.44014 1.166511,-20.33768 3.479292,-39.64611 5.585095,-46.62759 5.057711,-16.76809 19.397844,-44.51349 30.283392,-58.59254 11.44566,-14.803484 37.92348,-40.38528 50.93178,-49.208224 24.01354,-16.287308 58.60305,-29.13479 87.11015,-32.35507 13.20016,-1.491146 13.63611,-1.389836 10.51678,2.444 -2.99096,3.676048 -2.9032,3.863941 1.08474,2.32244 14.71705,-5.688743 26.74939,-6.394262 45.66532,-2.677602 39.20912,7.70392 71.4198,24.38043 99.89749,51.720148 30.60697,29.383908 54.18149,69.869038 59.35951,101.939578 2.52644,15.64769 5.94937,305.475 3.60773,305.475 -0.84493,0 -9.33242,-6.34575 -18.86109,-14.10167 -10.86544,-8.844 -19.31577,-14.10166 -22.66474,-14.10166 -3.47007,0 -13.30798,6.4573 -28.0949,18.44064 -12.51523,10.14235 -23.5067,18.43062 -24.42548,18.41838 -0.91878,-0.013 -11.89675,-8.31052 -24.39547,-18.44064 -13.58424,-11.00991 -24.70285,-18.41838 -27.64222,-18.41838 -2.93965,0 -14.0688,7.41641 -27.67222,18.44064 -12.51523,10.14235 -23.53483,18.44064 -24.488,18.44064 -0.95317,0 -10.49132,-7.2775 -21.19589,-16.17225 -23.1879,-19.26747 -27.31057,-21.68626 -33.93975,-19.91253 -2.77667,0.74294 -14.32306,9.14554 -25.65863,18.67245 -11.33557,9.52692 -21.81766,17.34206 -23.29354,17.36699 -1.47588,0.0249 -10.99451,-7.34914 -21.1525,-16.38685 z m 58.74762,-207.01135 c 14.43113,-6.18619 24.74919,-25.54428 24.74919,-46.43291 0,-8.11653 -1.25283,-10.05251 -15.14717,-23.40675 -17.09422,-16.42974 -25.16253,-19.8271 -39.52109,-16.64132 -26.25924,5.82621 -43.33094,32.60368 -36.45137,57.17507 2.80738,10.02698 14.4073,25.38426 22.42981,29.69509 12.18686,6.54854 28.08475,6.40771 43.94063,-0.38918 z m 178.09864,-1.2767 c 14.98584,-8.68615 22.34051,-23.19499 22.36692,-44.12408 0.0108,-9.13302 -0.79009,-10.36075 -16.80142,-25.73284 l -16.81353,-16.14224 -13.6753,1.08559 c -42.93843,3.40861 -59.1707,49.36268 -28.00676,79.28802 14.82834,14.23902 34.46836,16.32641 52.93009,5.62555 z"
   id="path95"
   inkscape:connector-curvature="0" /><path
   style="fill:#0000ff;fill-opacity:1;stroke-width:2.16948724"
   d="m 130.88031,472.68823 c -16.16202,-14.37856 -17.97308,-16.78918 -19.1513,-25.49147 -0.7157,-5.28616 -1.4479,-7.38394 -1.62711,-4.66176 -0.17922,2.72221 -2.03432,5.46917 -4.12245,6.10438 -8.878861,2.70097 -18.423084,8.60551 -31.630813,19.56847 -7.741187,6.4255 -14.652098,11.68273 -15.357581,11.68273 -2.080528,0 -1.329945,-238.83601 0.865884,-275.52488 2.329856,-38.92825 4.993727,-49.37468 20.192725,-79.18629 9.85743,-19.33455 13.905426,-24.53817 37.207125,-47.829032 22.44307,-22.432644 28.93074,-27.564088 45.80542,-36.229988 21.84544,-11.218603 49.77992,-20.089559 70.70528,-22.453374 13.20016,-1.491146 13.63611,-1.389836 10.51678,2.444 -2.99005,3.674934 -2.90199,3.866237 1.08474,2.356475 19.98061,-7.566595 38.84554,-6.50665 72.03713,4.047476 51.00775,16.219243 99.12819,60.934011 122.3514,113.692133 4.52342,10.27626 9.248,25.02986 10.49904,32.78578 2.73134,16.93297 5.97242,305.8977 3.43102,305.8977 -0.96223,0 -6.7361,-4.20288 -12.83085,-9.33971 -16.08492,-13.55693 -24.23549,-18.87545 -28.77213,-18.77478 -4.45313,0.0987 -12.67943,5.81459 -34.99895,24.31789 -8.27605,6.861 -15.96907,12.47455 -17.0956,12.47455 -1.12653,0 -8.33988,-5.18802 -16.02965,-11.52894 -20.82054,-17.16841 -32.64913,-25.35234 -36.64285,-25.35234 -1.96339,0 -14.02196,8.29829 -26.79684,18.44064 -12.77487,10.14235 -23.99072,18.44064 -24.92411,18.44064 -0.93339,0 -9.36729,-6.37703 -18.74201,-14.1712 -22.81646,-18.96965 -28.28173,-22.71008 -33.18253,-22.71008 -2.2802,0 -14.50395,8.29829 -27.16388,18.44064 -12.65992,10.14235 -24.089,18.44064 -25.39796,18.44064 -1.30895,0 -10.41242,-7.14614 -20.22993,-15.8803 z M 352.75863,269.28607 c 21.65183,-4.94056 34.43913,-20.58722 36.35763,-44.4876 l 1.10917,-13.81818 -17.10627,-16.43049 -17.1063,-16.43051 -13.49814,1.10369 c -16.27831,1.331 -23.38117,4.74146 -33.72865,16.19488 -23.64956,26.17723 -4.50314,70.06319 33.12512,75.92683 0.59661,0.0931 5.47796,-0.83341 10.84744,-2.05862 z m -163.63869,-4.25103 c 10.80904,-5.23256 19.37567,-16.78933 22.45777,-30.29652 4.26009,-18.66973 3.27458,-22.8816 -8.06315,-34.46047 -22.85928,-23.34548 -36.69937,-27.28436 -57.01591,-16.22672 -16.79528,9.14114 -28.16067,30.83753 -24.65816,47.07213 3.3287,15.42898 15.18929,31.20515 26.98634,35.89545 9.66523,3.84272 30.36201,2.82369 40.29311,-1.98387 z"
   id="path97"
   inkscape:connector-curvature="0" /><path
   style="fill:#0000ff;fill-opacity:1;stroke-width:2.16948724"
   d="m 130.88031,472.68159 c -13.9478,-12.41387 -18.1433,-17.51234 -19.19155,-23.32199 -0.73783,-4.08928 -1.47003,-6.2604 -1.62711,-4.8247 -0.15707,1.43568 -4.82943,4.6203 -10.383002,7.07689 -5.553575,2.45662 -16.728591,9.82433 -24.833371,16.37269 -8.104778,6.54836 -15.376318,11.9061 -16.158978,11.9061 -2.51169,0 0.616862,-292.79239 3.278732,-306.84726 6.648215,-35.10307 23.580715,-64.20931 56.287399,-96.755631 21.29041,-21.186021 28.16807,-26.580312 44.80978,-35.145244 21.82352,-11.231831 49.74648,-20.107836 70.70528,-22.475429 13.20016,-1.491146 13.63611,-1.389836 10.51678,2.444 -2.99373,3.679459 -2.9069,3.857336 1.08474,2.222062 18.17453,-7.44565 39.33252,-6.21739 72.03713,4.181889 48.73896,15.497821 94.82245,56.710017 119.10773,106.517343 15.91434,32.63917 15.80344,31.38233 17.45438,197.79077 0.80793,81.43712 0.8057,148.0675 -0.004,148.0675 -0.81068,0 -8.74983,-5.78188 -17.64258,-12.84861 -24.74899,-19.6671 -23.1179,-19.83853 -54.83481,5.76317 -11.0474,8.9174 -21.29822,15.73733 -22.77961,15.15539 -1.48137,-0.58194 -11.47985,-8.12267 -22.21881,-16.75718 -26.53057,-21.33153 -27.0916,-21.53678 -38.45474,-14.06854 -5.10069,3.35233 -16.32974,11.90929 -24.95343,19.01547 -8.6237,7.10617 -16.92199,12.42465 -18.44064,11.81882 -1.51866,-0.60583 -11.79617,-8.46458 -22.83892,-17.46389 -11.04276,-8.99934 -22.0911,-17.00143 -24.55186,-17.78244 -5.25199,-1.66693 -15.25014,4.43096 -38.00048,23.17648 -8.45741,6.96811 -16.53334,12.66928 -17.94714,12.66928 -1.41381,0 -10.60307,-7.14913 -20.42058,-15.88694 z M 362.52132,265.64716 c 16.57916,-8.12868 27.11859,-25.96674 27.11859,-45.89845 0,-6.69339 -2.17964,-9.8863 -16.76263,-24.55533 -12.7322,-12.80732 -18.18369,-16.86153 -22.67283,-16.86153 -44.6935,0 -67.14652,42.97846 -39.57273,75.74806 13.26357,15.76285 33.9341,20.37073 51.8896,11.56725 z m -178.76406,1.33849 c 15.30098,-5.11381 26.60533,-20.80601 29.22741,-40.57228 2.03763,-15.36037 -2.86092,-22.6177 -28.14444,-41.69675 -27.23778,-20.55374 -71.52042,14.84123 -62.14203,49.66992 3.0615,11.36955 14.27016,25.91412 23.92529,31.04591 8.62272,4.58306 25.90518,5.30594 37.13377,1.5532 z"
   id="path99"
   inkscape:connector-curvature="0" /><path
   style="fill:#0000ff;fill-opacity:1;stroke-width:2.16948724"
   d="m 140.76674,481.65618 c -18.96964,-15.96927 -28.8212,-26.70871 -28.8212,-31.41874 0,-4.86713 -3e-5,-4.86713 -12.474549,1.51862 -6.861004,3.51219 -18.521457,11.27925 -25.912119,17.26016 -7.390662,5.98089 -13.980479,10.87436 -14.644039,10.87436 -2.076062,0 -1.225708,-244.56011 0.968123,-278.43005 2.401326,-37.07342 7.949758,-56.71622 23.551539,-83.37819 9.844987,-16.82416 42.013195,-52.111793 58.613895,-64.297822 22.90132,-16.81112 63.53995,-32.348254 92.47318,-35.354745 12.47,-1.295774 12.88019,-1.183836 9.7627,2.664134 -2.99459,3.696259 -2.90804,3.877161 1.08474,2.267332 13.46267,-5.427945 21.96299,-6.245068 39.1361,-3.762094 65.87613,9.5247 124.64687,54.730417 154.13864,118.561525 13.66349,29.57283 13.74097,30.55103 15.34003,193.66241 0.79837,81.43712 0.705,148.0675 -0.2074,148.0675 -0.91249,0 -8.84316,-5.77932 -17.62372,-12.84293 -8.78059,-7.06361 -18.02196,-13.49588 -20.53637,-14.29393 -5.33245,-1.69244 -14.59928,3.94903 -37.89897,23.07222 -8.53912,7.00842 -16.49366,12.74259 -17.67681,12.74259 -1.18313,0 -10.65524,-6.82312 -21.04912,-15.16248 -10.39389,-8.33936 -21.87351,-16.70119 -25.51029,-18.58183 -7.89116,-4.08068 -8.15968,-3.94289 -37.23072,19.10548 -10.45927,8.29239 -20.22196,14.60418 -21.69488,14.02617 -1.47292,-0.578 -11.40245,-8.1025 -22.06563,-16.72113 -10.66318,-8.61861 -21.60622,-16.6811 -24.31786,-17.9166 -5.88684,-2.68223 -8.69249,-1.08327 -35.78224,20.39242 -10.30814,8.17189 -19.79279,14.85797 -21.07701,14.85797 -1.28423,0 -6.02993,-3.11057 -10.54602,-6.91235 z m 44.43907,-215.56364 c 14.86821,-6.21233 22.37231,-16.02835 26.56892,-34.75451 3.32397,-14.83221 1.21791,-20.746 -12.00807,-33.71842 -19.02838,-18.66359 -31.44909,-22.96816 -47.21291,-16.36229 -22.38207,9.37927 -35.16041,33.38067 -28.88076,54.24638 8.25654,27.4344 36.03395,41.24295 61.53282,30.58884 z m 175.72847,0 c 16.1361,-6.7421 25.47579,-20.4851 27.89184,-41.04183 l 1.43134,-12.17843 -17.53625,-17.53624 -17.53623,-17.53623 -12.58031,1.57181 c -37.56428,4.69334 -54.75189,36.33327 -36.58077,67.33993 11.62958,19.84439 34.49006,27.91315 54.91038,19.38099 z"
   id="path101"
   inkscape:connector-curvature="0" /><path
   style="fill:#0000ff;fill-opacity:1;stroke-width:2.16948724"
   d="m 140.76674,481.65618 c -17.57885,-14.79847 -28.8212,-26.72529 -28.8212,-30.57596 0,-3.16508 -1.04223,-3.70869 -4.88134,-2.54604 -7.316647,2.21585 -18.529388,9.23334 -33.392302,20.89856 -7.328497,5.75181 -13.918314,10.45784 -14.644039,10.45784 -2.180722,0 -1.421251,-245.97373 0.862752,-279.42352 2.433459,-35.6386 7.62493,-54.39042 22.345068,-80.71136 11.509341,-20.579753 52.784141,-63.053482 72.123081,-74.218076 24.47839,-14.131657 54.82922,-24.383247 80.16281,-27.076572 11.70742,-1.244666 12.73212,-1.038414 10.18586,2.050211 -2.5727,3.120703 -1.89777,3.15322 7.39564,0.356315 12.95747,-3.899626 22.82345,-3.883339 41.39519,0.06834 64.4126,13.705637 116.92035,56.135135 145.19102,117.323292 13.6594,29.56398 13.73199,30.48171 15.30934,193.56387 0.78767,81.43712 0.73554,148.0675 -0.11585,148.0675 -0.8514,0 -9.06453,-5.72916 -18.2514,-12.73148 -9.18684,-7.0023 -18.29038,-13.27082 -20.23006,-13.93 -5.0006,-1.69942 -12.6467,2.77426 -34.42624,20.14258 -10.48112,8.35826 -20.0191,15.19685 -21.1955,15.19685 -1.17639,0 -10.80344,-6.93344 -21.39345,-15.40763 -25.62778,-20.50758 -28.80684,-22.08493 -36.48361,-18.10216 -3.30344,1.71385 -14.58171,9.95467 -25.06283,18.31294 -10.48113,8.35826 -19.99344,15.19685 -21.13849,15.19685 -1.14505,0 -11.1378,-7.35276 -22.20611,-16.33947 -11.06831,-8.98671 -21.89119,-17.28515 -24.05085,-18.44095 -5.87661,-3.14508 -11.83873,-0.0336 -35.02676,18.27993 -11.49086,9.07527 -21.91559,16.50049 -23.16607,16.50049 -1.25048,0 -5.96857,-3.11057 -10.48466,-6.91235 z m 49.6932,-218.0182 c 16.12298,-9.41633 27.50442,-38.63336 20.40076,-52.37032 -4.96387,-9.59906 -26.54077,-28.18857 -36.01234,-31.02632 -24.04706,-7.20468 -52.05538,16.69604 -52.05538,44.42113 0,16.50975 11.87223,34.84693 27.11859,41.88588 8.84791,4.08488 31.33432,2.47091 40.54837,-2.91037 z m 178.03871,-1.93453 c 10.86718,-7.53303 18.15503,-20.97944 20.25503,-37.37149 l 1.47214,-11.49129 -17.54735,-17.54737 -17.54738,-17.54737 -11.49129,1.48929 c -40.16034,5.20484 -57.20548,40.85468 -34.5121,72.18197 13.70493,18.9191 40.27605,23.52265 59.37095,10.28626 z"
   id="path103"
   inkscape:connector-curvature="0" /><path
   style="fill:#0000ff;fill-opacity:1;stroke-width:2.16948724"
   d="m 140.76674,481.65618 c -17.39441,-14.6432 -28.8212,-26.70772 -28.8212,-30.42975 0,-2.13298 -0.49877,-3.87816 -1.10838,-3.87816 -4.00242,0 -21.907252,10.48273 -35.178609,20.59596 -8.622273,6.57049 -16.18836,11.94635 -16.813525,11.94635 -1.97421,0 -1.136382,-246.97265 0.947315,-279.24686 3.346701,-51.83679 17.079507,-82.44404 54.122059,-120.625545 23.44394,-24.164778 42.01463,-37.427708 65.66732,-46.898704 28.75043,-11.512232 69.89356,-19.804278 65.85695,-13.272905 -1.32004,2.135868 -0.0699,2.333014 5.62502,0.887078 12.09482,-3.070854 36.73227,-2.016698 52.88147,2.262626 58.37548,15.468713 108.41239,58.271326 134.74412,115.26294 13.70891,29.67114 13.76935,30.43454 15.32351,193.56387 0.77587,81.43712 0.74192,148.0675 -0.0755,148.0675 -0.81738,0 -8.54073,-5.3971 -17.16299,-11.99357 -8.62228,-6.59646 -18.02061,-12.59685 -20.8852,-13.33419 -6.76107,-1.74028 -14.68031,2.62898 -36.13346,19.93574 -9.4789,7.64686 -18.2591,13.94084 -19.51156,13.98666 -1.25247,0.0458 -12.31054,-7.72684 -24.57348,-17.27259 -13.77753,-10.72473 -24.29364,-17.3559 -27.52405,-17.3559 -3.18528,0 -14.15074,6.78104 -28.06579,17.3559 -12.56088,9.54575 -23.60903,17.3559 -24.55145,17.3559 -0.94242,0 -10.93606,-7.41088 -22.20807,-16.46864 -11.27198,-9.05776 -22.44708,-17.23851 -24.83351,-18.17946 -5.75345,-2.26852 -11.31098,0.7711 -35.28199,19.29711 -10.92454,8.44304 -20.84496,15.35099 -22.04537,15.35099 -1.20041,0 -5.87754,-3.11057 -10.39363,-6.91235 z m 39.51765,-214.63365 c 17.26232,-4.78127 26.5719,-15.9069 31.42278,-37.5525 2.97791,-13.28805 -0.46908,-21.25415 -14.75442,-34.0979 -20.78297,-18.68568 -32.2366,-20.78064 -51.59334,-9.43684 -26.30661,15.41671 -29.99831,49.49669 -7.71838,71.25246 12.01862,11.73586 24.98394,14.72604 42.64336,9.83478 z m 177.03185,-0.0412 c 17.83063,-5.96993 28.55284,-20.52404 31.4203,-42.64926 l 1.48928,-11.4913 -17.48105,-17.48106 -17.48106,-17.48107 -11.55761,1.56921 c -31.0141,4.21086 -50.01669,27.43646 -43.2698,52.88583 3.92317,14.79821 12.18905,25.34177 24.79023,31.62119 12.04912,6.00434 20.74579,6.82454 32.08971,3.02646 z"
   id="path105"
   inkscape:connector-curvature="0" /><path
   style="fill:#0000ff;fill-opacity:1;stroke-width:2.16948724"
   d="m 136.46491,477.99052 c -15.78155,-13.26248 -23.88155,-21.98515 -24.85078,-26.7611 -0.69624,-3.43074 -1.49102,-3.38023 -10.4878,0.66651 -5.353959,2.4082 -16.794262,9.69216 -25.422899,16.18659 -8.628635,6.49444 -16.207422,11.80806 -16.841749,11.80806 -1.965186,0 -1.114609,-251.09202 0.951717,-280.9486 3.631892,-52.47762 17.510453,-81.94833 57.313971,-121.704506 28.20811,-28.174563 44.42164,-38.552635 77.25869,-49.452285 25.06329,-8.319296 49.38976,-12.158886 51.84682,-8.183288 1.09617,1.773636 3.7992,1.786814 10.07968,0.04914 17.54579,-4.854543 52.7621,2.183021 83.15863,16.618265 42.58038,20.221334 77.45473,55.863975 98.95274,101.132674 13.9628,29.4017 14.06872,30.72138 15.60235,194.4211 0.76297,81.43712 0.74951,148.0675 -0.0299,148.0675 -0.77939,0 -9.31723,-5.85761 -18.97299,-13.01692 -9.93651,-7.36747 -19.80256,-13.01693 -22.73243,-13.01693 -3.12712,0 -14.18973,6.87123 -27.94282,17.3559 -12.52148,9.54575 -23.62019,17.3559 -24.66382,17.3559 -1.04361,0 -10.10679,-6.45084 -20.14039,-14.33519 -10.0336,-7.88437 -21.40013,-15.86787 -25.25895,-17.74113 -8.60662,-4.17807 -9.95979,-3.55378 -37.22011,17.1716 -10.78231,8.1976 -20.5269,14.90472 -21.65457,14.90472 -1.12766,0 -7.26521,-4.23026 -13.63898,-9.40058 -24.10275,-19.55183 -32.68778,-25.31122 -37.72937,-25.31122 -3.15423,0 -14.15006,6.82445 -27.96451,17.3559 -12.52147,9.54575 -23.72459,17.3559 -24.89581,17.3559 -1.17123,0 -7.79373,-4.76011 -14.71668,-10.57801 z m 54.03244,-215.43561 c 12.24356,-6.77494 21.24461,-23.6214 21.24461,-39.76167 0,-10.53283 -0.7901,-12.32858 -9.8655,-22.42261 -12.63773,-14.05619 -29.95157,-22.90563 -40.82404,-20.86594 -26.85252,5.03756 -45.2861,36.43574 -35.33397,60.18486 11.17193,26.65996 39.71436,36.73474 64.7789,22.86536 z m 175.97274,-0.35441 c 11.26474,-6.6016 19.76143,-21.50168 22.22846,-38.98059 l 1.47265,-10.43387 -17.39413,-17.39413 -17.39412,-17.39413 -10.53247,1.4922 c -22.81646,3.23254 -39.40028,15.87907 -44.20077,33.70672 -5.25959,19.53268 7.61519,43.653 28.24456,52.91491 10.4929,4.71097 25.53495,3.1453 37.57582,-3.91111 z"
   id="path107"
   inkscape:connector-curvature="0" /><path
   style="fill:#0000ff;fill-opacity:1;stroke-width:2.16948724"
   d="m 141.94245,482.76539 c -13.30632,-10.69906 -29.99691,-27.64825 -29.99691,-30.46166 0,-1.53229 -1.80118,-2.78597 -4.00262,-2.78597 -4.12759,0 -25.764118,13.15738 -39.699321,24.14153 -4.347972,3.42721 -8.58794,6.23129 -9.422151,6.23129 -0.834211,0 -1.067738,-66.63038 -0.518951,-148.0675 1.07619,-159.70069 1.137211,-160.58453 13.13817,-190.29591 9.535844,-23.60837 19.45187,-37.58921 44.843853,-63.226407 29.0746,-29.355382 44.59443,-39.393508 78.10154,-50.515574 25.06329,-8.319296 49.38976,-12.158886 51.84682,-8.183288 1.09631,1.77387 3.79837,1.786775 10.07968,0.04814 17.43751,-4.826626 51.01815,1.65815 80.92018,15.626545 41.97025,19.605922 76.74159,53.243061 97.41954,94.241804 15.27966,30.29539 16.00348,34.00664 17.98273,92.20321 2.11095,62.06931 2.69932,258.16898 0.77459,258.16898 -0.7232,0 -4.87234,-2.76319 -9.22032,-6.14043 -19.41526,-15.08056 -28.77005,-20.29991 -34.02168,-18.98184 -2.87498,0.72157 -15.05151,8.71249 -27.05895,17.75756 -12.00746,9.04509 -23.15034,15.93961 -24.76197,15.32118 -1.61162,-0.61844 -11.09432,-7.39956 -21.07266,-15.06915 -22.04355,-16.94322 -26.81124,-19.56075 -32.39867,-17.78737 -2.38131,0.75581 -14.06576,8.62005 -25.96546,17.47609 -11.8997,8.85606 -22.41039,16.10191 -23.3571,16.10191 -0.9467,0 -11.75459,-7.81015 -24.01753,-17.3559 -12.38033,-9.63712 -24.41153,-17.3559 -27.05252,-17.3559 -2.61594,0 -15.1582,7.81016 -27.87168,17.3559 -12.71347,9.54575 -24.09099,17.3559 -25.28337,17.3559 -1.19237,0 -5.41574,-2.61141 -9.38524,-5.80314 z M 187.89482,264.0177 c 8.62625,-4.46081 18.95247,-17.16444 21.5472,-26.50803 5.54269,-19.9591 1.28636,-31.32371 -17.2061,-45.94116 -13.66022,-10.79778 -23.94274,-13.97219 -35.32807,-10.90643 -16.31552,4.39331 -33.94677,26.0745 -34.06722,41.89256 -0.13562,17.80702 13.35584,38.00232 29.24043,43.7699 9.82325,3.56675 26.53738,2.49016 35.81376,-2.30684 z m 167.63496,3.13268 c 17.10853,-4.75107 29.84514,-21.64916 33.11173,-43.93047 l 1.52969,-10.43387 -17.49271,-17.49271 c -17.13146,-17.13148 -17.66336,-17.46194 -25.75711,-16.00301 -25.32909,4.56566 -41.54448,16.16349 -46.02285,32.91719 -5.60016,20.95043 8.31333,46.55548 29.37827,54.06492 10.25265,3.65496 14.69669,3.80947 25.25298,0.87795 z"
   id="path109"
   inkscape:connector-curvature="0" /><path
   style="fill:#0000ff;fill-opacity:1;stroke-width:2.16948724"
   d="m 141.94245,482.76539 c -13.30632,-10.69906 -29.99691,-27.64825 -29.99691,-30.46166 0,-1.53229 -1.58076,-2.78597 -3.51281,-2.78597 -4.29536,0 -24.653719,12.19471 -37.790097,22.63636 -5.324023,4.23189 -10.503066,7.70383 -11.508986,7.7154 -1.00592,0.0116 -1.379937,-66.60932 -0.83115,-148.04644 1.07619,-159.70069 1.137211,-160.58453 13.13817,-190.29591 8.989044,-22.25463 18.972556,-36.77752 41.365733,-60.174199 32.10093,-33.539461 57.74801,-48.758455 99.37063,-58.96659 14.70343,-3.606083 23.5758,-4.29565 48.37839,-3.760001 36.39046,0.785907 50.22749,4.003917 80.27103,18.668247 39.32796,19.196081 72.48662,51.325344 92.32667,89.460413 16.51811,31.74991 17.44721,36.17511 19.48334,92.79707 2.30003,63.95991 2.64775,260.34572 0.46095,260.31741 -0.89491,-0.0109 -6.02032,-3.52249 -11.3898,-7.80204 -15.80392,-12.59594 -27.50945,-18.72337 -32.65081,-17.09157 -2.5191,0.79954 -14.17977,8.68495 -25.91257,17.52316 -11.73281,8.83821 -22.26413,16.06946 -23.40293,16.06946 -1.13879,0 -9.65099,-5.85801 -18.91596,-13.01779 -26.31822,-20.33816 -30.77476,-22.70108 -37.25022,-19.75067 -3.01108,1.37194 -14.65719,9.30611 -25.88023,17.63145 -11.22304,8.32536 -21.22405,15.13701 -22.22446,15.13701 -1.00041,0 -10.02824,-6.43296 -20.06184,-14.29549 -21.9441,-17.19581 -28.98184,-21.08741 -34.79735,-19.24166 -2.42297,0.76902 -14.00498,8.62948 -25.73779,17.46769 -11.73281,8.83821 -22.31818,16.06946 -23.52305,16.06946 -1.20487,0 -5.43845,-2.61141 -9.40795,-5.80314 z m 43.18839,-217.91944 c 13.89102,-4.39061 26.61112,-25.22797 26.61112,-43.59292 0,-10.17972 -9.87927,-23.43767 -24.89284,-33.40612 -10.83321,-7.19284 -12.93231,-7.80459 -23.71257,-6.91061 -19.6977,1.63349 -36.68493,18.46767 -39.52193,39.16587 -1.15582,8.43264 -0.39022,12.2199 4.48439,22.18324 11.55677,23.6212 30.26374,31.02126 57.03183,22.56054 z m 171.44279,1.30475 c 17.72577,-5.26398 27.37103,-18.82831 32.12147,-45.17306 1.4787,-8.20058 1.21656,-8.61899 -16.00049,-25.53812 l -17.50381,-17.20095 -9.35166,1.39123 c -11.90372,1.77088 -27.35208,8.38805 -33.93751,14.53681 -22.06475,20.60171 -11.01173,61.25661 19.68037,72.38772 9.56143,3.46767 12.09331,3.42677 24.99163,-0.40363 z"
   id="path111"
   inkscape:connector-curvature="0" /><path
   style="fill:#0000ff;fill-opacity:1;stroke-width:2.16948724"
   d="m 129.81862,472.12236 c -9.83019,-9.04539 -17.87308,-17.83181 -17.87308,-19.52538 0,-1.69357 -1.01516,-3.07922 -2.25591,-3.07922 -4.27787,0 -20.562902,9.23711 -34.89073,19.79052 -7.901864,5.82028 -15.07064,10.5823 -15.930612,10.5823 -0.859973,0 -1.111915,-66.63038 -0.559873,-148.0675 0.880497,-129.89064 1.46177,-150.06497 4.735005,-164.33866 4.639577,-20.23195 15.467879,-43.99511 28.016723,-61.48387 C 102.38799,90.213433 134.62142,58.454205 149.73252,48.191322 188.54195,21.833444 252.12448,10.885026 300.42407,22.243407 356.75059,35.489441 407.8088,76.295083 434.65228,129.51839 c 14.94911,29.64 15.95337,34.54599 17.98583,87.86423 2.16407,56.77049 2.73202,262.50796 0.72465,262.50796 -0.74895,0 -7.88198,-4.83366 -15.85118,-10.74146 -7.96918,-5.90781 -17.2668,-11.79741 -20.66133,-13.08801 -6.93396,-2.6363 -10.55588,-0.71504 -39.42961,20.91555 -8.51042,6.37553 -16.39544,11.59187 -17.52225,11.59187 -1.12683,0 -11.24847,-6.92509 -22.49253,-15.38906 -11.24408,-8.464 -22.78808,-16.30615 -25.65334,-17.42699 -5.81149,-2.27339 -10.70672,0.42754 -38.46726,21.22418 -8.51043,6.37553 -16.34539,11.59187 -17.41103,11.59187 -1.06563,0 -11.49319,-7.27585 -23.17234,-16.16858 -11.67915,-8.89273 -23.19082,-16.78938 -25.58148,-17.54816 -4.75371,-1.50877 -12.26637,2.86874 -37.97055,22.12487 -8.51042,6.37553 -16.82005,11.59187 -18.46583,11.59187 -1.64579,0 -11.03522,-7.40077 -20.86541,-16.44617 z M 353.84337,267.05568 c 18.20955,-4.97405 30.99351,-21.47289 34.70956,-44.79575 l 1.46974,-9.22436 -17.74187,-17.4815 c -19.66063,-19.3721 -18.18112,-18.97126 -42.02049,-11.38468 -13.4177,4.27002 -26.62093,17.09213 -28.63049,27.80404 -2.31428,12.33614 0.2009,26.41944 6.38821,35.76902 6.32609,9.55937 12.63622,14.3179 24.69254,18.62084 10.04926,3.58662 10.48507,3.60089 21.1328,0.69239 z m -160.86281,-6.97631 c 12.75728,-9.73045 20.5912,-29.00862 17.81075,-43.8297 -1.65871,-8.84165 -16.56604,-24.85064 -29.09023,-31.24001 -11.00085,-5.61222 -21.96567,-5.7409 -32.41831,-0.38048 -16.70725,8.56798 -27.96336,28.38179 -25.49071,44.87058 1.79556,11.9737 12.99518,28.59182 22.86528,33.92778 11.89461,6.43045 35.76476,4.70514 46.32322,-3.34817 z"
   id="path113"
   inkscape:connector-curvature="0" /><path
   style="fill:#0000ff;fill-opacity:1;stroke-width:2.16948724"
   d="m 129.6622,472.10941 c -9.74416,-9.05253 -17.71666,-17.83895 -17.71666,-19.52538 0,-6.3858 -9.80079,-2.02706 -35.184492,15.64773 -9.209119,6.41235 -17.353659,11.65882 -18.098979,11.65882 -0.74532,0 -0.907274,-67.11851 -0.359897,-149.15225 1.101568,-165.08891 0.959805,-163.30502 15.473952,-194.71899 4.232385,-9.16044 12.010195,-22.6689 17.284019,-30.01879 12.081757,-16.837806 44.194887,-48.158269 60.204907,-58.718831 41.12142,-27.124603 102.303,-36.901805 152.01104,-24.292323 43.62399,11.066128 83.17075,37.407984 110.58348,73.658973 16.59139,21.940701 33.29286,56.270371 36.57282,75.175021 2.68954,15.50165 5.95488,308.06719 3.43836,308.06719 -0.80028,0 -9.11788,-5.36948 -18.48355,-11.93218 -11.11403,-7.78781 -19.1902,-11.92313 -23.25231,-11.90612 -4.32216,0.0174 -13.06597,5.07434 -28.61712,16.54828 -25.85996,19.08001 -21.51828,19.28792 -51.03884,-2.44386 -12.32713,-9.07468 -21.25373,-14.12252 -24.9491,-14.10826 -3.74733,0.0152 -13.32046,5.6593 -27.44902,16.18544 -11.93218,8.88975 -22.78625,16.20177 -24.12016,16.24891 -1.3339,0.0471 -10.00572,-5.77227 -19.2707,-12.93205 -25.06256,-19.36779 -30.07058,-22.1153 -36.10676,-19.80876 -2.81181,1.07443 -14.52748,8.89995 -26.03481,17.39004 -11.50733,8.49007 -22.32801,15.43651 -24.04597,15.43651 -1.71795,0 -11.09605,-7.40661 -20.84021,-16.45912 z M 365.74232,261.03635 c 10.86778,-6.51458 20.45101,-22.7784 22.60076,-38.35604 1.13798,-8.24614 0.53246,-9.53095 -9.55633,-20.27685 -5.9242,-6.31007 -14.18435,-14.18522 -18.35588,-17.50033 -6.9091,-5.49067 -8.47534,-5.86105 -17.58658,-4.15889 -24.99098,4.66882 -42.15336,21.47739 -42.15336,41.28437 0,12.20559 8.84585,30.51457 17.83562,36.91586 16.25213,11.57254 30.35742,12.19746 47.21577,2.09188 z m -178.43431,1.97612 c 16.70139,-7.58136 28.67353,-34.49597 22.24644,-50.01233 -6.15353,-14.85593 -29.86918,-32.4988 -43.68508,-32.4988 -17.03241,0 -35.94873,16.29854 -41.09417,35.40724 -4.28904,15.9283 5.84282,36.94494 22.79392,47.2817 8.89331,5.42314 27.58448,5.3395 39.73889,-0.17789 z"
   id="path115"
   inkscape:connector-curvature="0" /><path
   style="fill:#0000ff;fill-opacity:1;stroke-width:2.16948724"
   d="m 126.87844,469.1432 -19.87431,-19.42533 -6.74961,3.44296 c -3.712291,1.89361 -14.22029,8.68248 -23.351108,15.08635 -9.130818,6.40387 -17.275359,11.6434 -18.098979,11.6434 -0.82362,0 -1.049638,-67.11851 -0.502261,-149.15225 C 59.40374,165.64942 59.261977,167.43331 73.776124,136.01934 78.008509,126.8589 85.786319,113.35044 91.060143,106.00055 102.31867,90.310042 134.59465,58.471524 149.5049,48.347928 190.6422,20.416994 252.75561,10.173822 303.27609,22.989396 c 45.90455,11.64464 90.27146,42.608167 116.59495,81.371254 12.89238,18.98484 27.50262,50.75078 30.52953,66.378 2.65964,13.73107 6.12693,309.15193 3.62847,309.15193 -0.7185,0 -9.19195,-5.36948 -18.8299,-11.93218 -9.63794,-6.5627 -19.50254,-11.93218 -21.92132,-11.93218 -5.97707,0 -10.74037,2.75113 -32.9106,19.00809 -10.46947,7.67704 -20.28809,13.47755 -21.81914,12.89003 -1.53105,-0.58751 -12.36096,-8.00495 -24.06647,-16.48317 -11.70551,-8.47823 -23.38228,-15.41495 -25.94835,-15.41495 -4.90864,0 -12.67471,4.70963 -36.31101,22.02025 -7.90187,5.78713 -15.31908,10.52206 -16.48269,10.52206 -1.16362,0 -10.69904,-6.47431 -21.18984,-14.38737 -26.49993,-19.98848 -28.46241,-20.87736 -36.69454,-16.62037 -3.66792,1.89676 -15.11713,9.64944 -25.44269,17.2282 -10.32556,7.57873 -20.3231,13.77954 -22.21674,13.77954 -1.89365,0 -12.38644,-8.74141 -23.31731,-19.42533 z m 55.02569,-204.14389 c 18.2361,-5.06445 33.28154,-31.90647 27.91817,-49.80783 -4.42667,-14.7749 -30.10242,-34.69014 -44.72432,-34.69014 -12.80598,0 -29.66169,12.07268 -37.19495,26.64041 -9.69912,18.75604 2.63315,49.57309 23.09328,57.70767 7.2122,2.86746 20.88369,2.93373 30.90782,0.14991 z m 178.1067,-0.69042 c 9.99277,-4.17524 22.1173,-19.18998 25.26555,-31.2883 1.46189,-5.61784 3.11816,-11.95628 3.68062,-14.08543 0.70335,-2.66246 -4.2802,-9.33644 -15.96074,-21.37473 l -16.9834,-17.50355 -11.11298,1.12165 c -20.19648,2.03846 -39.74978,16.50148 -43.13275,31.90407 -4.01735,18.29085 6.75895,41.42819 23.05139,49.49272 10.87069,5.38083 24.81878,6.0679 35.19231,1.73357 z"
   id="path117"
   inkscape:connector-curvature="0" /><path
   style="fill:#0000ff;fill-opacity:1;stroke-width:2.16948724"
   d="m 126.86841,469.1334 c -22.80352,-22.28838 -18.07381,-22.09324 -47.914416,-1.97695 -10.389437,7.00378 -19.510247,12.73413 -20.268468,12.73413 -0.758221,0 -0.930731,-67.11851 -0.383354,-149.15225 1.104443,-165.51984 1.030644,-164.60206 15.723685,-195.54143 10.6143,-22.3507 23.349242,-39.372659 45.830673,-61.258835 30.56065,-29.751485 56.82685,-44.096358 96.88049,-52.909752 21.05502,-4.632943 69.27002,-3.572242 89.37763,1.966254 42.9849,11.839874 88.79169,44.603918 113.75639,81.366083 12.89238,18.98484 27.50262,50.75078 30.52953,66.378 2.72186,14.05226 6.09693,309.15193 3.53578,309.15193 -0.76945,0 -9.3745,-5.36948 -19.12233,-11.93218 -9.74784,-6.5627 -19.87242,-11.93218 -22.49908,-11.93218 -2.62667,0 -15.3245,7.47254 -28.21744,16.60567 -22.01225,15.59306 -23.7448,16.41989 -28.41217,13.55929 -2.73375,-1.67551 -13.84374,-9.14805 -24.68885,-16.60566 -10.84514,-7.45762 -21.49012,-13.5593 -23.65555,-13.5593 -2.16541,0 -14.27338,7.32202 -26.90661,16.27116 -12.63321,8.94913 -23.8337,16.27115 -24.88995,16.27115 -1.05626,0 -10.12357,-6.1838 -20.14958,-13.74177 -20.93413,-15.78092 -26.06036,-18.80054 -31.91646,-18.80054 -2.31545,0 -14.54618,7.32202 -27.17939,16.27116 -12.63322,8.94913 -24.44925,16.27115 -26.25784,16.27115 -1.80859,0 -12.2363,-8.74581 -23.17269,-19.43513 z m 54.35174,-203.97932 c 15.23696,-4.36991 28.56878,-23.32967 29.12238,-41.41621 0.25982,-8.48836 -0.84735,-11.73543 -6.35004,-18.62314 -7.4011,-9.26396 -24.66282,-21.7841 -32.87623,-23.84553 -12.95017,-3.25029 -36.8489,11.57802 -43.23121,26.82342 -6.1618,14.71866 -2.76583,31.82453 9.11565,45.91648 10.34033,12.26405 26.29574,16.28543 44.21945,11.14498 z m 186.14922,-5.69672 c 8.56888,-6.78334 18.79871,-25.04274 20.97924,-37.44629 1.19743,-6.81138 0.16206,-8.45664 -15.35973,-24.40673 -18.45047,-18.95961 -21.63595,-20.05676 -40.03305,-13.78824 -18.8912,6.43689 -32.2649,22.00664 -32.2649,37.56306 0,16.12231 12.68938,36.21367 27.11859,42.93746 3.95253,1.8418 11.39426,2.75295 18.94972,2.32013 9.88811,-0.56645 14.11761,-2.03977 20.61013,-7.17939 z"
   id="path119"
   inkscape:connector-curvature="0" /><path
   style="fill:#0000ff;fill-opacity:1;stroke-width:2.16948724"
   d="m 127.62908,470.12789 c -10.77417,-10.14235 -20.91464,-18.44064 -22.53438,-18.44064 -1.61974,0 -12.434378,6.34575 -24.03254,14.10166 -11.598161,7.75592 -21.687787,14.10167 -22.421392,14.10167 -0.733604,0 -0.885973,-67.11851 -0.338596,-149.15225 1.104443,-165.51984 1.030644,-164.60206 15.723685,-195.54143 10.64746,-22.42053 23.400531,-39.439186 45.830673,-61.159906 30.57128,-29.604378 51.18545,-41.378984 89.42684,-51.079709 24.07211,-6.106392 63.81828,-7.031223 87.39731,-2.033599 46.18415,9.788824 95.96087,43.324564 122.62929,82.618214 12.80297,18.86408 26.29232,46.7556 30.13978,62.319 2.78909,11.28225 3.56511,38.7522 4.62714,163.79269 0.70183,82.63034 0.67671,150.23699 -0.0557,150.23699 -0.73253,0 -8.73173,-4.83069 -17.776,-10.73484 -9.04427,-5.90417 -18.30023,-11.32396 -20.5688,-12.04397 -5.28389,-1.67704 -14.12564,2.9067 -36.13674,18.73402 -9.73145,6.99751 -18.6163,12.72274 -19.74409,12.72274 -1.12778,0 -9.27412,-5.15999 -18.10298,-11.46667 -29.99449,-21.42582 -31.66783,-22.19199 -39.89744,-18.26756 -3.9397,1.87871 -15.49523,9.33747 -25.67896,16.57503 -10.18377,7.23756 -19.34299,13.1592 -20.35385,13.1592 -1.01086,0 -11.0849,-6.84645 -22.38676,-15.21435 -11.30185,-8.36789 -22.86976,-15.82696 -25.70647,-16.57569 -5.92932,-1.56502 -10.82927,1.01526 -36.45547,19.19719 -9.76182,6.92606 -19.15418,12.59285 -20.87193,12.59285 -1.71774,0 -11.9384,-8.29829 -22.71257,-18.44064 z m 52.04557,-205.11203 c 17.81459,-4.94758 29.76433,-22.11885 29.85017,-42.89338 0.0456,-11.04502 -0.43364,-12.01258 -11.36532,-22.94427 -14.91549,-14.91548 -28.45658,-20.41835 -40.99797,-16.66086 -12.11879,3.63088 -29.24914,20.90579 -31.23668,31.50028 -3.73899,19.93055 5.5701,39.64277 22.84831,48.38185 10.58647,5.35449 18.5996,6.03296 30.90149,2.61638 z m 180.96347,-1.90092 c 13.63931,-6.19354 26.8323,-27.87553 26.8323,-44.09751 0,-4.94597 -3.29093,-9.80448 -14.51875,-21.43448 -7.98532,-8.27135 -16.75451,-15.59996 -19.48709,-16.28579 -7.77431,-1.95123 -25.77696,3.31727 -35.56605,10.40846 -11.46282,8.30362 -18.2273,22.76816 -16.296,34.84587 4.968,31.06811 32.95942,48.40449 59.03559,36.56345 z"
   id="path121"
   inkscape:connector-curvature="0" /><path
   style="fill:#0000ff;fill-opacity:1;stroke-width:2.16948724"
   d="m 142.31836,483.96002 c -2.98304,-2.45527 -11.28133,-10.05395 -18.44064,-16.88592 -7.15931,-6.832 -14.20859,-13.12883 -15.66507,-13.99298 -3.2992,-1.95748 -12.470834,2.67079 -32.214056,16.25616 -8.435249,5.80432 -16.091655,10.5533 -17.014235,10.5533 -0.922579,0 -1.229564,-67.11851 -0.682187,-149.15225 1.104443,-165.51984 1.030644,-164.60206 15.723685,-195.54143 11.21425,-23.61403 23.89673,-40.154672 49.617483,-64.711747 18.78475,-17.934874 26.48856,-23.636616 43.01619,-31.837135 29.28135,-14.528538 56.46745,-20.867572 89.29273,-20.820552 42.48186,0.06085 72.24929,8.863777 107.35654,31.747843 32.26624,21.032198 54.6829,46.800945 73.79329,84.828021 15.94963,31.73759 15.57227,27.39841 16.98003,195.25026 0.693,82.63034 0.57936,150.23699 -0.25257,150.23699 -0.83191,0 -7.07257,-3.76397 -13.8681,-8.36439 -13.83445,-9.36559 -25.11181,-15.49997 -28.49496,-15.49997 -1.23929,0 -13.10804,7.38615 -26.37502,16.41369 -13.26698,9.02752 -25.38289,15.92974 -26.92425,15.33828 -1.54137,-0.59149 -11.93122,-7.36745 -23.08855,-15.05772 -11.15734,-7.69027 -22.40939,-14.63501 -25.00455,-15.43278 -3.63374,-1.11702 -10.29587,2.34465 -28.97914,15.05772 -13.34337,9.0795 -25.43187,16.05876 -26.86334,15.50945 -1.43147,-0.54932 -12.1799,-7.93547 -23.88541,-16.41369 -11.70552,-8.47823 -23.10487,-15.41495 -25.3319,-15.41495 -2.22703,0 -14.88361,7.32202 -28.12574,16.27116 -13.24213,8.94913 -25.21733,16.23867 -26.61155,16.19897 -1.39423,-0.0397 -4.97563,-2.08104 -7.95868,-4.53633 z M 188.59932,261.2881 c 17.77647,-10.38202 26.56385,-38.639 16.83383,-54.13139 -5.11858,-8.14992 -22.15497,-21.19972 -32.05838,-24.55658 -20.0013,-6.77962 -48.4123,17.15148 -48.4123,40.77856 0,16.99807 14.14707,36.79946 29.92017,41.87872 8.42801,2.71399 25.76874,0.67255 33.71668,-3.96931 z m 166.7815,3.73393 c 10.25857,-2.84913 20.51246,-13.10646 26.97471,-26.98383 8.69455,-18.671 7.5109,-23.08844 -11.20019,-41.79951 l -16.31507,-16.31508 -9.94937,1.36371 c -14.06423,1.92772 -30.72381,11.6288 -37.45766,21.81204 -13.13524,19.86381 -2.33597,50.39909 21.47652,60.72552 9.02051,3.91178 15.6218,4.21032 26.47106,1.19715 z"
   id="path123"
   inkscape:connector-curvature="0" /><path
   style="fill:#0000ff;fill-opacity:1;stroke-width:2.16948724"
   d="m 131.12993,473.92449 c -28.12752,-25.79705 -23.34705,-24.13498 -40.27752,-14.00356 -8.086875,4.83928 -18.065952,11.31216 -22.175728,14.38418 -4.109777,3.07201 -8.258921,5.58547 -9.220321,5.58547 -2.482058,0 -2.080563,-253.70916 0.453073,-286.30176 3.932887,-50.59253 19.280018,-80.38459 63.202496,-122.689521 18.6156,-17.930037 26.16806,-23.544757 43.12445,-32.059964 29.38758,-14.757943 56.29482,-21.059743 89.71588,-21.011869 29.19538,0.04182 47.75678,3.232778 69.99771,12.033562 47.54295,18.812848 84.55622,52.876217 108.85352,100.178092 18.57683,36.16526 17.89676,29.12715 19.28859,199.61447 0.81421,99.73291 0.49571,150.23699 -0.94744,150.23699 -1.19567,0 -4.52149,-1.84658 -7.39072,-4.10352 -8.32845,-6.55116 -30.91593,-19.74917 -33.80979,-19.75526 -1.45469,-0.002 -13.38075,7.31644 -26.50239,16.26558 -13.12163,8.94913 -24.69293,16.27115 -25.714,16.27115 -1.02105,0 -9.59664,-5.43439 -19.05682,-12.07641 -9.4602,-6.64201 -20.72477,-13.9142 -25.03239,-16.16038 -7.71802,-4.02453 -7.95163,-4.01986 -16.05069,0.32098 -4.52028,2.42273 -16.017,9.86936 -25.54825,16.54811 -19.88946,13.93689 -14.59333,14.79178 -47.17851,-7.61531 -10.84512,-7.45762 -21.01973,-13.5593 -22.61023,-13.5593 -1.5905,0 -13.77593,7.32202 -27.07873,16.27116 -13.3028,8.94913 -25.51178,16.27115 -27.13106,16.27115 -1.61929,0 -10.1293,-6.58982 -18.91113,-14.64404 z M 178.1149,264.85304 c 12.99058,-3.59809 20.53741,-10.00754 26.26374,-22.30545 10.17829,-21.85902 5.28064,-36.63126 -17.30131,-52.18404 -14.97303,-10.31232 -24.76478,-10.92256 -39.23078,-2.44492 -25.51777,14.95441 -29.64286,43.55515 -9.4427,65.46974 11.90036,12.91036 22.96182,16.10382 39.71105,11.46467 z m 176.68686,0.29453 c 14.40202,-4.13044 32.59037,-28.44447 32.64747,-43.64284 0.0267,-7.07615 -9.16235,-19.90447 -22.95244,-32.04299 -9.76319,-8.5939 -11.31199,-9.23619 -19.22189,-7.97134 -20.56362,3.28825 -38.43568,16.77711 -42.56955,32.12919 -3.3459,12.42568 2.26492,29.73724 13.17371,40.64603 11.62808,11.62808 24.13194,15.12389 38.9227,10.88195 z"
   id="path125"
   inkscape:connector-curvature="0" /><path
   style="fill:#0000ff;fill-opacity:1;stroke-width:2.16948724"
   d="m 58.050912,206.53519 c 0,-2.98305 0.492416,-4.20338 1.094259,-2.71186 0.601842,1.49152 0.601842,3.93219 0,5.42372 -0.601843,1.49152 -1.094259,0.27118 -1.094259,-2.71186 z"
   id="path127"
   inkscape:connector-curvature="0" /><path
   style="fill:#0000ff;fill-opacity:1;stroke-width:2.16948724"
   d="m 58.050912,206.53519 c 0,-2.98305 0.492416,-4.20338 1.094259,-2.71186 0.601842,1.49152 0.601842,3.93219 0,5.42372 -0.601843,1.49152 -1.094259,0.27118 -1.094259,-2.71186 z"
   id="path129"
   inkscape:connector-curvature="0" /><path
   style="fill:#0000ff;fill-opacity:1;stroke-width:2.16948724"
   d=""
   id="path131"
   inkscape:connector-curvature="0" /><path
   style="fill:#0000ff;fill-opacity:1;stroke-width:2.16948724"
   d=""
   id="path133"
   inkscape:connector-curvature="0" /><path
   style="fill:#0000ff;fill-opacity:1;stroke-width:2.16948724"
   d=""
   id="path135"
   inkscape:connector-curvature="0" /><path
   style="fill:#0000ff;fill-opacity:1;stroke-width:2.16948724"
   d=""
   id="path137"
   inkscape:connector-curvature="0" /><path
   style="fill:#0000ff;fill-opacity:1;stroke-width:2.16948724"
   d=""
   id="path139"
   inkscape:connector-curvature="0" /><path
   style="fill:#0000ff;fill-opacity:1;stroke-width:2.16948724"
   d=""
   id="path141"
   inkscape:connector-curvature="0" /></svg>